<?xml version="1.0" encoding="UTF-8" standalone="no"?>
<!-- Created with Inkscape (http://www.inkscape.org/) -->

<svg
   width="21cm"
   height="29.700001cm"
   viewBox="0 0 210 297.00001"
   version="1.1"
   id="svg5"
   inkscape:version="1.4.3 (0d15f75, 2025-12-25)"
   sodipodi:docname="board-elections-2025.svg"
   xml:space="preserve"
   inkscape:export-filename="board-elections-2025.png"
   inkscape:export-xdpi="300"
   inkscape:export-ydpi="300"
   xmlns:inkscape="http://www.inkscape.org/namespaces/inkscape"
   xmlns:sodipodi="http://sodipodi.sourceforge.net/DTD/sodipodi-0.dtd"
   xmlns:xlink="http://www.w3.org/1999/xlink"
   xmlns="http://www.w3.org/2000/svg"
   xmlns:svg="http://www.w3.org/2000/svg"><sodipodi:namedview
     id="namedview7"
     pagecolor="#ffffff"
     bordercolor="#666666"
     borderopacity="1.0"
     inkscape:showpageshadow="2"
     inkscape:pageopacity="0.0"
     inkscape:pagecheckerboard="0"
     inkscape:deskcolor="#d1d1d1"
     inkscape:document-units="cm"
     showgrid="true"
     inkscape:zoom="2.0890096"
     inkscape:cx="435.85247"
     inkscape:cy="579.4612"
     inkscape:window-width="2560"
     inkscape:window-height="1361"
     inkscape:window-x="-9"
     inkscape:window-y="-9"
     inkscape:window-maximized="1"
     inkscape:current-layer="layer1"
     showguides="true"><sodipodi:guide
       position="105,90.923926"
       orientation="-1,0"
       id="guide1545"
       inkscape:locked="false"
       inkscape:label=""
       inkscape:color="rgb(0,134,229)" /><sodipodi:guide
       position="5.0000001,278.56794"
       orientation="-1,0"
       id="guide1696"
       inkscape:locked="false"
       inkscape:label=""
       inkscape:color="rgb(0,134,229)" /><sodipodi:guide
       position="205,282.74124"
       orientation="-1,0"
       id="guide1762"
       inkscape:locked="false"
       inkscape:label=""
       inkscape:color="rgb(0,134,229)" /><sodipodi:guide
       position="79.640513,292.00001"
       orientation="0,1"
       id="guide1829"
       inkscape:locked="false"
       inkscape:label=""
       inkscape:color="rgb(0,134,229)" /><sodipodi:guide
       position="-26.083138,5.0000077"
       orientation="0,1"
       id="guide1897"
       inkscape:locked="false"
       inkscape:label=""
       inkscape:color="rgb(0,134,229)" /><sodipodi:guide
       position="100,278.06463"
       orientation="-1,0"
       id="guide2043"
       inkscape:locked="false"
       inkscape:label=""
       inkscape:color="rgb(0,134,229)" /><sodipodi:guide
       position="110,265.76892"
       orientation="-1,0"
       id="guide2045"
       inkscape:locked="false"
       inkscape:label=""
       inkscape:color="rgb(0,134,229)" /><sodipodi:guide
       position="87.423275,247.00001"
       orientation="0,1"
       id="guide2116"
       inkscape:locked="false"
       inkscape:label=""
       inkscape:color="rgb(0,134,229)" /><sodipodi:guide
       position="-33.038641,242.00001"
       orientation="0,1"
       id="guide2494"
       inkscape:locked="false"
       inkscape:label=""
       inkscape:color="rgb(0,134,229)" /><inkscape:grid
       type="xygrid"
       id="grid7686"
       originx="0"
       originy="0"
       spacingy="1"
       spacingx="1"
       units="cm"
       visible="true" /><sodipodi:guide
       position="200,265.03118"
       orientation="-1,0"
       id="guide13926"
       inkscape:locked="false"
       inkscape:label=""
       inkscape:color="rgb(0,134,229)" /><sodipodi:guide
       position="0,270.93312"
       orientation="-1,0"
       id="guide28"
       inkscape:locked="false"
       inkscape:label=""
       inkscape:color="rgb(0,134,229)" /><sodipodi:guide
       position="210,261.58838"
       orientation="-1,0"
       id="guide29"
       inkscape:locked="false"
       inkscape:label=""
       inkscape:color="rgb(0,134,229)" /><sodipodi:guide
       position="-39.346268,7.6293947e-06"
       orientation="0,1"
       id="guide31"
       inkscape:locked="false"
       inkscape:label=""
       inkscape:color="rgb(0,134,229)" /><sodipodi:guide
       position="-42.789067,297.00001"
       orientation="0,1"
       id="guide32"
       inkscape:locked="false"
       inkscape:label=""
       inkscape:color="rgb(0,134,229)" /><sodipodi:guide
       position="-44.75638,237.00001"
       orientation="0,1"
       id="guide33"
       inkscape:locked="false"
       inkscape:label=""
       inkscape:color="rgb(0,134,229)" /></sodipodi:namedview><defs
     id="defs2"><linearGradient
       id="g1"
       y1="212.13203"
       gradientTransform="matrix(2.0001022,0,0,0.49997488,1.0919972e-5,-210.00001)"
       x1="0"
       x2="212.13203"
       y2="0"
       gradientUnits="userSpaceOnUse"><stop
         stop-color="#9ebd13"
         id="stop2" /><stop
         offset="1"
         stop-color="#008552"
         id="stop4" /></linearGradient><linearGradient
       inkscape:collect="always"
       xlink:href="#g1"
       id="linearGradient247"
       gradientUnits="userSpaceOnUse"
       gradientTransform="matrix(2.0001022,0,0,0.49997488,1.0260864e-5,-209.99998)"
       x1="0"
       y1="212.13203"
       x2="155.10217"
       y2="125.18031" /></defs><g
     inkscape:label="Layer 1"
     inkscape:groupmode="layer"
     id="layer1"><rect
       width="141.42857%"
       height="70.707062%"
       fill="url(#g1)"
       id="rect61"
       x="0"
       y="-209.99997"
       style="fill:url(#linearGradient247);stroke-width:1"
       transform="rotate(90)" /><rect
       style="fill:#d9e021;fill-opacity:1;stroke:none;stroke-width:2.93285"
       id="rect30"
       width="150"
       height="39"
       x="30.000002"
       y="124.84212"
       rx="5" /><text
       xml:space="preserve"
       style="font-size:4.23333px;line-height:1.25;font-family:Arial;-inkscape-font-specification:Arial;stroke-width:0.264583"
       x="-488.24225"
       y="62.556202"
       id="text2586"><tspan
         sodipodi:role="line"
         id="tspan2584"
         style="stroke-width:0.264583"
         x="-488.24225"
         y="62.556202" /></text><text
       xml:space="preserve"
       style="font-size:4.23333px;line-height:1.25;font-family:Arial;-inkscape-font-specification:Arial;stroke-width:0.264583"
       x="-488.24225"
       y="62.556202"
       id="text71"><tspan
         sodipodi:role="line"
         id="tspan71"
         style="stroke-width:0.264583"
         x="-488.24225"
         y="62.556202" /></text><path
       style="clip-rule:evenodd;fill:#ffffff;fill-rule:evenodd;stroke-width:0.224642"
       inkscape:connector-curvature="0"
       id="Geeko"
       d="m 79.662686,16.034708 c -0.743858,-0.02679 -1.449101,0.236009 -1.988063,0.7415 -0.538984,0.50549 -0.856943,1.190245 -0.879408,1.931745 -0.0516,1.532241 1.148103,2.821285 2.67684,2.87767 0.743454,0.02246 1.452246,-0.240323 1.994376,-0.745813 0.541343,-0.507849 0.852585,-1.193009 0.87624,-1.931745 0.0516,-1.531837 -1.147698,-2.819038 -2.679985,-2.873402 z m 0.453891,3.035369 c -0.680824,0 -1.230839,-0.368369 -1.230839,-0.8199 0,-0.455845 0.550015,-0.822259 1.230839,-0.822259 0.680801,0 1.232388,0.366414 1.232388,0.822259 0,0.451509 -0.551969,0.8199 -1.232388,0.8199 z m 6.469253,3.308758 c 0.01993,-0.01554 0.06632,-0.0564 0.06027,-0.09417 -0.153815,-0.961178 -1.585796,-5.622576 -2.66965,-6.743542 -0.29864,-0.305334 -0.537794,-0.606355 -1.022011,-0.889629 -3.92091,-2.284838 -13.223129,-3.663694 -13.658935,-3.726818 0,0 -0.04375,-0.0091 -0.07407,0.02049 -0.02354,0.023 -0.02799,0.06737 -0.02799,0.06737 0,0 -0.03585,1.92741 -0.04136,2.142909 C 68.20217,12.836323 61.295897,10.605534 54.821927,10.380891 49.331665,10.187836 41.335966,9.4778734 30.740256,15.99246 l -0.313219,0.195023 c -4.984816,3.109276 -8.426338,6.943698 -10.225275,11.398133 -0.564212,1.401814 -1.323032,4.564735 -0.570906,7.541023 0.323867,1.300949 0.927863,2.608323 1.742237,3.778261 1.84072,2.644042 4.929553,4.398499 8.255385,4.694802 4.695926,0.419992 8.251791,-1.689041 9.516528,-5.6383 0.869546,-2.724913 0,-6.7231 -3.333469,-8.762853 -2.711435,-1.660287 -5.627069,-1.282843 -7.318402,-0.163899 -1.467207,0.972769 -2.298092,2.484545 -2.28349,4.144878 0.03388,2.945062 2.570808,4.510371 4.394904,4.515088 0.529909,0 1.0622,-0.0922 1.662242,-0.287609 0.213545,-0.06501 0.414466,-0.145778 0.635896,-0.282893 l 0.06935,-0.04058 0.04374,-0.02915 -0.0146,0.0087 c 0.415656,-0.283274 0.66584,-0.743859 0.66584,-1.237915 0,-0.134743 -0.01887,-0.271458 -0.05753,-0.408962 -0.215499,-0.745812 -0.952259,-1.196939 -1.715819,-1.057863 l -0.103223,0.02443 -0.139481,0.04255 -0.202515,0.06974 c -0.419991,0.103225 -0.734401,0.112287 -0.801771,0.114653 -0.213545,-0.01379 -1.263524,-0.328203 -1.263524,-1.47826 v -0.01577 c 0,-0.42235 0.169425,-0.718631 0.262787,-0.880576 0.32663,-0.512184 1.220976,-1.014912 2.429283,-0.909734 1.585819,0.137108 2.729181,0.950305 3.486451,2.484545 0.702884,1.426255 0.518879,3.180713 -0.473973,4.465892 -0.986158,1.273386 -2.741761,1.814729 -5.07647,1.563354 -2.354478,-0.260428 -4.344585,-1.615358 -5.459486,-3.724347 -1.090976,-2.061746 -1.150461,-4.506103 -0.154059,-6.383889 2.383231,-4.499364 6.885066,-4.452413 9.353437,-4.025817 3.652686,0.633536 7.808122,4.002904 9.282002,7.893711 0.237963,0.620148 0.359315,1.111845 0.465301,1.561377 l 0.15916,0.671748 4.126681,2.014864 c 0.08864,0.04328 0.118603,0.05791 0.15406,0.03153 0.04255,-0.03166 0.0182,-0.118984 0.0182,-0.118984 -0.02561,-0.09219 -0.0855,-0.177297 -0.180837,-1.332085 -0.07842,-1.024774 -0.237986,-3.830378 1.174476,-5.220691 0.548442,-0.54332 1.384089,-1.028323 2.044021,-1.183551 2.704696,-0.660718 5.876422,-0.204874 8.87495,3.266077 1.552324,1.792647 2.309099,2.61012 2.68897,2.976288 0,0 0.08647,0.08166 0.132382,0.119379 0.05016,0.04122 0.08284,0.0759 0.156014,0.116621 0.125319,0.06973 5.156443,2.385927 5.156443,2.385927 0,0 0.05961,0.02961 0.103605,-0.02482 0.04349,-0.05381 0.0022,-0.107559 0.0022,-0.107559 -0.03349,-0.03822 -3.189698,-4.117247 -2.627867,-7.475876 0.442456,-2.675267 2.571482,-2.432878 5.516769,-2.100362 0.961335,0.112285 2.055838,0.237964 3.189024,0.263191 3.163865,0.02011 6.571691,-0.56419 8.672097,-1.482977 1.358863,-0.590585 2.22605,-0.983799 2.769393,-1.477856 0.195416,-0.161931 0.296685,-0.424731 0.402267,-0.707601 l 0.07406,-0.186752 c 0.08786,-0.229292 0.217095,-0.712341 0.27384,-0.977105 0.02285,-0.11662 0.0496,-0.230797 -0.04688,-0.305334 -0.08821,-0.06815 -0.290778,0.05398 -0.290778,0.05398 -0.922337,0.555137 -3.227887,1.606306 -5.383556,1.651212 -2.67639,0.05398 -8.099259,-2.709412 -8.66109,-3.001223 -0.376029,-0.895357 -0.751608,-1.790939 -1.133051,-2.684028 3.879575,2.556206 7.097353,3.968983 9.560558,4.186886 2.74221,0.244276 4.879908,-1.251798 5.807681,-1.874259 0.121451,-0.08075 0.242592,-0.171142 0.353947,-0.258025 z M 75.580147,18.701663 c 0.03938,-1.062604 0.484194,-2.048761 1.261165,-2.772088 0.77733,-0.72573 1.791456,-1.100815 2.854756,-1.066916 2.192556,0.0784 3.915518,1.929364 3.840263,4.119493 -0.04136,1.062603 -0.486171,2.048761 -1.261165,2.769841 -0.77733,0.730066 -1.789098,1.105151 -2.857227,1.069298 -2.190197,-0.08077 -3.91125,-1.92741 -3.837792,-4.119493 z" /><path
       style="fill:#ffffff;stroke-width:0.224642"
       inkscape:connector-curvature="0"
       d="m 46.66945,41.713586 c -1.748527,0 -2.710311,1.47826 -2.710311,2.500271 v 1.311979 c 0,1.505037 1.229648,2.437595 2.369978,2.437595 h 4.002903 c 0.5043,0 0.609882,0.330157 0.609882,0.608714 v 0.846678 c 0,0.08983 -0.0182,0.903017 -0.609882,0.903017 h -5.459485 c -0.542534,0 -0.934558,0.377444 -0.934558,0.893965 v 0.234032 c 0,0.514544 0.392024,0.889629 0.934558,0.889629 h 5.756238 c 1.504655,0 2.47556,-1.046833 2.47556,-2.668527 v -1.415607 c 0,-1.522761 -1.094121,-2.203585 -2.180335,-2.203585 h -3.938656 c -0.592944,0 -0.861639,-0.444815 -0.861639,-0.759224 v -0.781666 c 0,-0.492102 0.328967,-0.777353 0.904209,-0.777353 h 4.35986 c 0.53465,0 0.936917,-0.384139 0.936917,-0.891988 v -0.233628 c 0,-0.509826 -0.408962,-0.894369 -0.955023,-0.894369 h -4.699969 z"
       id="path835" /><path
       style="fill:#ffffff;stroke-width:0.224642"
       inkscape:connector-curvature="0"
       d="m 63.036899,41.713586 c -0.516903,0 -0.933345,0.419992 -0.933345,0.936917 v 6.702881 c 0,0.537008 -0.43812,0.968434 -0.968433,0.968434 h -3.042782 c -0.532268,0 -0.96803,-0.431426 -0.96803,-0.968434 v -6.702881 c 0,-0.516925 -0.419991,-0.936917 -0.936511,-0.936917 h -0.294305 c -0.524405,0 -0.936916,0.413702 -0.936916,0.936917 v 6.956727 c 0,1.619695 1.274554,2.794552 3.030202,2.794552 h 3.253946 c 1.753267,0 3.027057,-1.174475 3.027057,-2.794552 v -6.956727 c 0,-0.523215 -0.410938,-0.936917 -0.934557,-0.936917 h -0.296281 z"
       id="path837" /><path
       style="fill:#ffffff;stroke-width:0.224642"
       inkscape:connector-curvature="0"
       d="m 68.861877,41.713586 c -1.74774,0 -2.712332,1.47826 -2.712332,2.500271 v 1.311979 c 0,1.505037 1.232006,2.437595 2.373122,2.437595 h 4.001781 c 0.505109,0 0.611095,0.330157 0.611095,0.608714 v 0.846678 c 0,0.08983 -0.0182,0.903017 -0.611095,0.903017 h -5.461957 c -0.540152,0 -0.934535,0.377444 -0.934535,0.893965 v 0.234032 c 0,0.514544 0.394383,0.889629 0.934535,0.889629 h 5.75826 c 1.50506,0 2.480278,-1.046833 2.480278,-2.668527 v -1.415607 c 0,-1.522761 -1.097266,-2.203585 -2.183502,-2.203585 H 69.17887 c -0.594538,0 -0.862447,-0.444815 -0.862447,-0.759224 v -0.781666 c 0,-0.492102 0.328989,-0.777353 0.904208,-0.777353 h 4.362332 c 0.533459,0 0.934153,-0.384139 0.934153,-0.891988 v -0.233628 c 0,-0.509826 -0.408579,-0.894369 -0.956999,-0.894369 H 68.86217 Z"
       id="path839" /><path
       style="fill:#ffffff;stroke-width:0.224642"
       inkscape:connector-curvature="0"
       d="m 78.065479,41.713586 c -0.518879,0 -0.910903,0.384543 -0.910903,0.894369 v 8.841478 c 0,0.507467 0.382948,0.889629 0.890415,0.889629 h 7.045686 c 0.542534,0 0.934558,-0.375085 0.934558,-0.889629 v -0.234032 c 0,-0.516521 -0.392024,-0.893965 -0.934558,-0.893965 h -5.770391 v -2.250917 h 4.228221 c 0.541343,0 0.934557,-0.379803 0.934557,-0.894369 v -0.233629 c 0,-0.516924 -0.393214,-0.891987 -0.934557,-0.891987 h -4.228221 v -2.31831 h 5.477233 c 0.540557,0 0.934535,-0.372705 0.934535,-0.891988 v -0.233628 c 0,-0.516925 -0.393978,-0.894369 -0.934535,-0.894369 h -6.732085 z"
       id="path841" /><path
       style="fill:#ffffff;stroke-width:0.394"
       inkscape:connector-curvature="0"
       d="m 18.176562,45.922158 c -0.882955,0 -1.601612,0.687136 -1.601612,1.534237 v 3.333638 c 0,0.860496 0.695411,1.561423 1.548028,1.561423 h 2.156364 c 0.852617,0 1.548027,-0.700927 1.548027,-1.561423 v -3.333638 c 0,-0.846707 -0.719051,-1.534237 -1.601611,-1.534237 z m -0.466497,4.73549 v -3.044047 c 0,-0.356964 0.293136,-0.648918 0.651677,-0.648918 h 1.680017 c 0.350661,0 0.649313,0.298652 0.649313,0.648918 v 3.044047 c 0,0.359329 -0.290772,0.651283 -0.649313,0.651283 h -1.692625 c -0.359329,0 -0.639069,-0.28565 -0.639069,-0.651283 z"
       id="path843" /><path
       style="fill:#ffffff;stroke-width:0.394"
       inkscape:connector-curvature="0"
       d="m 26.71061,45.882758 c -0.621733,0 -1.090593,0.222216 -1.466863,0.404244 -0.229309,0.109926 -0.427885,0.20488 -0.581939,0.20488 -0.06974,0 -0.129232,-0.03152 -0.160752,-0.08313 L 24.35764,46.134524 c -0.03585,-0.0721 -0.179664,-0.213154 -0.357359,-0.213154 h -0.213154 c -0.20488,0 -0.368784,0.183998 -0.368784,0.408578 v 8.455642 c 0,0.265163 0.209214,0.473983 0.473982,0.473983 h 0.184392 c 0.262799,0 0.476347,-0.211184 0.476347,-0.473983 v -2.805676 c 0,-0.08313 0.05398,-0.172966 0.108744,-0.172966 0.154054,0 0.35263,0.09023 0.581939,0.195424 0.37627,0.172966 0.84513,0.38612 1.466863,0.38612 h 0.19897 c 1.100837,0 1.78561,-0.629219 1.78561,-1.63983 v -3.227651 c 0,-0.995245 -0.699351,-1.637859 -1.78561,-1.637859 h -0.19897 z m -2.157152,4.709092 v -2.911663 c 0,-0.402274 0.314412,-0.716292 0.716293,-0.716292 h 1.574819 c 0.402275,0 0.716293,0.314412 0.716293,0.716292 v 2.911663 c 0,0.395183 -0.322292,0.716293 -0.716293,0.716293 h -1.574819 c -0.394395,0 -0.716293,-0.32111 -0.716293,-0.716293 z"
       id="path845" /><path
       style="fill:#ffffff;stroke-width:0.394"
       inkscape:connector-curvature="0"
       d="m 31.883835,45.922158 c -0.882955,0 -1.599641,0.687136 -1.599641,1.534237 v 3.308815 c 0,0.858133 0.696592,1.585852 1.518477,1.585852 h 2.22492 c 0.275013,0 0.473983,-0.190696 0.473983,-0.449554 v -0.145781 c 0,-0.260434 -0.19897,-0.44719 -0.473983,-0.44719 h -1.827768 c -0.5122,0 -0.782484,-0.251766 -0.782484,-0.730477 v -0.968059 h 3.297389 c 0.530324,0 0.843949,-0.323474 0.843949,-0.871529 v -1.282865 c 0,-0.846707 -0.717869,-1.534237 -1.597278,-1.534237 h -2.077564 z m -0.466102,1.680411 c 0,-0.357358 0.280922,-0.637886 0.638674,-0.637886 h 1.732026 c 0.356964,0 0.635523,0.280528 0.635523,0.637886 v 1.033069 h -3.006617 c 3.94e-4,-0.134748 3.94e-4,-1.033069 3.94e-4,-1.033069 z"
       id="path847" /><path
       style="fill:#ffffff;stroke-width:0.394"
       inkscape:connector-curvature="0"
       d="m 40.142083,45.882758 c -0.619762,0 -1.087441,0.222216 -1.464893,0.402274 -0.234824,0.11032 -0.435371,0.20685 -0.599275,0.20685 -0.0721,0 -0.101258,-0.0091 -0.157206,-0.105986 L 37.790295,46.14792 c -0.07486,-0.150508 -0.202122,-0.22655 -0.373906,-0.22655 h -0.183211 c -0.221428,0 -0.382968,0.172572 -0.382968,0.408578 v 5.546344 c 0,0.262798 0.207638,0.473982 0.475165,0.473982 h 0.18321 c 0.262798,0 0.477134,-0.213548 0.477134,-0.473982 v -4.196105 c 0,-0.393212 0.321111,-0.716292 0.714323,-0.716292 h 1.575607 c 0.394395,0 0.715505,0.32308 0.715505,0.716292 v 4.196105 c 0,0.262798 0.20882,0.473982 0.473983,0.473982 h 0.18518 c 0.262798,0 0.476346,-0.213548 0.476346,-0.473982 v -4.355675 c 0,-0.995245 -0.699744,-1.637859 -1.786791,-1.637859 z"
       id="path849" /><path
       style="fill:#ffffff;stroke-width:0.394"
       inkscape:connector-curvature="0"
       d="m 87.60337,50.201002 c 0.479893,0 0.862073,0.39006 0.862073,0.878227 0,0.495258 -0.382574,0.881379 -0.866013,0.881379 -0.479892,0 -0.869953,-0.386121 -0.869953,-0.881379 0,-0.487773 0.390061,-0.878227 0.869953,-0.878227 z m -0.0039,0.136324 c -0.38612,0 -0.702108,0.331748 -0.702108,0.741509 0,0.41764 0.315988,0.745055 0.706048,0.745055 0.390061,0.0043 0.702109,-0.327415 0.702109,-0.741115 0,-0.413701 -0.312048,-0.745449 -0.702109,-0.745449 z m -0.163904,1.252527 h -0.156024 v -0.979091 c 0.08195,-0.01182 0.159964,-0.02364 0.276982,-0.02364 0.148538,0 0.245857,0.03113 0.304169,0.07407 0.05871,0.04255 0.09023,0.108745 0.09023,0.202911 0,0.128444 -0.08589,0.206456 -0.191091,0.237976 v 0.0083 c 0.08589,0.01537 0.144205,0.09338 0.163905,0.237976 0.02364,0.152478 0.04649,0.21079 0.06225,0.241916 h -0.163904 c -0.02364,-0.03113 -0.04689,-0.120958 -0.06619,-0.249796 -0.02364,-0.124504 -0.08589,-0.171784 -0.21079,-0.171784 H 87.43592 v 0.421186 z m 0,-0.542538 h 0.113078 c 0.128838,0 0.237976,-0.04649 0.237976,-0.167844 0,-0.08589 -0.06225,-0.171785 -0.237976,-0.171785 -0.05083,0 -0.08589,0.0039 -0.113078,0.0083 z"
       id="path853" /><text
       xml:space="preserve"
       style="font-style:normal;font-weight:normal;font-size:34.7825px;line-height:1.25;font-family:sans-serif;letter-spacing:0px;word-spacing:0px;fill:#ffffff;fill-opacity:1;stroke:none;stroke-width:0.869557"
       x="108.5054"
       y="38.459473"
       id="text884"><tspan
         sodipodi:role="line"
         x="108.5054"
         y="38.459473"
         style="font-style:normal;font-variant:normal;font-weight:800;font-stretch:normal;font-family:Inter;-inkscape-font-specification:'Inter Ultra-Bold';fill:#ffffff;stroke-width:0.869557"
         id="tspan908">2025 </tspan></text><text
       id="text936"
       y="52.564247"
       x="109.18346"
       style="font-style:normal;font-weight:normal;font-size:12.9172px;line-height:1.25;font-family:sans-serif;letter-spacing:0px;word-spacing:0px;fill:#ffffff;fill-opacity:1;stroke:none;stroke-width:0.322928"
       xml:space="preserve"><tspan
         id="tspan934"
         style="font-style:normal;font-variant:normal;font-weight:bold;font-stretch:normal;font-family:Inter;-inkscape-font-specification:'Inter Bold';fill:#ffffff;stroke-width:0.322928"
         y="52.564247"
         x="109.18346"
         sodipodi:role="line">Board Election</tspan></text><rect
       style="fill:#ffc107;stroke:none;stroke-width:3.03816"
       id="rect28"
       width="187.01785"
       height="33.567307"
       x="11.491076"
       y="74.739342"
       rx="2.3976648" /><rect
       style="fill:#173f4f;stroke:none;stroke-width:1.42432"
       id="rect29"
       width="95.906593"
       height="14.385988"
       x="57.046707"
       y="63.0667"
       rx="1.2295717" /><rect
       style="fill:#d9e021;fill-opacity:1;stroke:none;stroke-width:3.40661"
       id="rect75"
       width="200"
       height="39.463177"
       x="5.0000019"
       y="70.679291"
       rx="5" /><rect
       style="fill:#1f556b;stroke:none;stroke-width:1.42432"
       id="rect27"
       width="95.906593"
       height="14.385988"
       x="57.046707"
       y="60.529167"
       rx="1.2295717" /><text
       xml:space="preserve"
       style="font-style:normal;font-weight:normal;font-size:6.76675px;line-height:1.25;font-family:sans-serif;letter-spacing:0px;word-spacing:0px;fill:#ffffff;fill-opacity:1;stroke:none;stroke-width:0.253753"
       x="61.435661"
       y="69.535652"
       id="text27"><tspan
         sodipodi:role="line"
         id="tspan27"
         style="font-style:normal;font-variant:normal;font-weight:bold;font-stretch:normal;font-size:6.76675px;font-family:'Nunito Sans';-inkscape-font-specification:'Nunito Sans Bold';fill:#ffffff;stroke-width:0.253753"
         x="61.435661"
         y="69.535652">Friday, 15 November 2024</tspan><tspan
         sodipodi:role="line"
         style="font-style:normal;font-variant:normal;font-weight:bold;font-stretch:normal;font-size:6.76675px;font-family:'Nunito Sans';-inkscape-font-specification:'Nunito Sans Bold';fill:#ffffff;stroke-width:0.253753"
         x="61.435661"
         y="77.994087"
         id="tspan28" /></text><rect
       style="fill:#1f556b;stroke:none;stroke-width:1.42432"
       id="rect34"
       width="95.906593"
       height="14.385988"
       x="57.046707"
       y="120.6861"
       rx="1.2295717" /><text
       xml:space="preserve"
       style="font-style:normal;font-weight:normal;font-size:6.76675px;line-height:1.25;font-family:sans-serif;letter-spacing:0px;word-spacing:0px;fill:#ffffff;fill-opacity:1;stroke:none;stroke-width:0.253753"
       x="56.942543"
       y="129.68919"
       id="text36"><tspan
         sodipodi:role="line"
         style="font-style:normal;font-variant:normal;font-weight:bold;font-stretch:normal;font-size:6.76675px;font-family:'Nunito Sans';-inkscape-font-specification:'Nunito Sans Bold';fill:#ffffff;stroke-width:0.253753"
         x="56.942543"
         y="129.68919"
         id="tspan36">Saturday, 30 November 2024</tspan></text><rect
       style="fill:#173f4f;stroke:none;stroke-width:1.42432"
       id="rect42"
       width="95.906593"
       height="14.385988"
       x="57.046707"
       y="178.1546"
       rx="1.2295717" /><rect
       style="fill:#d9e021;fill-opacity:1;stroke:none;stroke-width:2.29959"
       id="rect88"
       width="150"
       height="23.976648"
       x="30.000002"
       y="185.7672"
       rx="5" /><text
       xml:space="preserve"
       style="font-style:normal;font-weight:normal;font-size:5.41339px;line-height:1.25;font-family:sans-serif;letter-spacing:0px;word-spacing:0px;fill:#000000;fill-opacity:1;stroke:none;stroke-width:0.253753"
       x="38.323292"
       y="197.129"
       id="text45"><tspan
         sodipodi:role="line"
         style="font-style:normal;font-variant:normal;font-weight:normal;font-stretch:normal;font-size:5.41339px;font-family:'Nunito Sans';-inkscape-font-specification:'Nunito Sans';stroke-width:0.253753"
         x="38.323292"
         y="197.129"
         id="tspan44">‣ Ballots open: Please cast your vote during this time</tspan><tspan
         sodipodi:role="line"
         style="font-style:normal;font-variant:normal;font-weight:normal;font-stretch:normal;font-size:5.41339px;font-family:'Nunito Sans';-inkscape-font-specification:'Nunito Sans';stroke-width:0.253753"
         x="38.323292"
         y="203.89574"
         id="tspan45">‣ Campaign continues</tspan></text><rect
       style="fill:#1f556b;stroke:none;stroke-width:1.42432"
       id="rect45"
       width="95.906593"
       height="14.385988"
       x="57.046707"
       y="175.61707"
       rx="1.2295717" /><text
       xml:space="preserve"
       style="font-style:normal;font-weight:normal;font-size:6.76675px;line-height:1.25;font-family:sans-serif;letter-spacing:0px;word-spacing:0px;fill:#ffffff;fill-opacity:1;stroke:none;stroke-width:0.253753"
       x="62.095425"
       y="184.62016"
       id="text47"><tspan
         sodipodi:role="line"
         style="font-style:normal;font-variant:normal;font-weight:bold;font-stretch:normal;font-size:6.76675px;font-family:'Nunito Sans';-inkscape-font-specification:'Nunito Sans Bold';fill:#ffffff;stroke-width:0.253753"
         x="62.095425"
         y="184.62016"
         id="tspan47">Sunday, 1 December 2024</tspan></text><rect
       style="fill:#d9e021;fill-opacity:1;stroke:none;stroke-width:1.1875"
       id="rect92"
       width="50"
       height="19.181318"
       x="80"
       y="230.51263"
       rx="5" /><text
       xml:space="preserve"
       style="font-style:normal;font-weight:normal;font-size:5.41339px;line-height:1.25;font-family:sans-serif;letter-spacing:0px;word-spacing:0px;fill:#000000;fill-opacity:1;stroke:none;stroke-width:0.253753"
       x="87.50663"
       y="241.87444"
       id="text52"><tspan
         sodipodi:role="line"
         style="font-style:normal;font-variant:normal;font-weight:normal;font-stretch:normal;font-size:5.41339px;font-family:'Nunito Sans';-inkscape-font-specification:'Nunito Sans';stroke-width:0.253753"
         x="87.50663"
         y="241.87444"
         id="tspan52">‣ Ballots close</tspan></text><rect
       style="fill:#1f556b;stroke:none;stroke-width:1.42432"
       id="rect52"
       width="95.906593"
       height="14.385988"
       x="57.046707"
       y="220.36252"
       rx="1.2295717" /><text
       xml:space="preserve"
       style="font-style:normal;font-weight:normal;font-size:6.76675px;line-height:1.25;font-family:sans-serif;letter-spacing:0px;word-spacing:0px;fill:#ffffff;fill-opacity:1;stroke:none;stroke-width:0.253753"
       x="60.160133"
       y="229.36562"
       id="text53"><tspan
         sodipodi:role="line"
         style="font-style:normal;font-variant:normal;font-weight:bold;font-stretch:normal;font-size:6.76675px;font-family:'Nunito Sans';-inkscape-font-specification:'Nunito Sans Bold';fill:#ffffff;stroke-width:0.253753"
         x="60.160133"
         y="229.36562"
         id="tspan53">Sunday, 15 December 2024</tspan></text><path
       style="clip-rule:evenodd;fill:#ffffff;fill-rule:evenodd;stroke-width:0.224642"
       inkscape:connector-curvature="0"
       id="path61"
       d="m 79.662686,16.034708 c -0.743858,-0.02679 -1.449101,0.236009 -1.988063,0.7415 -0.538984,0.50549 -0.856943,1.190245 -0.879408,1.931745 -0.0516,1.532241 1.148103,2.821285 2.67684,2.87767 0.743454,0.02246 1.452246,-0.240323 1.994376,-0.745813 0.541343,-0.507849 0.852585,-1.193009 0.87624,-1.931745 0.0516,-1.531837 -1.147698,-2.819038 -2.679985,-2.873402 z m 0.453891,3.035369 c -0.680824,0 -1.230839,-0.368369 -1.230839,-0.8199 0,-0.455845 0.550015,-0.822259 1.230839,-0.822259 0.680801,0 1.232388,0.366414 1.232388,0.822259 0,0.451509 -0.551969,0.8199 -1.232388,0.8199 z m 6.469253,3.308758 c 0.01993,-0.01554 0.06632,-0.0564 0.06027,-0.09417 -0.153815,-0.961178 -1.585796,-5.622576 -2.66965,-6.743542 -0.29864,-0.305334 -0.537794,-0.606355 -1.022011,-0.889629 -3.92091,-2.284838 -13.223129,-3.663694 -13.658935,-3.726818 0,0 -0.04375,-0.0091 -0.07407,0.02049 -0.02354,0.023 -0.02799,0.06737 -0.02799,0.06737 0,0 -0.03585,1.92741 -0.04136,2.142909 C 68.20217,12.836323 61.295897,10.605534 54.821927,10.380891 49.331665,10.187836 41.335966,9.4778734 30.740256,15.99246 l -0.313219,0.195023 c -4.984816,3.109276 -8.426338,6.943698 -10.225275,11.398133 -0.564212,1.401814 -1.323032,4.564735 -0.570906,7.541023 0.323867,1.300949 0.927863,2.608323 1.742237,3.778261 1.84072,2.644042 4.929553,4.398499 8.255385,4.694802 4.695926,0.419992 8.251791,-1.689041 9.516528,-5.6383 0.869546,-2.724913 0,-6.7231 -3.333469,-8.762853 -2.711435,-1.660287 -5.627069,-1.282843 -7.318402,-0.163899 -1.467207,0.972769 -2.298092,2.484545 -2.28349,4.144878 0.03388,2.945062 2.570808,4.510371 4.394904,4.515088 0.529909,0 1.0622,-0.0922 1.662242,-0.287609 0.213545,-0.06501 0.414466,-0.145778 0.635896,-0.282893 l 0.06935,-0.04058 0.04374,-0.02915 -0.0146,0.0087 c 0.415656,-0.283274 0.66584,-0.743859 0.66584,-1.237915 0,-0.134743 -0.01887,-0.271458 -0.05753,-0.408962 -0.215499,-0.745812 -0.952259,-1.196939 -1.715819,-1.057863 l -0.103223,0.02443 -0.139481,0.04255 -0.202515,0.06974 c -0.419991,0.103225 -0.734401,0.112287 -0.801771,0.114653 -0.213545,-0.01379 -1.263524,-0.328203 -1.263524,-1.47826 v -0.01577 c 0,-0.42235 0.169425,-0.718631 0.262787,-0.880576 0.32663,-0.512184 1.220976,-1.014912 2.429283,-0.909734 1.585819,0.137108 2.729181,0.950305 3.486451,2.484545 0.702884,1.426255 0.518879,3.180713 -0.473973,4.465892 -0.986158,1.273386 -2.741761,1.814729 -5.07647,1.563354 -2.354478,-0.260428 -4.344585,-1.615358 -5.459486,-3.724347 -1.090976,-2.061746 -1.150461,-4.506103 -0.154059,-6.383889 2.383231,-4.499364 6.885066,-4.452413 9.353437,-4.025817 3.652686,0.633536 7.808122,4.002904 9.282002,7.893711 0.237963,0.620148 0.359315,1.111845 0.465301,1.561377 l 0.15916,0.671748 4.126681,2.014864 c 0.08864,0.04328 0.118603,0.05791 0.15406,0.03153 0.04255,-0.03166 0.0182,-0.118984 0.0182,-0.118984 -0.02561,-0.09219 -0.0855,-0.177297 -0.180837,-1.332085 -0.07842,-1.024774 -0.237986,-3.830378 1.174476,-5.220691 0.548442,-0.54332 1.384089,-1.028323 2.044021,-1.183551 2.704696,-0.660718 5.876422,-0.204874 8.87495,3.266077 1.552324,1.792647 2.309099,2.61012 2.68897,2.976288 0,0 0.08647,0.08166 0.132382,0.119379 0.05016,0.04122 0.08284,0.0759 0.156014,0.116621 0.125319,0.06973 5.156443,2.385927 5.156443,2.385927 0,0 0.05961,0.02961 0.103605,-0.02482 0.04349,-0.05381 0.0022,-0.107559 0.0022,-0.107559 -0.03349,-0.03822 -3.189698,-4.117247 -2.627867,-7.475876 0.442456,-2.675267 2.571482,-2.432878 5.516769,-2.100362 0.961335,0.112285 2.055838,0.237964 3.189024,0.263191 3.163865,0.02011 6.571691,-0.56419 8.672097,-1.482977 1.358863,-0.590585 2.22605,-0.983799 2.769393,-1.477856 0.195416,-0.161931 0.296685,-0.424731 0.402267,-0.707601 l 0.07406,-0.186752 c 0.08786,-0.229292 0.217095,-0.712341 0.27384,-0.977105 0.02285,-0.11662 0.0496,-0.230797 -0.04688,-0.305334 -0.08821,-0.06815 -0.290778,0.05398 -0.290778,0.05398 -0.922337,0.555137 -3.227887,1.606306 -5.383556,1.651212 -2.67639,0.05398 -8.099259,-2.709412 -8.66109,-3.001223 -0.376029,-0.895357 -0.751608,-1.790939 -1.133051,-2.684028 3.879575,2.556206 7.097353,3.968983 9.560558,4.186886 2.74221,0.244276 4.879908,-1.251798 5.807681,-1.874259 0.121451,-0.08075 0.242592,-0.171142 0.353947,-0.258025 z M 75.580147,18.701663 c 0.03938,-1.062604 0.484194,-2.048761 1.261165,-2.772088 0.77733,-0.72573 1.791456,-1.100815 2.854756,-1.066916 2.192556,0.0784 3.915518,1.929364 3.840263,4.119493 -0.04136,1.062603 -0.486171,2.048761 -1.261165,2.769841 -0.77733,0.730066 -1.789098,1.105151 -2.857227,1.069298 -2.190197,-0.08077 -3.91125,-1.92741 -3.837792,-4.119493 z" /><path
       style="fill:#ffffff;stroke-width:0.224642"
       inkscape:connector-curvature="0"
       d="m 46.66945,41.713586 c -1.748527,0 -2.710311,1.47826 -2.710311,2.500271 v 1.311979 c 0,1.505037 1.229648,2.437595 2.369978,2.437595 h 4.002903 c 0.5043,0 0.609882,0.330157 0.609882,0.608714 v 0.846678 c 0,0.08983 -0.0182,0.903017 -0.609882,0.903017 h -5.459485 c -0.542534,0 -0.934558,0.377444 -0.934558,0.893965 v 0.234032 c 0,0.514544 0.392024,0.889629 0.934558,0.889629 h 5.756238 c 1.504655,0 2.47556,-1.046833 2.47556,-2.668527 v -1.415607 c 0,-1.522761 -1.094121,-2.203585 -2.180335,-2.203585 h -3.938656 c -0.592944,0 -0.861639,-0.444815 -0.861639,-0.759224 v -0.781666 c 0,-0.492102 0.328967,-0.777353 0.904209,-0.777353 h 4.35986 c 0.53465,0 0.936917,-0.384139 0.936917,-0.891988 v -0.233628 c 0,-0.509826 -0.408962,-0.894369 -0.955023,-0.894369 h -4.699969 z"
       id="path62" /><path
       style="fill:#ffffff;stroke-width:0.224642"
       inkscape:connector-curvature="0"
       d="m 63.036899,41.713586 c -0.516903,0 -0.933345,0.419992 -0.933345,0.936917 v 6.702881 c 0,0.537008 -0.43812,0.968434 -0.968433,0.968434 h -3.042782 c -0.532268,0 -0.96803,-0.431426 -0.96803,-0.968434 v -6.702881 c 0,-0.516925 -0.419991,-0.936917 -0.936511,-0.936917 h -0.294305 c -0.524405,0 -0.936916,0.413702 -0.936916,0.936917 v 6.956727 c 0,1.619695 1.274554,2.794552 3.030202,2.794552 h 3.253946 c 1.753267,0 3.027057,-1.174475 3.027057,-2.794552 v -6.956727 c 0,-0.523215 -0.410938,-0.936917 -0.934557,-0.936917 h -0.296281 z"
       id="path63" /><path
       style="fill:#ffffff;stroke-width:0.224642"
       inkscape:connector-curvature="0"
       d="m 68.861877,41.713586 c -1.74774,0 -2.712332,1.47826 -2.712332,2.500271 v 1.311979 c 0,1.505037 1.232006,2.437595 2.373122,2.437595 h 4.001781 c 0.505109,0 0.611095,0.330157 0.611095,0.608714 v 0.846678 c 0,0.08983 -0.0182,0.903017 -0.611095,0.903017 h -5.461957 c -0.540152,0 -0.934535,0.377444 -0.934535,0.893965 v 0.234032 c 0,0.514544 0.394383,0.889629 0.934535,0.889629 h 5.75826 c 1.50506,0 2.480278,-1.046833 2.480278,-2.668527 v -1.415607 c 0,-1.522761 -1.097266,-2.203585 -2.183502,-2.203585 H 69.17887 c -0.594538,0 -0.862447,-0.444815 -0.862447,-0.759224 v -0.781666 c 0,-0.492102 0.328989,-0.777353 0.904208,-0.777353 h 4.362332 c 0.533459,0 0.934153,-0.384139 0.934153,-0.891988 v -0.233628 c 0,-0.509826 -0.408579,-0.894369 -0.956999,-0.894369 H 68.86217 Z"
       id="path64" /><path
       style="fill:#ffffff;stroke-width:0.224642"
       inkscape:connector-curvature="0"
       d="m 78.065479,41.713586 c -0.518879,0 -0.910903,0.384543 -0.910903,0.894369 v 8.841478 c 0,0.507467 0.382948,0.889629 0.890415,0.889629 h 7.045686 c 0.542534,0 0.934558,-0.375085 0.934558,-0.889629 v -0.234032 c 0,-0.516521 -0.392024,-0.893965 -0.934558,-0.893965 h -5.770391 v -2.250917 h 4.228221 c 0.541343,0 0.934557,-0.379803 0.934557,-0.894369 v -0.233629 c 0,-0.516924 -0.393214,-0.891987 -0.934557,-0.891987 h -4.228221 v -2.31831 h 5.477233 c 0.540557,0 0.934535,-0.372705 0.934535,-0.891988 v -0.233628 c 0,-0.516925 -0.393978,-0.894369 -0.934535,-0.894369 h -6.732085 z"
       id="path65" /><path
       style="fill:#ffffff;stroke-width:0.394"
       inkscape:connector-curvature="0"
       d="m 18.176562,45.922158 c -0.882955,0 -1.601612,0.687136 -1.601612,1.534237 v 3.333638 c 0,0.860496 0.695411,1.561423 1.548028,1.561423 h 2.156364 c 0.852617,0 1.548027,-0.700927 1.548027,-1.561423 v -3.333638 c 0,-0.846707 -0.719051,-1.534237 -1.601611,-1.534237 z m -0.466497,4.73549 v -3.044047 c 0,-0.356964 0.293136,-0.648918 0.651677,-0.648918 h 1.680017 c 0.350661,0 0.649313,0.298652 0.649313,0.648918 v 3.044047 c 0,0.359329 -0.290772,0.651283 -0.649313,0.651283 h -1.692625 c -0.359329,0 -0.639069,-0.28565 -0.639069,-0.651283 z"
       id="path66" /><path
       style="fill:#ffffff;stroke-width:0.394"
       inkscape:connector-curvature="0"
       d="m 26.71061,45.882758 c -0.621733,0 -1.090593,0.222216 -1.466863,0.404244 -0.229309,0.109926 -0.427885,0.20488 -0.581939,0.20488 -0.06974,0 -0.129232,-0.03152 -0.160752,-0.08313 L 24.35764,46.134524 c -0.03585,-0.0721 -0.179664,-0.213154 -0.357359,-0.213154 h -0.213154 c -0.20488,0 -0.368784,0.183998 -0.368784,0.408578 v 8.455642 c 0,0.265163 0.209214,0.473983 0.473982,0.473983 h 0.184392 c 0.262799,0 0.476347,-0.211184 0.476347,-0.473983 v -2.805676 c 0,-0.08313 0.05398,-0.172966 0.108744,-0.172966 0.154054,0 0.35263,0.09023 0.581939,0.195424 0.37627,0.172966 0.84513,0.38612 1.466863,0.38612 h 0.19897 c 1.100837,0 1.78561,-0.629219 1.78561,-1.63983 v -3.227651 c 0,-0.995245 -0.699351,-1.637859 -1.78561,-1.637859 h -0.19897 z m -2.157152,4.709092 v -2.911663 c 0,-0.402274 0.314412,-0.716292 0.716293,-0.716292 h 1.574819 c 0.402275,0 0.716293,0.314412 0.716293,0.716292 v 2.911663 c 0,0.395183 -0.322292,0.716293 -0.716293,0.716293 h -1.574819 c -0.394395,0 -0.716293,-0.32111 -0.716293,-0.716293 z"
       id="path67" /><path
       style="fill:#ffffff;stroke-width:0.394"
       inkscape:connector-curvature="0"
       d="m 31.883835,45.922158 c -0.882955,0 -1.599641,0.687136 -1.599641,1.534237 v 3.308815 c 0,0.858133 0.696592,1.585852 1.518477,1.585852 h 2.22492 c 0.275013,0 0.473983,-0.190696 0.473983,-0.449554 v -0.145781 c 0,-0.260434 -0.19897,-0.44719 -0.473983,-0.44719 h -1.827768 c -0.5122,0 -0.782484,-0.251766 -0.782484,-0.730477 v -0.968059 h 3.297389 c 0.530324,0 0.843949,-0.323474 0.843949,-0.871529 v -1.282865 c 0,-0.846707 -0.717869,-1.534237 -1.597278,-1.534237 h -2.077564 z m -0.466102,1.680411 c 0,-0.357358 0.280922,-0.637886 0.638674,-0.637886 h 1.732026 c 0.356964,0 0.635523,0.280528 0.635523,0.637886 v 1.033069 h -3.006617 c 3.94e-4,-0.134748 3.94e-4,-1.033069 3.94e-4,-1.033069 z"
       id="path68" /><path
       style="fill:#ffffff;stroke-width:0.394"
       inkscape:connector-curvature="0"
       d="m 40.142083,45.882758 c -0.619762,0 -1.087441,0.222216 -1.464893,0.402274 -0.234824,0.11032 -0.435371,0.20685 -0.599275,0.20685 -0.0721,0 -0.101258,-0.0091 -0.157206,-0.105986 L 37.790295,46.14792 c -0.07486,-0.150508 -0.202122,-0.22655 -0.373906,-0.22655 h -0.183211 c -0.221428,0 -0.382968,0.172572 -0.382968,0.408578 v 5.546344 c 0,0.262798 0.207638,0.473982 0.475165,0.473982 h 0.18321 c 0.262798,0 0.477134,-0.213548 0.477134,-0.473982 v -4.196105 c 0,-0.393212 0.321111,-0.716292 0.714323,-0.716292 h 1.575607 c 0.394395,0 0.715505,0.32308 0.715505,0.716292 v 4.196105 c 0,0.262798 0.20882,0.473982 0.473983,0.473982 h 0.18518 c 0.262798,0 0.476346,-0.213548 0.476346,-0.473982 v -4.355675 c 0,-0.995245 -0.699744,-1.637859 -1.786791,-1.637859 z"
       id="path69" /><path
       style="fill:#ffffff;stroke-width:0.394"
       inkscape:connector-curvature="0"
       d="m 87.60337,50.201002 c 0.479893,0 0.862073,0.39006 0.862073,0.878227 0,0.495258 -0.382574,0.881379 -0.866013,0.881379 -0.479892,0 -0.869953,-0.386121 -0.869953,-0.881379 0,-0.487773 0.390061,-0.878227 0.869953,-0.878227 z m -0.0039,0.136324 c -0.38612,0 -0.702108,0.331748 -0.702108,0.741509 0,0.41764 0.315988,0.745055 0.706048,0.745055 0.390061,0.0043 0.702109,-0.327415 0.702109,-0.741115 0,-0.413701 -0.312048,-0.745449 -0.702109,-0.745449 z m -0.163904,1.252527 h -0.156024 v -0.979091 c 0.08195,-0.01182 0.159964,-0.02364 0.276982,-0.02364 0.148538,0 0.245857,0.03113 0.304169,0.07407 0.05871,0.04255 0.09023,0.108745 0.09023,0.202911 0,0.128444 -0.08589,0.206456 -0.191091,0.237976 v 0.0083 c 0.08589,0.01537 0.144205,0.09338 0.163905,0.237976 0.02364,0.152478 0.04649,0.21079 0.06225,0.241916 h -0.163904 c -0.02364,-0.03113 -0.04689,-0.120958 -0.06619,-0.249796 -0.02364,-0.124504 -0.08589,-0.171784 -0.21079,-0.171784 H 87.43592 v 0.421186 z m 0,-0.542538 h 0.113078 c 0.128838,0 0.237976,-0.04649 0.237976,-0.167844 0,-0.08589 -0.06225,-0.171785 -0.237976,-0.171785 -0.05083,0 -0.08589,0.0039 -0.113078,0.0083 z"
       id="path70" /><text
       id="text73"
       y="52.564247"
       x="109.18346"
       style="font-style:normal;font-weight:normal;font-size:12.9172px;line-height:1.25;font-family:sans-serif;letter-spacing:0px;word-spacing:0px;fill:#ffffff;fill-opacity:1;stroke:none;stroke-width:0.322928"
       xml:space="preserve"><tspan
         id="tspan73"
         style="font-style:normal;font-variant:normal;font-weight:bold;font-stretch:normal;font-family:Inter;-inkscape-font-specification:'Inter Bold';fill:#ffffff;stroke-width:0.322928"
         y="52.564247"
         x="109.18346"
         sodipodi:role="line">Board Election</tspan></text><text
       xml:space="preserve"
       style="font-style:normal;font-weight:normal;font-size:5.41339px;line-height:1.25;font-family:sans-serif;letter-spacing:0px;word-spacing:0px;fill:#000000;fill-opacity:1;stroke:none;stroke-width:0.253753"
       x="14.694829"
       y="84.157761"
       id="text77"><tspan
         sodipodi:role="line"
         id="tspan75"
         style="font-style:normal;font-variant:normal;font-weight:normal;font-stretch:normal;font-size:5.41339px;font-family:Inter;-inkscape-font-specification:Inter;stroke-width:0.253753"
         x="14.694829"
         y="84.157761">‣ Announcement for the Board Election 2025</tspan><tspan
         sodipodi:role="line"
         style="font-style:normal;font-variant:normal;font-weight:normal;font-stretch:normal;font-size:5.41339px;font-family:Inter;-inkscape-font-specification:Inter;stroke-width:0.253753"
         x="14.694829"
         y="91.008919"
         id="tspan76">‣ Call for nominations and applications for Board candidacy</tspan><tspan
         sodipodi:role="line"
         style="font-style:normal;font-variant:normal;font-weight:normal;font-stretch:normal;font-size:5.41339px;font-family:Inter;-inkscape-font-specification:Inter;stroke-width:0.253753"
         x="14.694829"
         y="97.860069"
         id="tspan77">‣ Membership drive, opportunity to apply for openSUSE membership, </tspan><tspan
         sodipodi:role="line"
         style="font-style:normal;font-variant:normal;font-weight:normal;font-stretch:normal;font-size:5.41339px;font-family:Inter;-inkscape-font-specification:Inter;stroke-width:0.253753"
         x="14.694829"
         y="104.71123"
         id="tspan1">but new members will only be eligible to vote and not run as candidate</tspan></text><rect
       style="fill:#006837;fill-opacity:1;stroke:none;stroke-width:1.42432"
       id="rect77"
       width="95.906593"
       height="14.385988"
       x="57.046707"
       y="60.529167"
       rx="2.5" /><text
       xml:space="preserve"
       style="font-style:normal;font-weight:normal;font-size:6.76675px;line-height:1.25;font-family:sans-serif;letter-spacing:0px;word-spacing:0px;fill:#ffffff;fill-opacity:1;stroke:none;stroke-width:0.253753"
       x="59.302814"
       y="69.535652"
       id="text79"><tspan
         sodipodi:role="line"
         style="font-style:normal;font-variant:normal;font-weight:bold;font-stretch:normal;font-size:6.76675px;font-family:Inter;-inkscape-font-specification:'Inter Bold';fill:#ffffff;stroke-width:0.253753"
         x="59.302814"
         y="69.535652"
         id="tspan79">Saturday, 14 February 2026</tspan></text><text
       xml:space="preserve"
       style="font-style:normal;font-weight:normal;font-size:5.41339px;line-height:1.25;font-family:sans-serif;letter-spacing:0px;word-spacing:0px;fill:#000000;fill-opacity:1;stroke:none;stroke-width:0.253753"
       x="45.927536"
       y="142.19795"
       id="text85"><tspan
         sodipodi:role="line"
         id="tspan81"
         style="font-style:normal;font-variant:normal;font-weight:normal;font-stretch:normal;font-size:5.41339px;font-family:Inter;-inkscape-font-specification:Inter;stroke-width:0.253753"
         x="45.927536"
         y="142.19795">‣ Announcement of the final list of candidates</tspan><tspan
         sodipodi:role="line"
         style="font-style:normal;font-variant:normal;font-weight:normal;font-stretch:normal;font-size:5.41339px;font-family:Inter;-inkscape-font-specification:Inter;stroke-width:0.253753"
         x="45.927536"
         y="149.0491"
         id="tspan82">‣ Campaign begins</tspan><tspan
         sodipodi:role="line"
         style="font-style:normal;font-variant:normal;font-weight:normal;font-stretch:normal;font-size:5.41339px;font-family:Inter;-inkscape-font-specification:Inter;stroke-width:0.253753"
         x="45.927536"
         y="155.90027"
         id="tspan85">‣ Membership database sealed</tspan></text><rect
       style="fill:#006837;fill-opacity:1;stroke:none;stroke-width:1.42432"
       id="rect85"
       width="95.906593"
       height="14.385988"
       x="57.046707"
       y="120.6861"
       rx="2.5" /><text
       xml:space="preserve"
       style="font-style:normal;font-weight:normal;font-size:6.76675px;line-height:1.25;font-family:sans-serif;letter-spacing:0px;word-spacing:0px;fill:#ffffff;fill-opacity:1;stroke:none;stroke-width:0.253753"
       x="58.884701"
       y="129.68919"
       id="text86"><tspan
         sodipodi:role="line"
         style="font-style:normal;font-variant:normal;font-weight:bold;font-stretch:normal;font-size:6.76675px;font-family:Inter;-inkscape-font-specification:'Inter Bold';fill:#ffffff;stroke-width:0.253753"
         x="58.884701"
         y="129.68919"
         id="tspan86">Saturday, 28 February 2026</tspan></text><rect
       style="fill:#006837;fill-opacity:1;stroke:none;stroke-width:1.42432"
       id="rect89"
       width="95.906593"
       height="14.385988"
       x="57.046707"
       y="175.61707"
       rx="2.5" /><text
       xml:space="preserve"
       style="font-style:normal;font-weight:normal;font-size:6.76675px;line-height:1.25;font-family:sans-serif;letter-spacing:0px;word-spacing:0px;fill:#ffffff;fill-opacity:1;stroke:none;stroke-width:0.253753"
       x="61.357349"
       y="184.62016"
       id="text90"><tspan
         sodipodi:role="line"
         style="font-style:normal;font-variant:normal;font-weight:bold;font-stretch:normal;font-size:6.76675px;font-family:Inter;-inkscape-font-specification:'Inter Bold';fill:#ffffff;stroke-width:0.253753"
         x="61.357349"
         y="184.62016"
         id="tspan90">Sunday, 29 February 2026</tspan></text><rect
       style="fill:#006837;fill-opacity:1;stroke:none;stroke-width:1.42432"
       id="rect93"
       width="95.906593"
       height="14.385988"
       x="57.046707"
       y="220.36252"
       rx="2.5" /><text
       xml:space="preserve"
       style="font-style:normal;font-weight:normal;font-size:6.76675px;line-height:1.25;font-family:sans-serif;letter-spacing:0px;word-spacing:0px;fill:#ffffff;fill-opacity:1;stroke:none;stroke-width:0.253753"
       x="67.921051"
       y="229.36562"
       id="text93"><tspan
         sodipodi:role="line"
         style="font-style:normal;font-variant:normal;font-weight:bold;font-stretch:normal;font-size:6.76675px;font-family:Inter;-inkscape-font-specification:'Inter Bold';fill:#ffffff;stroke-width:0.253753"
         x="67.921051"
         y="229.36562"
         id="tspan93">Sunday, 8 March 2026</tspan></text><rect
       style="fill:#d9e021;fill-opacity:1;stroke:none;stroke-width:1.50209"
       id="rect96"
       width="80"
       height="19.181318"
       x="65"
       y="269.93369"
       rx="5" /><text
       xml:space="preserve"
       style="font-style:normal;font-weight:normal;font-size:5.41339px;line-height:1.25;font-family:sans-serif;letter-spacing:0px;word-spacing:0px;fill:#000000;fill-opacity:1;stroke:none;stroke-width:0.253753"
       x="70.380074"
       y="281.29547"
       id="text96"><tspan
         sodipodi:role="line"
         style="font-style:normal;font-variant:normal;font-weight:normal;font-stretch:normal;font-size:5.41339px;font-family:Inter;-inkscape-font-specification:Inter;stroke-width:0.253753"
         x="70.380074"
         y="281.29547"
         id="tspan96">‣ Announcement of results</tspan></text><rect
       style="fill:#006837;fill-opacity:1;stroke:none;stroke-width:1.42432"
       id="rect97"
       width="95.906593"
       height="14.385988"
       x="57.046707"
       y="259.78357"
       rx="2.5" /><text
       xml:space="preserve"
       style="font-style:normal;font-weight:normal;font-size:6.76675px;line-height:1.25;font-family:sans-serif;letter-spacing:0px;word-spacing:0px;fill:#ffffff;fill-opacity:1;stroke:none;stroke-width:0.253753"
       x="66.992302"
       y="268.78"
       id="text97"><tspan
         sodipodi:role="line"
         style="font-style:normal;font-variant:normal;font-weight:bold;font-stretch:normal;font-size:6.76675px;font-family:Inter;-inkscape-font-specification:'Inter Bold';fill:#ffffff;stroke-width:0.253753"
         x="66.992302"
         y="268.78"
         id="tspan97">Monday, 9 March 2026</tspan></text><text
       xml:space="preserve"
       style="font-size:4.23333px;line-height:1.25;font-family:Arial;-inkscape-font-specification:Arial;stroke-width:0.264583"
       x="-238.24226"
       y="62.556202"
       id="text109"><tspan
         sodipodi:role="line"
         id="tspan109"
         style="stroke-width:0.264583"
         x="-238.24226"
         y="62.556202" /></text><text
       xml:space="preserve"
       style="font-size:4.23333px;line-height:1.25;font-family:Arial;-inkscape-font-specification:Arial;stroke-width:0.264583"
       x="-238.24226"
       y="62.556202"
       id="text146"><tspan
         sodipodi:role="line"
         id="tspan146"
         style="stroke-width:0.264583"
         x="-238.24226"
         y="62.556202" /></text><rect
       style="opacity:0;fill:#d9e021;fill-opacity:1;stroke-width:0.264583"
       id="rect6"
       width="11.463494"
       height="2.8658736"
       x="84.185036"
       y="244.67397"
       rx="0.64102566" /><g
       id="g24"><g
         id="g17"
         transform="translate(-205)"><g
           id="g16"><rect
             style="fill:#ffffff;stroke-width:0.132291"
             id="rect15"
             width="2.5"
             height="2.5"
             x="207.5"
             y="0"
             rx="0.5" /><rect
             style="fill:#ffffff;stroke-width:0.132291"
             id="rect16"
             width="2.5"
             height="2.5"
             x="205"
             y="2.453939"
             rx="0.5" /></g></g><g
         id="g21"
         transform="translate(-200)"><g
           id="g20"><rect
             style="fill:#ffffff;stroke-width:0.132291"
             id="rect19"
             width="2.5"
             height="2.5"
             x="207.5"
             y="0"
             rx="0.5" /><rect
             style="fill:#ffffff;stroke-width:0.132291"
             id="rect20"
             width="2.5"
             height="2.5"
             x="205"
             y="2.453939"
             rx="0.5" /></g></g><g
         id="g23"
         transform="translate(-205,5.0000001)"><g
           id="g22"><rect
             style="fill:#ffffff;stroke-width:0.132291"
             id="rect21"
             width="2.5"
             height="2.5"
             x="207.5"
             y="0"
             rx="0.5" /><rect
             style="fill:#ffffff;stroke-width:0.132291"
             id="rect22"
             width="2.5"
             height="2.5"
             x="205"
             y="2.453939"
             rx="0.5" /></g></g></g><g
       id="g35"
       transform="matrix(-1,0,0,1,210.02569,0)"><g
         id="g26"
         transform="translate(-205)"><g
           id="g25"><rect
             style="fill:#ffffff;stroke-width:0.132291"
             id="rect24"
             width="2.5"
             height="2.5"
             x="207.5"
             y="0"
             rx="0.5" /><rect
             style="fill:#ffffff;stroke-width:0.132291"
             id="rect25"
             width="2.5"
             height="2.5"
             x="205"
             y="2.453939"
             rx="0.5" /></g></g><g
         id="g32"
         transform="translate(-200)"><g
           id="g31"><rect
             style="fill:#ffffff;stroke-width:0.132291"
             id="rect26"
             width="2.5"
             height="2.5"
             x="207.5"
             y="0"
             rx="0.5" /><rect
             style="fill:#ffffff;stroke-width:0.132291"
             id="rect31"
             width="2.5"
             height="2.5"
             x="205"
             y="2.453939"
             rx="0.5" /></g></g><g
         id="g34"
         transform="translate(-205,5.0000001)"><g
           id="g33"><rect
             style="fill:#ffffff;stroke-width:0.132291"
             id="rect32"
             width="2.5"
             height="2.5"
             x="207.5"
             y="0"
             rx="0.5" /><rect
             style="fill:#ffffff;stroke-width:0.132291"
             id="rect33"
             width="2.5"
             height="2.5"
             x="205"
             y="2.453939"
             rx="0.5" /></g></g></g><g
       id="g43"
       transform="matrix(1,0,0,-1,0,296.95395)"><g
         id="g38"
         transform="translate(-205)"><g
           id="g37"><rect
             style="fill:#ffffff;stroke-width:0.132291"
             id="rect36"
             width="2.5"
             height="2.5"
             x="207.5"
             y="0"
             rx="0.5" /><rect
             style="fill:#ffffff;stroke-width:0.132291"
             id="rect37"
             width="2.5"
             height="2.5"
             x="205"
             y="2.453939"
             rx="0.5" /></g></g><g
         id="g40"
         transform="translate(-200)"><g
           id="g39"><rect
             style="fill:#ffffff;stroke-width:0.132291"
             id="rect38"
             width="2.5"
             height="2.5"
             x="207.5"
             y="0"
             rx="0.5" /><rect
             style="fill:#ffffff;stroke-width:0.132291"
             id="rect39"
             width="2.5"
             height="2.5"
             x="205"
             y="2.453939"
             rx="0.5" /></g></g><g
         id="g42"
         transform="translate(-205,5.0000001)"><g
           id="g41"><rect
             style="fill:#ffffff;stroke-width:0.132291"
             id="rect40"
             width="2.5"
             height="2.5"
             x="207.5"
             y="0"
             rx="0.5" /><rect
             style="fill:#ffffff;stroke-width:0.132291"
             id="rect41"
             width="2.5"
             height="2.5"
             x="205"
             y="2.453939"
             rx="0.5" /></g></g></g><g
       id="g51"
       transform="rotate(180,105.01285,148.47697)"><g
         id="g45"
         transform="translate(-205)"><g
           id="g44"><rect
             style="fill:#ffffff;stroke-width:0.132291"
             id="rect43"
             width="2.5"
             height="2.5"
             x="207.5"
             y="0"
             rx="0.5" /><rect
             style="fill:#ffffff;stroke-width:0.132291"
             id="rect44"
             width="2.5"
             height="2.5"
             x="205"
             y="2.453939"
             rx="0.5" /></g></g><g
         id="g48"
         transform="translate(-200)"><g
           id="g47"><rect
             style="fill:#ffffff;stroke-width:0.132291"
             id="rect46"
             width="2.5"
             height="2.5"
             x="207.5"
             y="0"
             rx="0.5" /><rect
             style="fill:#ffffff;stroke-width:0.132291"
             id="rect47"
             width="2.5"
             height="2.5"
             x="205"
             y="2.453939"
             rx="0.5" /></g></g><g
         id="g50"
         transform="translate(-205,5.0000001)"><g
           id="g49"><rect
             style="fill:#ffffff;stroke-width:0.132291"
             id="rect48"
             width="2.5"
             height="2.5"
             x="207.5"
             y="0"
             rx="0.5" /><rect
             style="fill:#ffffff;stroke-width:0.132291"
             id="rect49"
             width="2.5"
             height="2.5"
             x="205"
             y="2.453939"
             rx="0.5" /></g></g></g></g></svg>
