<?xml version="1.0" encoding="UTF-8" standalone="no"?>
<!-- Created with Inkscape (http://www.inkscape.org/) -->

<svg
   xmlns:dc="http://purl.org/dc/elements/1.1/"
   xmlns:cc="http://creativecommons.org/ns#"
   xmlns:rdf="http://www.w3.org/1999/02/22-rdf-syntax-ns#"
   xmlns:svg="http://www.w3.org/2000/svg"
   xmlns="http://www.w3.org/2000/svg"
   xmlns:sodipodi="http://sodipodi.sourceforge.net/DTD/sodipodi-0.dtd"
   xmlns:inkscape="http://www.inkscape.org/namespaces/inkscape"
   width="297mm"
   height="420mm"
   viewBox="0 0 296.99999 420"
   version="1.1"
   id="svg8"
   inkscape:version="0.92.4 5da689c313, 2019-01-14"
   sodipodi:docname="board-elections-2020-2.svg"
   inkscape:export-filename="/home/cho2/Gambar/openSUSE-ID-artwork/misc/board-elections-2020-2.png"
   inkscape:export-xdpi="300"
   inkscape:export-ydpi="300">
  <defs
     id="defs2" />
  <sodipodi:namedview
     id="base"
     pagecolor="#ffffff"
     bordercolor="#666666"
     borderopacity="1.0"
     inkscape:pageopacity="0.0"
     inkscape:pageshadow="2"
     inkscape:zoom="0.98994949"
     inkscape:cx="483.89976"
     inkscape:cy="429.86827"
     inkscape:document-units="cm"
     inkscape:current-layer="layer1"
     showgrid="false"
     units="mm"
     inkscape:window-width="1920"
     inkscape:window-height="1016"
     inkscape:window-x="0"
     inkscape:window-y="27"
     inkscape:window-maximized="1"
     showguides="false"
     inkscape:guide-bbox="true">
    <sodipodi:guide
       position="0,111.88096"
       orientation="1,0"
       id="guide1214"
       inkscape:locked="false"
       inkscape:label=""
       inkscape:color="rgb(0,0,255)" />
    <sodipodi:guide
       position="183.69642,0"
       orientation="0,1"
       id="guide1216"
       inkscape:locked="false"
       inkscape:label=""
       inkscape:color="rgb(0,0,255)" />
    <sodipodi:guide
       position="297,319.01191"
       orientation="1,0"
       id="guide1218"
       inkscape:locked="false"
       inkscape:label=""
       inkscape:color="rgb(0,0,255)" />
    <sodipodi:guide
       position="-70.303566,419.99999"
       orientation="0,1"
       id="guide1220"
       inkscape:locked="false"
       inkscape:label=""
       inkscape:color="rgb(0,0,255)" />
    <inkscape:grid
       type="xygrid"
       id="grid7950" />
    <sodipodi:guide
       position="20,406.3244"
       orientation="1,0"
       id="guide7956"
       inkscape:locked="false"
       inkscape:label=""
       inkscape:color="rgb(0,0,255)" />
    <sodipodi:guide
       position="277,401.41071"
       orientation="1,0"
       id="guide7960"
       inkscape:locked="false"
       inkscape:label=""
       inkscape:color="rgb(0,0,255)" />
    <sodipodi:guide
       position="148.5,475.20521"
       orientation="1,0"
       id="guide8016"
       inkscape:locked="false"
       inkscape:label=""
       inkscape:color="rgb(0,0,255)" />
    <sodipodi:guide
       position="22.489583,320.14583"
       orientation="1,0"
       id="guide1032"
       inkscape:locked="false" />
    <sodipodi:guide
       position="137.58333,174.625"
       orientation="1,0"
       id="guide1223"
       inkscape:locked="false" />
    <sodipodi:guide
       position="158.75,177.27083"
       orientation="1,0"
       id="guide1239"
       inkscape:locked="false" />
    <sodipodi:guide
       position="-58.208333,-69.999999"
       orientation="0,1"
       id="guide1271"
       inkscape:locked="false"
       inkscape:label=""
       inkscape:color="rgb(0,0,255)" />
    <sodipodi:guide
       position="-49.177593,-64.999999"
       orientation="0,1"
       id="guide1273"
       inkscape:locked="false"
       inkscape:label=""
       inkscape:color="rgb(0,0,255)" />
    <sodipodi:guide
       position="279.64585,50.271376"
       orientation="1,0"
       id="guide1291"
       inkscape:locked="false" />
  </sodipodi:namedview>
  <metadata
     id="metadata5">
    <rdf:RDF>
      <cc:Work
         rdf:about="">
        <dc:format>image/svg+xml</dc:format>
        <dc:type
           rdf:resource="http://purl.org/dc/dcmitype/StillImage" />
        <dc:title />
      </cc:Work>
    </rdf:RDF>
  </metadata>
  <g
     inkscape:label="Layer 1"
     inkscape:groupmode="layer"
     id="layer1"
     transform="translate(0,123.00001)">
    <rect
       style="opacity:1;fill:#ffffff;fill-opacity:1;stroke:none;stroke-width:0.22666118;stroke-miterlimit:4;stroke-dasharray:none;stroke-dashoffset:0"
       id="rect1212"
       width="490"
       height="297"
       x="-123.00002"
       y="-297"
       transform="rotate(90)" />
    <rect
       y="-95.39341"
       x="6.7798138"
       height="457.39337"
       width="283.44037"
       id="rect1222"
       style="opacity:1;fill:#ffffff;fill-opacity:1;stroke:#73ba25;stroke-width:5.63390207;stroke-miterlimit:4;stroke-dasharray:none;stroke-dashoffset:0" />
    <g
       id="g7948"
       transform="matrix(0.4757752,0,0,0.4757752,48.499996,49.663507)">
      <path
         inkscape:connector-curvature="0"
         id="rect7839"
         d="M 0,-243.28133 19.84375,-226.61467 5.18e-4,-209.948 h 49.99953 v -33.33333 z"
         style="opacity:1;fill:#73ba25;fill-opacity:1;stroke:none;stroke-width:0.19641858;stroke-miterlimit:4;stroke-dasharray:1.17851133, 1.17851133;stroke-dashoffset:0" />
      <path
         style="opacity:1;fill:#73ba25;fill-opacity:1;stroke:none;stroke-width:0.19641858;stroke-miterlimit:4;stroke-dasharray:1.17851133, 1.17851133;stroke-dashoffset:0"
         d="m 420.3666,-243.28133 -19.84377,16.66666 19.84325,16.66667 h -49.99955 v -33.33333 z"
         id="path7849"
         inkscape:connector-curvature="0" />
      <rect
         y="-231.90636"
         x="28.319887"
         height="33.333332"
         width="363.36023"
         id="rect1177"
         style="opacity:1;fill:#73ba25;fill-opacity:1;stroke:none;stroke-width:0.52950031;stroke-miterlimit:4;stroke-dasharray:3.17700156, 3.17700156;stroke-dashoffset:0" />
      <g
         style="fill:#ffffff"
         transform="matrix(1.0638195,0,0,1.0638195,-75.515504,116.645)"
         id="g7917">
        <g
           style="fill:#ffffff"
           id="g7901"
           transform="translate(0,4.1523519)">
          <path
             id="path835"
             d="m 190.9315,-325.09984 c -2.31668,0 -3.59098,1.95859 -3.59098,3.31268 v 1.73829 c 0,1.99407 1.6292,3.22964 3.14006,3.22964 h 5.30357 c 0.66816,0 0.80805,0.43744 0.80805,0.80651 v 1.12179 c 0,0.11902 -0.0241,1.19644 -0.80805,1.19644 h -7.23344 c -0.71882,0 -1.23823,0.50008 -1.23823,1.18444 v 0.31007 c 0,0.68174 0.51941,1.1787 1.23823,1.1787 h 7.62662 c 1.99356,0 3.27995,-1.38698 3.27995,-3.53561 v -1.87559 c 0,-2.01755 -1.44964,-2.9196 -2.8888,-2.9196 h -5.21845 c -0.78561,0 -1.14161,-0.58935 -1.14161,-1.00592 v -1.03565 c 0,-0.652 0.43586,-1.02994 1.19801,-1.02994 h 5.77652 c 0.70838,0 1.24135,-0.50896 1.24135,-1.18182 v -0.30955 c 0,-0.67548 -0.54184,-1.18497 -1.26534,-1.18497 h -6.22714 z"
             inkscape:connector-curvature="0"
             style="fill:#ffffff;stroke-width:0.29763594" />
          <path
             id="path837"
             d="m 212.61725,-325.09984 c -0.68486,0 -1.23662,0.55646 -1.23662,1.24135 v 8.88086 c 0,0.7115 -0.58048,1.28311 -1.28311,1.28311 h -4.03148 c -0.70521,0 -1.28257,-0.57161 -1.28257,-1.28311 v -8.88086 c 0,-0.68489 -0.55646,-1.24135 -1.24081,-1.24135 h -0.38994 c -0.6948,0 -1.24135,0.54812 -1.24135,1.24135 v 9.21719 c 0,2.14598 1.6887,3.70259 4.01482,3.70259 h 4.31125 c 2.32296,0 4.01065,-1.5561 4.01065,-3.70259 v -9.21719 c 0,-0.69323 -0.54447,-1.24135 -1.23823,-1.24135 h -0.39255 z"
             inkscape:connector-curvature="0"
             style="fill:#ffffff;stroke-width:0.29763594" />
          <path
             id="path839"
             d="m 220.33495,-325.09984 c -2.31564,0 -3.59366,1.95859 -3.59366,3.31268 v 1.73829 c 0,1.99407 1.63233,3.22964 3.14423,3.22964 h 5.30209 c 0.66923,0 0.80965,0.43744 0.80965,0.80651 v 1.12179 c 0,0.11902 -0.0241,1.19644 -0.80965,1.19644 h -7.23672 c -0.71567,0 -1.2382,0.50008 -1.2382,1.18444 v 0.31007 c 0,0.68174 0.52253,1.1787 1.2382,1.1787 h 7.6293 c 1.9941,0 3.2862,-1.38698 3.2862,-3.53561 v -1.87559 c 0,-2.01755 -1.45381,-2.9196 -2.893,-2.9196 h -5.21845 c -0.78772,0 -1.14268,-0.58935 -1.14268,-1.00592 v -1.03565 c 0,-0.652 0.43589,-1.02994 1.19801,-1.02994 h 5.7798 c 0.70679,0 1.23769,-0.50896 1.23769,-1.18182 v -0.30955 c 0,-0.67548 -0.54134,-1.18497 -1.26796,-1.18497 h -6.22446 z"
             inkscape:connector-curvature="0"
             style="fill:#ffffff;stroke-width:0.29763594" />
          <path
             id="path841"
             d="m 232.52909,-325.09984 c -0.68748,0 -1.20688,0.50949 -1.20688,1.18497 v 11.71436 c 0,0.67236 0.50738,1.1787 1.17974,1.1787 h 9.33505 c 0.71882,0 1.23823,-0.49697 1.23823,-1.1787 v -0.31008 c 0,-0.68435 -0.51941,-1.18444 -1.23823,-1.18444 h -7.64537 v -2.98231 h 5.6021 c 0.71724,0 1.23823,-0.50322 1.23823,-1.18498 v -0.30954 c 0,-0.68489 -0.52099,-1.18182 -1.23823,-1.18182 h -5.6021 v -3.07161 h 7.25696 c 0.7162,0 1.23819,-0.49381 1.23819,-1.18182 v -0.30954 c 0,-0.68489 -0.52199,-1.18498 -1.23819,-1.18498 h -8.91956 z"
             inkscape:connector-curvature="0"
             style="fill:#ffffff;stroke-width:0.29763594" />
          <g
             id="g851"
             transform="matrix(0.52202366,0,0,0.52202366,-103.26376,-530.61448)"
             style="fill:#ffffff">
            <path
               id="path843"
               d="m 491.25,404.37 c -2.241,0 -4.065,1.744 -4.065,3.894 v 8.461 c 0,2.184 1.765,3.963 3.929,3.963 h 5.473 c 2.164,0 3.929,-1.779 3.929,-3.963 v -8.461 c 0,-2.149 -1.825,-3.894 -4.065,-3.894 z m -1.184,12.019 v -7.726 c 0,-0.906 0.744,-1.647 1.654,-1.647 h 4.264 c 0.89,0 1.648,0.758 1.648,1.647 v 7.726 c 0,0.912 -0.738,1.653 -1.648,1.653 h -4.296 c -0.912,0 -1.622,-0.725 -1.622,-1.653 z"
               inkscape:connector-curvature="0"
               style="fill:#ffffff" />
            <path
               id="path845"
               d="m 512.91,404.27 c -1.578,0 -2.768,0.564 -3.723,1.026 -0.582,0.279 -1.086,0.52 -1.477,0.52 -0.177,0 -0.328,-0.08 -0.408,-0.211 l -0.364,-0.696 c -0.091,-0.183 -0.456,-0.541 -0.907,-0.541 h -0.541 c -0.52,0 -0.936,0.467 -0.936,1.037 v 21.461 c 0,0.673 0.531,1.203 1.203,1.203 h 0.468 c 0.667,0 1.209,-0.536 1.209,-1.203 v -7.121 c 0,-0.211 0.137,-0.439 0.276,-0.439 0.391,0 0.895,0.229 1.477,0.496 0.955,0.439 2.145,0.98 3.723,0.98 h 0.505 c 2.794,0 4.532,-1.597 4.532,-4.162 v -8.192 c 0,-2.526 -1.775,-4.157 -4.532,-4.157 h -0.505 z m -5.475,11.952 v -7.39 c 0,-1.021 0.798,-1.818 1.818,-1.818 h 3.997 c 1.021,0 1.818,0.798 1.818,1.818 v 7.39 c 0,1.003 -0.818,1.818 -1.818,1.818 h -3.997 c -1.001,0 -1.818,-0.815 -1.818,-1.818 z"
               inkscape:connector-curvature="0"
               style="fill:#ffffff" />
            <path
               id="path847"
               d="m 526.04,404.37 c -2.241,0 -4.06,1.744 -4.06,3.894 v 8.398 c 0,2.178 1.768,4.025 3.854,4.025 h 5.647 c 0.698,0 1.203,-0.484 1.203,-1.141 v -0.37 c 0,-0.661 -0.505,-1.135 -1.203,-1.135 h -4.639 c -1.3,0 -1.986,-0.639 -1.986,-1.854 v -2.457 h 8.369 c 1.346,0 2.142,-0.821 2.142,-2.212 v -3.256 c 0,-2.149 -1.822,-3.894 -4.054,-3.894 h -5.273 z m -1.183,4.265 c 0,-0.907 0.713,-1.619 1.621,-1.619 h 4.396 c 0.906,0 1.613,0.712 1.613,1.619 v 2.622 h -7.631 c 10e-4,-0.342 10e-4,-2.622 10e-4,-2.622 z"
               inkscape:connector-curvature="0"
               style="fill:#ffffff" />
            <path
               id="path849"
               d="m 547,404.27 c -1.573,0 -2.76,0.564 -3.718,1.021 -0.596,0.28 -1.105,0.525 -1.521,0.525 -0.183,0 -0.257,-0.023 -0.399,-0.269 l -0.331,-0.604 c -0.19,-0.382 -0.513,-0.575 -0.949,-0.575 h -0.465 c -0.562,0 -0.972,0.438 -0.972,1.037 v 14.077 c 0,0.667 0.527,1.203 1.206,1.203 h 0.465 c 0.667,0 1.211,-0.542 1.211,-1.203 v -10.65 c 0,-0.998 0.815,-1.818 1.813,-1.818 h 3.999 c 1.001,0 1.816,0.82 1.816,1.818 v 10.65 c 0,0.667 0.53,1.203 1.203,1.203 h 0.47 c 0.667,0 1.209,-0.542 1.209,-1.203 v -11.055 c 0,-2.526 -1.776,-4.157 -4.535,-4.157 z"
               inkscape:connector-curvature="0"
               style="fill:#ffffff" />
          </g>
          <g
             id="g855"
             transform="matrix(0.52202366,0,0,0.52202366,-103.26376,-530.61448)"
             style="fill:#ffffff">
            <path
               id="path853"
               d="m 667.46,415.23 c 1.218,0 2.188,0.99 2.188,2.229 0,1.257 -0.971,2.237 -2.198,2.237 -1.218,0 -2.208,-0.98 -2.208,-2.237 0,-1.238 0.99,-2.229 2.208,-2.229 z m -0.01,0.346 c -0.98,0 -1.782,0.842 -1.782,1.882 0,1.06 0.802,1.891 1.792,1.891 0.99,0.011 1.782,-0.831 1.782,-1.881 0,-1.05 -0.792,-1.892 -1.782,-1.892 z m -0.416,3.179 h -0.396 v -2.485 c 0.208,-0.03 0.406,-0.06 0.703,-0.06 0.377,0 0.624,0.079 0.772,0.188 0.149,0.108 0.229,0.276 0.229,0.515 0,0.326 -0.218,0.524 -0.485,0.604 v 0.021 c 0.218,0.039 0.366,0.237 0.416,0.604 0.06,0.387 0.118,0.535 0.158,0.614 h -0.416 c -0.06,-0.079 -0.119,-0.307 -0.168,-0.634 -0.06,-0.316 -0.218,-0.436 -0.535,-0.436 h -0.277 v 1.069 z m 0,-1.377 h 0.287 c 0.327,0 0.604,-0.118 0.604,-0.426 0,-0.218 -0.158,-0.436 -0.604,-0.436 -0.129,0 -0.218,0.01 -0.287,0.021 z"
               inkscape:connector-curvature="0"
               style="fill:#ffffff" />
          </g>
        </g>
        <text
           id="text936"
           y="-307.38196"
           x="251.92418"
           style="font-style:normal;font-weight:normal;font-size:14.86279488px;line-height:1.25;font-family:sans-serif;letter-spacing:0px;word-spacing:0px;fill:#ffffff;fill-opacity:1;stroke:none;stroke-width:0.37156987"
           xml:space="preserve"><tspan
             id="tspan934"
             style="font-style:normal;font-variant:normal;font-weight:bold;font-stretch:normal;font-family:Scada;-inkscape-font-specification:Scada;fill:#ffffff;stroke-width:0.37156987"
             y="-307.38196"
             x="251.92418"
             sodipodi:role="line">2020 Board Election</tspan></text>
      </g>
    </g>
    <g
       id="g7773"
       transform="matrix(1,0,0,0.99524398,-378.47394,-308.58785)">
      <path
         d="m 548.98158,226.56076 -22.00764,12.70612 -22.00765,-12.70612 0,-25.41223 22.00765,-12.70612 22.00764,12.70612 z"
         inkscape:randomized="0"
         inkscape:rounded="0"
         inkscape:flatsided="true"
         sodipodi:arg2="1.0471976"
         sodipodi:arg1="0.52359878"
         sodipodi:r2="22.007648"
         sodipodi:r1="25.412239"
         sodipodi:cy="213.85464"
         sodipodi:cx="526.97394"
         sodipodi:sides="6"
         id="path7642"
         style="color:#000000;clip-rule:nonzero;display:inline;overflow:visible;visibility:visible;opacity:1;isolation:auto;mix-blend-mode:normal;color-interpolation:sRGB;color-interpolation-filters:linearRGB;solid-color:#000000;solid-opacity:1;vector-effect:none;fill:#73ba25;fill-opacity:1;fill-rule:nonzero;stroke:none;stroke-width:3.01568317;stroke-linecap:butt;stroke-linejoin:miter;stroke-miterlimit:4;stroke-dasharray:none;stroke-dashoffset:0;stroke-opacity:1;marker:none;marker-start:none;marker-mid:none;marker-end:none;paint-order:normal;color-rendering:auto;image-rendering:auto;shape-rendering:auto;text-rendering:auto;enable-background:accumulate"
         sodipodi:type="star" />
      <g
         transform="matrix(0.13392857,0,0,0.13392857,509.83108,196.71179)"
         id="g7760">
        <circle
           r="98"
           style="opacity:1;fill:#ffffff;fill-opacity:1;stroke:none;stroke-width:1.96168292;stroke-linecap:round;stroke-linejoin:round;stroke-miterlimit:4;stroke-dasharray:none;stroke-opacity:1"
           id="path907"
           cx="128"
           cy="127.99999" />
        <path
           inkscape:connector-curvature="0"
           style="opacity:1;fill:#73ba25;fill-opacity:1;stroke:none;stroke-width:13.84463978;stroke-miterlimit:4;stroke-dasharray:none;stroke-opacity:1"
           d="M 128,16 A 112,112 0 0 0 16,128 112,112 0 0 0 128,240 112,112 0 0 0 240,128 112,112 0 0 0 128,16 Z m 0,14 a 97.998915,97.999659 0 0 1 98,98 97.998915,97.999659 0 0 1 -98,98 97.998915,97.999659 0 0 1 -73.763183,-33.66528 c 7.061098,-5.10706 18.640211,-3.80284 32.872314,-2.19605 6.934989,0.81013 14.833329,1.71669 23.008059,1.89869 22.82389,0.14504 47.40688,-4.07013 62.55908,-10.69825 9.80273,-4.26047 16.0584,-7.09653 19.97802,-10.66064 1.40972,-1.16811 2.14191,-3.06412 2.90357,-5.10474 l 0.53491,-1.34839 c 0.63379,-1.65411 1.56454,-5.13956 1.97388,-7.04956 0.16481,-0.8414 0.35765,-1.66518 -0.33838,-2.20288 -0.6363,-0.49168 -2.09863,0.38964 -2.09863,0.38964 -6.65366,4.00476 -23.28584,11.58939 -38.83667,11.91334 -19.30731,0.38942 -58.425755,-19.5443 -62.478764,-21.64942 -2.71264,-6.45909 -5.424076,-12.92177 -8.175778,-19.3645 27.986982,18.44043 51.201812,28.63435 68.971192,30.20631 19.78212,1.76219 35.20114,-9.03277 41.89404,-13.5232 0.87612,-0.58244 1.75161,-1.23425 2.55493,-1.86109 h 0.004 c 0.14375,-0.11214 0.47936,-0.40775 0.43579,-0.68017 -1.10961,-6.93392 -11.43969,-40.557897 -19.25854,-48.644534 -2.15437,-2.202672 -3.87946,-4.375411 -7.37256,-6.418947 -28.28567,-16.482787 -95.389828,-26.430355 -98.533705,-26.88574 0,0 -0.316184,-0.06492 -0.534912,0.14868 -0.169835,0.165952 -0.20337,0.485353 -0.20337,0.485353 0,0 -0.257656,13.903155 -0.297362,15.457768 -2.533803,-0.851287 -10.99503,-3.594596 -22.948243,-6.788093 A 97.998915,97.999659 0 0 1 128,30 Z m 20.42578,56.851078 c 0.4763,-0.0079 0.95442,-0.0035 1.43384,0.01199 15.81694,0.565582 28.24724,13.917972 27.70434,29.717522 -0.29835,7.66562 -3.50617,14.77959 -9.09692,19.98145 -5.60761,5.26668 -12.90665,7.97471 -20.61206,7.71607 -15.79992,-0.5826 -28.21547,-13.9073 -27.68555,-29.72095 0.28408,-7.66561 3.49191,-14.778768 9.09693,-19.996831 5.25711,-4.90819 12.01497,-7.59416 19.15942,-7.709222 z m 0.1897,8.457758 c -4.99469,0.0623 -9.69358,1.940689 -13.33862,5.359374 -3.88819,3.64661 -6.17999,8.5876 -6.34204,13.93677 -0.37225,11.05356 8.28161,20.35056 19.30981,20.75732 5.36323,0.16206 10.47533,-1.73499 14.38622,-5.38159 3.90522,-3.66361 6.15261,-8.6024 6.32325,-13.93163 0.37225,-11.05065 -8.28164,-20.337805 -19.33545,-20.729989 -0.33538,-0.01207 -0.6702,-0.01444 -1.00317,-0.01024 z m 4.27929,10.060794 c 4.91126,0 8.89014,2.64343 8.89014,5.93189 0,3.25718 -3.98164,5.91479 -8.89014,5.91479 -4.91139,0 -8.87817,-2.65746 -8.87817,-5.91479 0,-3.28846 3.96678,-5.93189 8.87817,-5.93189 z"
           id="path820-3-6" />
        <circle
           style="opacity:0.3;fill:#ffffff;fill-opacity:1;stroke:none;stroke-width:3.088377;stroke-miterlimit:4;stroke-dasharray:none;stroke-opacity:1"
           id="path872"
           cx="787.51135"
           cy="-1078.8389"
           r="0" />
      </g>
    </g>
    <rect
       y="-31.354593"
       x="22.489582"
       height="15.875"
       width="257.15625"
       id="rect966"
       style="opacity:1;fill:#2d9d91;fill-opacity:1;stroke:none;stroke-width:2.74953032;stroke-miterlimit:4;stroke-dasharray:none;stroke-dashoffset:0" />
    <rect
       style="opacity:1;fill:#35b9ab;fill-opacity:1;stroke:none;stroke-width:2.7486949;stroke-miterlimit:4;stroke-dasharray:none;stroke-dashoffset:0"
       id="rect7952"
       width="257"
       height="15.875"
       x="19.999998"
       y="-34.000416" />
    <text
       xml:space="preserve"
       style="font-style:normal;font-weight:normal;font-size:10.58333302px;line-height:1.25;font-family:sans-serif;letter-spacing:0px;word-spacing:0px;fill:#ffffff;fill-opacity:1;stroke:none;stroke-width:0.26458332"
       x="133.00603"
       y="-23.099586"
       id="text7964"><tspan
         sodipodi:role="line"
         id="tspan7962"
         x="133.00603"
         y="-23.099586"
         style="font-style:normal;font-variant:normal;font-weight:bold;font-stretch:normal;font-size:8.46666622px;font-family:Scada;-inkscape-font-specification:'Scada Bold';fill:#ffffff;stroke-width:0.26458332">Phase 0</tspan></text>
    <rect
       style="opacity:1;fill:#1f556b;fill-opacity:1;stroke:none;stroke-width:1.86646199;stroke-miterlimit:4;stroke-dasharray:none;stroke-dashoffset:0"
       id="rect1000"
       width="118.5"
       height="15.875"
       x="22.489582"
       y="-10.187926" />
    <rect
       y="-12.833739"
       x="19.999998"
       height="15.875"
       width="118.5"
       id="rect8022"
       style="opacity:1;fill:#173f4f;fill-opacity:1;stroke:none;stroke-width:1.86646199;stroke-miterlimit:4;stroke-dasharray:none;stroke-dashoffset:0" />
    <text
       id="text8026"
       y="-2.426795"
       x="55.966709"
       style="font-style:normal;font-weight:normal;font-size:7.05555534px;line-height:1.25;font-family:sans-serif;letter-spacing:0px;word-spacing:0px;fill:#ffffff;fill-opacity:1;stroke:none;stroke-width:0.26458332"
       xml:space="preserve"><tspan
         style="font-style:normal;font-variant:normal;font-weight:bold;font-stretch:normal;font-size:7.05555534px;font-family:Scada;-inkscape-font-specification:'Scada Bold';fill:#ffffff;stroke-width:0.26458332"
         y="-2.426795"
         x="55.966709"
         id="tspan8024"
         sodipodi:role="line">15 March 2020</tspan></text>
    <rect
       y="-10.187926"
       x="161"
       height="15.875"
       width="118.64585"
       id="rect1002"
       style="opacity:1;fill:#1f556b;fill-opacity:1;stroke:none;stroke-width:1.86761022;stroke-miterlimit:4;stroke-dasharray:none;stroke-dashoffset:0" />
    <rect
       style="opacity:1;fill:#173f4f;fill-opacity:1;stroke:none;stroke-width:1.86646199;stroke-miterlimit:4;stroke-dasharray:none;stroke-dashoffset:0"
       id="rect8028"
       width="118.5"
       height="15.875"
       x="158.5"
       y="-12.833753" />
    <text
       xml:space="preserve"
       style="font-style:normal;font-weight:normal;font-size:7.05555534px;line-height:1.25;font-family:sans-serif;letter-spacing:0px;word-spacing:0px;fill:#ffffff;fill-opacity:1;stroke:none;stroke-width:0.26458332"
       x="198.75296"
       y="-3.0794463"
       id="text8032"><tspan
         sodipodi:role="line"
         id="tspan8030"
         x="198.75296"
         y="-3.0794463"
         style="font-style:normal;font-variant:normal;font-weight:bold;font-stretch:normal;font-size:7.05555534px;font-family:Scada;-inkscape-font-specification:'Scada Bold';fill:#ffffff;stroke-width:0.26458332">7 April 2020</tspan></text>
    <rect
       y="158.61617"
       x="22.646254"
       height="15.875"
       width="257"
       id="rect1195"
       style="opacity:1;fill:#1f556b;fill-opacity:1;stroke:none;stroke-width:2.7486949;stroke-miterlimit:4;stroke-dasharray:none;stroke-dashoffset:0" />
    <rect
       style="opacity:1;fill:#173f4f;fill-opacity:1;stroke:none;stroke-width:2.7486949;stroke-miterlimit:4;stroke-dasharray:none;stroke-dashoffset:0"
       id="rect8034"
       width="257"
       height="15.875"
       x="20.156254"
       y="156.49953" />
    <text
       xml:space="preserve"
       style="font-style:normal;font-weight:normal;font-size:7.05555534px;line-height:1.25;font-family:sans-serif;letter-spacing:0px;word-spacing:0px;fill:#ffffff;fill-opacity:1;stroke:none;stroke-width:0.26458332"
       x="129.32407"
       y="166.25383"
       id="text8038"><tspan
         sodipodi:role="line"
         id="tspan8036"
         x="129.32407"
         y="166.25383"
         style="font-style:normal;font-variant:normal;font-weight:bold;font-stretch:normal;font-size:7.05555534px;font-family:Scada;-inkscape-font-specification:'Scada Bold';fill:#ffffff;stroke-width:0.26458332">8 April 2020</tspan></text>
    <rect
       style="opacity:1;fill:#1f556b;fill-opacity:1;stroke:none;stroke-width:1.52756846;stroke-miterlimit:4;stroke-dasharray:none;stroke-dashoffset:0"
       id="rect1285"
       width="79.37458"
       height="15.875"
       x="22.646254"
       y="269.21188" />
    <rect
       y="267.62436"
       x="20.156252"
       height="15.875"
       width="80.541664"
       id="rect906"
       style="opacity:1;fill:#173f4f;fill-opacity:1;stroke:none;stroke-width:1.5387578;stroke-miterlimit:4;stroke-dasharray:none;stroke-dashoffset:0" />
    <rect
       y="268.94778"
       x="111.28125"
       height="15.875"
       width="79.375008"
       id="rect1287"
       style="opacity:1;fill:#1f556b;fill-opacity:1;stroke:none;stroke-width:1.52757251;stroke-miterlimit:4;stroke-dasharray:none;stroke-dashoffset:0" />
    <rect
       style="opacity:1;fill:#173f4f;fill-opacity:1;stroke:none;stroke-width:1.5387578;stroke-miterlimit:4;stroke-dasharray:none;stroke-dashoffset:0"
       id="rect916"
       width="80.541664"
       height="15.875"
       x="108.38541"
       y="267.62436" />
    <rect
       style="opacity:1;fill:#1f556b;fill-opacity:1;stroke:none;stroke-width:1.54511333;stroke-miterlimit:4;stroke-dasharray:none;stroke-dashoffset:0"
       id="rect1289"
       width="81.208359"
       height="15.875"
       x="198.59375"
       y="268.94781" />
    <rect
       y="267.62436"
       x="196.61458"
       height="15.875"
       width="80.541664"
       id="rect918"
       style="opacity:1;fill:#173f4f;fill-opacity:1;stroke:none;stroke-width:1.5387578;stroke-miterlimit:4;stroke-dasharray:none;stroke-dashoffset:0" />
    <text
       id="text922"
       y="277.37888"
       x="39.454487"
       style="font-style:normal;font-weight:normal;font-size:7.05555534px;line-height:1.25;font-family:sans-serif;letter-spacing:0px;word-spacing:0px;fill:#ffffff;fill-opacity:1;stroke:none;stroke-width:0.26458332"
       xml:space="preserve"><tspan
         style="font-style:normal;font-variant:normal;font-weight:bold;font-stretch:normal;font-size:7.05555534px;font-family:Scada;-inkscape-font-specification:'Scada Bold';fill:#ffffff;stroke-width:0.26458332"
         y="277.37888"
         x="39.454487"
         id="tspan920"
         sodipodi:role="line">22 April 2020</tspan></text>
    <text
       xml:space="preserve"
       style="font-style:normal;font-weight:normal;font-size:7.05555534px;line-height:1.25;font-family:sans-serif;letter-spacing:0px;word-spacing:0px;fill:#ffffff;fill-opacity:1;stroke:none;stroke-width:0.26458332"
       x="128.7596"
       y="277.32596"
       id="text926"><tspan
         sodipodi:role="line"
         id="tspan924"
         x="128.7596"
         y="277.32596"
         style="font-style:normal;font-variant:normal;font-weight:bold;font-stretch:normal;font-size:7.05555534px;font-family:Scada;-inkscape-font-specification:'Scada Bold';fill:#ffffff;stroke-width:0.26458332">13 May 2020</tspan></text>
    <text
       id="text930"
       y="277.3259"
       x="216.84766"
       style="font-style:normal;font-weight:normal;font-size:7.05555534px;line-height:1.25;font-family:sans-serif;letter-spacing:0px;word-spacing:0px;fill:#ffffff;fill-opacity:1;stroke:none;stroke-width:0.26458332"
       xml:space="preserve"><tspan
         style="font-style:normal;font-variant:normal;font-weight:bold;font-stretch:normal;font-size:7.05555534px;font-family:Scada;-inkscape-font-specification:'Scada Bold';fill:#ffffff;stroke-width:0.26458332"
         y="277.3259"
         x="216.84766"
         id="tspan928"
         sodipodi:role="line">14 May 2020</tspan></text>
    <rect
       style="opacity:1;fill:#2d9d91;fill-opacity:1;stroke:none;stroke-width:2.7486949;stroke-miterlimit:4;stroke-dasharray:none;stroke-dashoffset:0"
       id="rect984"
       width="257"
       height="15.875"
       x="22.645836"
       y="137.97878" />
    <rect
       y="135.33292"
       x="20"
       height="15.875"
       width="257"
       id="rect986"
       style="opacity:1;fill:#35b9ab;fill-opacity:1;stroke:none;stroke-width:2.7486949;stroke-miterlimit:4;stroke-dasharray:none;stroke-dashoffset:0" />
    <text
       id="text990"
       y="146.23378"
       x="133.00603"
       style="font-style:normal;font-weight:normal;font-size:10.58333302px;line-height:1.25;font-family:sans-serif;letter-spacing:0px;word-spacing:0px;fill:#ffffff;fill-opacity:1;stroke:none;stroke-width:0.26458332"
       xml:space="preserve"><tspan
         style="font-style:normal;font-variant:normal;font-weight:bold;font-stretch:normal;font-size:8.46666622px;font-family:Scada;-inkscape-font-specification:'Scada Bold';fill:#ffffff;stroke-width:0.26458332"
         y="146.23378"
         x="133.00603"
         id="tspan988"
         sodipodi:role="line">Phase 1</tspan></text>
    <rect
       y="249.10315"
       x="22.802088"
       height="15.875"
       width="257"
       id="rect992"
       style="opacity:1;fill:#2d9d91;fill-opacity:1;stroke:none;stroke-width:2.7486949;stroke-miterlimit:4;stroke-dasharray:none;stroke-dashoffset:0" />
    <rect
       style="opacity:1;fill:#35b9ab;fill-opacity:1;stroke:none;stroke-width:2.7486949;stroke-miterlimit:4;stroke-dasharray:none;stroke-dashoffset:0"
       id="rect994"
       width="257"
       height="15.875"
       x="20.156252"
       y="246.45732" />
    <text
       xml:space="preserve"
       style="font-style:normal;font-weight:normal;font-size:10.58333302px;line-height:1.25;font-family:sans-serif;letter-spacing:0px;word-spacing:0px;fill:#ffffff;fill-opacity:1;stroke:none;stroke-width:0.26458332"
       x="133.16228"
       y="257.35822"
       id="text998"><tspan
         sodipodi:role="line"
         id="tspan996"
         x="133.16228"
         y="257.35822"
         style="font-style:normal;font-variant:normal;font-weight:bold;font-stretch:normal;font-size:8.46666622px;font-family:Scada;-inkscape-font-specification:'Scada Bold';fill:#ffffff;stroke-width:0.26458332">Phase 2</tspan></text>
    <rect
       style="opacity:1;fill:#69aa22;fill-opacity:1;stroke:none;stroke-width:0.27201387;stroke-miterlimit:4;stroke-dasharray:none;stroke-dashoffset:0"
       id="rect1084"
       width="118.50001"
       height="113.77084"
       x="161.14583"
       y="13.624574" />
    <rect
       y="10.97874"
       x="158.5"
       height="113.77083"
       width="117.58334"
       id="rect1086"
       style="opacity:1;fill:#73ba25;fill-opacity:1;stroke:none;stroke-width:0.27095973;stroke-miterlimit:4;stroke-dasharray:none;stroke-dashoffset:0" />
    <text
       id="text1112"
       y="64.879654"
       x="217.05179"
       style="font-style:normal;font-weight:normal;font-size:7.05555534px;line-height:1.25;font-family:sans-serif;letter-spacing:0px;word-spacing:0px;fill:#ffffff;fill-opacity:1;stroke:none;stroke-width:0.26458332"
       xml:space="preserve"><tspan
         id="tspan1110"
         style="font-style:normal;font-variant:normal;font-weight:bold;font-stretch:normal;font-size:5.64444447px;font-family:scada;-inkscape-font-specification:scada;text-align:center;text-anchor:middle;fill:#ffffff;stroke-width:0.26458332"
         y="64.879654"
         x="217.89845"
         sodipodi:role="line">Nominations and Applications </tspan><tspan
         style="font-style:normal;font-variant:normal;font-weight:bold;font-stretch:normal;font-size:5.64444447px;font-family:scada;-inkscape-font-specification:scada;text-align:center;text-anchor:middle;fill:#ffffff;stroke-width:0.26458332"
         y="73.699097"
         x="217.05179"
         sodipodi:role="line"
         id="tspan1193">for Board Candidacy Close</tspan></text>
    <rect
       y="182.95786"
       x="22.645836"
       height="23.812502"
       width="117.73959"
       id="rect1197"
       style="opacity:1;fill:#69aa22;fill-opacity:1;stroke:none;stroke-width:0.12404525;stroke-miterlimit:4;stroke-dasharray:none;stroke-dashoffset:0" />
    <rect
       style="opacity:1;fill:#73ba25;fill-opacity:1;stroke:none;stroke-width:0.12406239;stroke-miterlimit:4;stroke-dasharray:none;stroke-dashoffset:0"
       id="rect1199"
       width="117.77213"
       height="23.812502"
       x="19.967455"
       y="180.31203" />
    <text
       xml:space="preserve"
       style="font-style:normal;font-weight:normal;font-size:7.05555534px;line-height:1.25;font-family:sans-serif;letter-spacing:0px;word-spacing:0px;fill:#ffffff;fill-opacity:1;stroke:none;stroke-width:0.26458332"
       x="78.698288"
       y="189.78412"
       id="text1205"><tspan
         sodipodi:role="line"
         x="79.544952"
         y="189.78412"
         style="font-style:normal;font-variant:normal;font-weight:bold;font-stretch:normal;font-size:5.64444447px;font-family:scada;-inkscape-font-specification:scada;text-align:center;text-anchor:middle;fill:#ffffff;stroke-width:0.26458332"
         id="tspan1209">Announcement of The </tspan><tspan
         sodipodi:role="line"
         x="78.698288"
         y="198.60356"
         style="font-style:normal;font-variant:normal;font-weight:bold;font-stretch:normal;font-size:5.64444447px;font-family:scada;-inkscape-font-specification:scada;text-align:center;text-anchor:middle;fill:#ffffff;stroke-width:0.26458332"
         id="tspan1227">Final List of Candidates</tspan></text>
    <rect
       style="opacity:1;fill:#69aa22;fill-opacity:1;stroke:none;stroke-width:0.12421457;stroke-miterlimit:4;stroke-dasharray:none;stroke-dashoffset:0"
       id="rect1241"
       width="118.06123"
       height="23.812502"
       x="161.58463"
       y="182.95786" />
    <rect
       y="180.31203"
       x="158.90625"
       height="23.812502"
       width="117.77213"
       id="rect1243"
       style="opacity:1;fill:#73ba25;fill-opacity:1;stroke:none;stroke-width:0.12406239;stroke-miterlimit:4;stroke-dasharray:none;stroke-dashoffset:0" />
    <text
       id="text1249"
       y="193.64349"
       x="217.73587"
       style="font-style:normal;font-weight:normal;font-size:7.05555534px;line-height:1.25;font-family:sans-serif;letter-spacing:0px;word-spacing:0px;fill:#ffffff;fill-opacity:1;stroke:none;stroke-width:0.26458332"
       xml:space="preserve"><tspan
         id="tspan1247"
         style="font-style:normal;font-variant:normal;font-weight:bold;font-stretch:normal;font-size:5.64444447px;font-family:scada;-inkscape-font-specification:scada;text-align:center;text-anchor:middle;fill:#ffffff;stroke-width:0.26458332"
         y="193.64349"
         x="217.73587"
         sodipodi:role="line">Campaign Begins</tspan></text>
    <rect
       style="opacity:1;fill:#69aa22;fill-opacity:1;stroke:none;stroke-width:0.18326749;stroke-miterlimit:4;stroke-dasharray:none;stroke-dashoffset:0"
       id="rect1253"
       width="257"
       height="23.812502"
       x="22.645836"
       y="214.70753" />
    <rect
       y="212.06171"
       x="19.967455"
       height="23.812502"
       width="257.50784"
       id="rect1255"
       style="opacity:1;fill:#73ba25;fill-opacity:1;stroke:none;stroke-width:0.18344848;stroke-miterlimit:4;stroke-dasharray:none;stroke-dashoffset:0" />
    <text
       xml:space="preserve"
       style="font-style:normal;font-weight:normal;font-size:7.05555534px;line-height:1.25;font-family:sans-serif;letter-spacing:0px;word-spacing:0px;fill:#ffffff;fill-opacity:1;stroke:none;stroke-width:0.26458332"
       x="148.48148"
       y="220.98346"
       id="text1259"><tspan
         sodipodi:role="line"
         x="149.32814"
         y="220.98346"
         style="font-style:normal;font-variant:normal;font-weight:bold;font-stretch:normal;font-size:5.64444447px;font-family:scada;-inkscape-font-specification:scada;text-align:center;text-anchor:middle;fill:#ffffff;stroke-width:0.26458332"
         id="tspan1269">Membership drive continues, opportunity to apply for openSUSE Membership, but members </tspan><tspan
         sodipodi:role="line"
         x="148.48148"
         y="229.8029"
         style="font-style:normal;font-variant:normal;font-weight:bold;font-stretch:normal;font-size:5.64444447px;font-family:scada;-inkscape-font-specification:scada;text-align:center;text-anchor:middle;fill:#ffffff;stroke-width:0.26458332"
         id="tspan1451">will only be eligible to vote and not run as a candidate</tspan></text>
    <rect
       style="opacity:1;fill:#69aa22;fill-opacity:1;stroke:none;stroke-width:0.10258154;stroke-miterlimit:4;stroke-dasharray:none;stroke-dashoffset:0"
       id="rect1275"
       width="80.519417"
       height="23.812502"
       x="21.501421"
       y="291.43747" />
    <rect
       y="288.79166"
       x="20.156254"
       height="23.812502"
       width="80.541672"
       id="rect1277"
       style="opacity:1;fill:#73ba25;fill-opacity:1;stroke:none;stroke-width:0.10259571;stroke-miterlimit:4;stroke-dasharray:none;stroke-dashoffset:0" />
    <text
       id="text1283"
       y="297.69931"
       x="60.539974"
       style="font-style:normal;font-weight:normal;font-size:7.05555534px;line-height:1.25;font-family:sans-serif;letter-spacing:0px;word-spacing:0px;fill:#ffffff;fill-opacity:1;stroke:none;stroke-width:0.26458332"
       xml:space="preserve"><tspan
         style="font-style:normal;font-variant:normal;font-weight:bold;font-stretch:normal;font-size:5.64444447px;font-family:scada;-inkscape-font-specification:scada;text-align:center;text-anchor:middle;fill:#ffffff;stroke-width:0.26458332"
         y="297.69931"
         x="61.386642"
         sodipodi:role="line"
         id="tspan1295">Ballots Open: Please Cast </tspan><tspan
         style="font-style:normal;font-variant:normal;font-weight:bold;font-stretch:normal;font-size:5.64444447px;font-family:scada;-inkscape-font-specification:scada;text-align:center;text-anchor:middle;fill:#ffffff;stroke-width:0.26458332"
         y="306.51877"
         x="60.539974"
         sodipodi:role="line"
         id="tspan1299">Your Vote During This Time</tspan></text>
    <text
       xml:space="preserve"
       style="font-style:normal;font-weight:normal;font-size:10.58333302px;line-height:1.25;font-family:sans-serif;letter-spacing:0px;word-spacing:0px;fill:#000000;fill-opacity:1;stroke:none;stroke-width:0.26458332"
       x="42.333332"
       y="281.125"
       id="text1303"><tspan
         sodipodi:role="line"
         id="tspan1301"
         x="42.333332"
         y="290.48877"
         style="stroke-width:0.26458332"></tspan></text>
    <rect
       y="323.18747"
       x="21.32292"
       height="23.812502"
       width="80.519417"
       id="rect1307"
       style="opacity:1;fill:#69aa22;fill-opacity:1;stroke:none;stroke-width:0.10258154;stroke-miterlimit:4;stroke-dasharray:none;stroke-dashoffset:0" />
    <rect
       style="opacity:1;fill:#73ba25;fill-opacity:1;stroke:none;stroke-width:0.10259571;stroke-miterlimit:4;stroke-dasharray:none;stroke-dashoffset:0"
       id="rect1309"
       width="80.541672"
       height="23.812502"
       x="19.977753"
       y="320.54166" />
    <text
       xml:space="preserve"
       style="font-style:normal;font-weight:normal;font-size:7.05555534px;line-height:1.25;font-family:sans-serif;letter-spacing:0px;word-spacing:0px;fill:#ffffff;fill-opacity:1;stroke:none;stroke-width:0.26458332"
       x="60.333252"
       y="333.87314"
       id="text1315"><tspan
         id="tspan1313"
         sodipodi:role="line"
         x="60.333252"
         y="333.87314"
         style="font-style:normal;font-variant:normal;font-weight:bold;font-stretch:normal;font-size:5.64444447px;font-family:scada;-inkscape-font-specification:scada;text-align:center;text-anchor:middle;fill:#ffffff;stroke-width:0.26458332">    Campaign Continues</tspan></text>
    <rect
       style="opacity:1;fill:#69aa22;fill-opacity:1;stroke:none;stroke-width:0.1566959;stroke-miterlimit:4;stroke-dasharray:none;stroke-dashoffset:0"
       id="rect1319"
       width="80.519417"
       height="55.562519"
       x="109.95833"
       y="291.43747" />
    <rect
       y="288.79166"
       x="108.61316"
       height="55.5625"
       width="80.541672"
       id="rect1321"
       style="opacity:1;fill:#73ba25;fill-opacity:1;stroke:none;stroke-width:0.15671752;stroke-miterlimit:4;stroke-dasharray:none;stroke-dashoffset:0" />
    <text
       id="text1325"
       y="318.54846"
       x="148.75699"
       style="font-style:normal;font-weight:normal;font-size:7.05555534px;line-height:1.25;font-family:sans-serif;letter-spacing:0px;word-spacing:0px;fill:#ffffff;fill-opacity:1;stroke:none;stroke-width:0.26458332"
       xml:space="preserve"><tspan
         style="font-style:normal;font-variant:normal;font-weight:bold;font-stretch:normal;font-size:5.64444447px;font-family:scada;-inkscape-font-specification:scada;text-align:center;text-anchor:middle;fill:#ffffff;stroke-width:0.26458332"
         y="318.54846"
         x="148.75699"
         sodipodi:role="line"
         id="tspan1323">Ballots Close</tspan><tspan
         style="font-style:normal;font-variant:normal;font-weight:bold;font-stretch:normal;font-size:5.64444447px;font-family:scada;-inkscape-font-specification:scada;text-align:center;text-anchor:middle;fill:#ffffff;stroke-width:0.26458332"
         y="327.36792"
         x="148.75699"
         sodipodi:role="line"
         id="tspan1327"></tspan><tspan
         style="font-style:normal;font-variant:normal;font-weight:bold;font-stretch:normal;font-size:5.64444447px;font-family:scada;-inkscape-font-specification:scada;text-align:center;text-anchor:middle;fill:#ffffff;stroke-width:0.26458332"
         y="336.18735"
         x="148.75699"
         sodipodi:role="line"
         id="tspan1329" /></text>
    <rect
       y="291.43747"
       x="198.06459"
       height="55.562519"
       width="81.581268"
       id="rect1331"
       style="opacity:1;fill:#69aa22;fill-opacity:1;stroke:none;stroke-width:0.15772572;stroke-miterlimit:4;stroke-dasharray:none;stroke-dashoffset:0" />
    <rect
       style="opacity:1;fill:#73ba25;fill-opacity:1;stroke:none;stroke-width:0.15671752;stroke-miterlimit:4;stroke-dasharray:none;stroke-dashoffset:0"
       id="rect1333"
       width="80.541672"
       height="55.5625"
       x="196.71942"
       y="288.79166" />
    <text
       xml:space="preserve"
       style="font-style:normal;font-weight:normal;font-size:7.05555534px;line-height:1.25;font-family:sans-serif;letter-spacing:0px;word-spacing:0px;fill:#ffffff;fill-opacity:1;stroke:none;stroke-width:0.26458332"
       x="236.79269"
       y="314.13873"
       id="text1341"><tspan
         id="tspan1339"
         sodipodi:role="line"
         x="237.63936"
         y="314.13873"
         style="font-style:normal;font-variant:normal;font-weight:bold;font-stretch:normal;font-size:5.64444447px;font-family:scada;-inkscape-font-specification:scada;text-align:center;text-anchor:middle;fill:#ffffff;stroke-width:0.26458332">Announcement of </tspan><tspan
         sodipodi:role="line"
         x="236.79269"
         y="322.95819"
         style="font-style:normal;font-variant:normal;font-weight:bold;font-stretch:normal;font-size:5.64444447px;font-family:scada;-inkscape-font-specification:scada;text-align:center;text-anchor:middle;fill:#ffffff;stroke-width:0.26458332"
         id="tspan1348">The Results</tspan></text>
    <rect
       y="13.624574"
       x="22.645828"
       height="23.812498"
       width="117.58334"
       id="rect1350"
       style="opacity:1;fill:#69aa22;fill-opacity:1;stroke:none;stroke-width:0.12396292;stroke-miterlimit:4;stroke-dasharray:none;stroke-dashoffset:0" />
    <rect
       style="opacity:1;fill:#73ba25;fill-opacity:1;stroke:none;stroke-width:0.12396292;stroke-miterlimit:4;stroke-dasharray:none;stroke-dashoffset:0"
       id="rect1352"
       width="117.58334"
       height="23.812498"
       x="20"
       y="10.97874" />
    <text
       xml:space="preserve"
       style="font-style:normal;font-weight:normal;font-size:7.05555534px;line-height:1.25;font-family:sans-serif;letter-spacing:0px;word-spacing:0px;fill:#ffffff;fill-opacity:1;stroke:none;stroke-width:0.26458332"
       x="78.749336"
       y="20.450823"
       id="text1358"><tspan
         id="tspan1356"
         sodipodi:role="line"
         x="79.596001"
         y="20.450823"
         style="font-style:normal;font-variant:normal;font-weight:bold;font-stretch:normal;font-size:5.64444447px;font-family:scada;-inkscape-font-specification:scada;text-align:center;text-anchor:middle;fill:#ffffff;stroke-width:0.26458332">Announcement of the openSUSE </tspan><tspan
         sodipodi:role="line"
         x="78.749336"
         y="29.270266"
         style="font-style:normal;font-variant:normal;font-weight:bold;font-stretch:normal;font-size:5.64444447px;font-family:scada;-inkscape-font-specification:scada;text-align:center;text-anchor:middle;fill:#ffffff;stroke-width:0.26458332"
         id="tspan1362">Board Election</tspan></text>
    <rect
       style="opacity:1;fill:#69aa22;fill-opacity:1;stroke:none;stroke-width:0.12396292;stroke-miterlimit:4;stroke-dasharray:none;stroke-dashoffset:0"
       id="rect1364"
       width="117.58334"
       height="23.812498"
       x="22.645828"
       y="45.374588" />
    <rect
       y="42.728748"
       x="20"
       height="23.812498"
       width="117.58334"
       id="rect1366"
       style="opacity:1;fill:#73ba25;fill-opacity:1;stroke:none;stroke-width:0.12396292;stroke-miterlimit:4;stroke-dasharray:none;stroke-dashoffset:0" />
    <text
       id="text1372"
       y="52.200844"
       x="78.749336"
       style="font-style:normal;font-weight:normal;font-size:7.05555534px;line-height:1.25;font-family:sans-serif;letter-spacing:0px;word-spacing:0px;fill:#ffffff;fill-opacity:1;stroke:none;stroke-width:0.26458332"
       xml:space="preserve"><tspan
         id="tspan1370"
         style="font-style:normal;font-variant:normal;font-weight:bold;font-stretch:normal;font-size:5.64444447px;font-family:scada;-inkscape-font-specification:scada;text-align:center;text-anchor:middle;fill:#ffffff;stroke-width:0.26458332"
         y="52.200844"
         x="79.596001"
         sodipodi:role="line">Call for Nominations and Applications </tspan><tspan
         style="font-style:normal;font-variant:normal;font-weight:bold;font-stretch:normal;font-size:5.64444447px;font-family:scada;-inkscape-font-specification:scada;text-align:center;text-anchor:middle;fill:#ffffff;stroke-width:0.26458332"
         y="61.020287"
         x="78.749336"
         sodipodi:role="line"
         id="tspan1376">for Board Candidacy</tspan></text>
    <rect
       y="77.124603"
       x="22.645828"
       height="50.27079"
       width="117.58334"
       id="rect1378"
       style="opacity:1;fill:#69aa22;fill-opacity:1;stroke:none;stroke-width:0.18011387;stroke-miterlimit:4;stroke-dasharray:none;stroke-dashoffset:0" />
    <rect
       style="opacity:1;fill:#73ba25;fill-opacity:1;stroke:none;stroke-width:0.18011388;stroke-miterlimit:4;stroke-dasharray:none;stroke-dashoffset:0"
       id="rect1380"
       width="117.58334"
       height="50.270794"
       x="20"
       y="74.478767" />
    <text
       xml:space="preserve"
       style="font-style:normal;font-weight:normal;font-size:7.05555534px;line-height:1.25;font-family:sans-serif;letter-spacing:0px;word-spacing:0px;fill:#ffffff;fill-opacity:1;stroke:none;stroke-width:0.26458332"
       x="78.749336"
       y="83.950859"
       id="text1386"><tspan
         id="tspan1384"
         sodipodi:role="line"
         x="78.749336"
         y="83.950859"
         style="font-style:normal;font-variant:normal;font-weight:bold;font-stretch:normal;font-size:5.64444447px;font-family:scada;-inkscape-font-specification:scada;text-align:center;text-anchor:middle;fill:#ffffff;stroke-width:0.26458332">Membership Drive.</tspan><tspan
         sodipodi:role="line"
         x="79.596001"
         y="92.770302"
         style="font-style:normal;font-variant:normal;font-weight:bold;font-stretch:normal;font-size:5.64444447px;font-family:scada;-inkscape-font-specification:scada;text-align:center;text-anchor:middle;fill:#ffffff;stroke-width:0.26458332"
         id="tspan1437">Become an openSUSE Member. </tspan><tspan
         sodipodi:role="line"
         x="79.596001"
         y="101.58974"
         style="font-style:normal;font-variant:normal;font-weight:bold;font-stretch:normal;font-size:5.64444447px;font-family:scada;-inkscape-font-specification:scada;text-align:center;text-anchor:middle;fill:#ffffff;stroke-width:0.26458332"
         id="tspan1439">Take the opportunity to apply for an </tspan><tspan
         sodipodi:role="line"
         x="78.749336"
         y="110.40919"
         style="font-style:normal;font-variant:normal;font-weight:bold;font-stretch:normal;font-size:5.64444447px;font-family:scada;-inkscape-font-specification:scada;text-align:center;text-anchor:middle;fill:#ffffff;stroke-width:0.26458332"
         id="tspan1441">openSUSE Membership during this phase</tspan><tspan
         sodipodi:role="line"
         x="78.749336"
         y="119.22864"
         style="font-style:normal;font-variant:normal;font-weight:bold;font-stretch:normal;font-size:5.64444447px;font-family:scada;-inkscape-font-specification:scada;text-align:center;text-anchor:middle;fill:#ffffff;stroke-width:0.26458332"
         id="tspan1443">(in order to vote or to run as a candidate)</tspan><tspan
         sodipodi:role="line"
         x="78.749336"
         y="128.04808"
         style="font-style:normal;font-variant:normal;font-weight:bold;font-stretch:normal;font-size:5.64444447px;font-family:scada;-inkscape-font-specification:scada;text-align:center;text-anchor:middle;fill:#ffffff;stroke-width:0.26458332"
         id="tspan1445" /></text>
  </g>
</svg>
