<?xml version="1.0" encoding="UTF-8" standalone="no"?>
<svg
   xmlns:dc="http://purl.org/dc/elements/1.1/"
   xmlns:cc="http://creativecommons.org/ns#"
   xmlns:rdf="http://www.w3.org/1999/02/22-rdf-syntax-ns#"
   xmlns:svg="http://www.w3.org/2000/svg"
   xmlns="http://www.w3.org/2000/svg"
   xmlns:sodipodi="http://sodipodi.sourceforge.net/DTD/sodipodi-0.dtd"
   xmlns:inkscape="http://www.inkscape.org/namespaces/inkscape"
   inkscape:export-ydpi="299.96188"
   inkscape:export-xdpi="299.96188"
   inkscape:export-filename="/home/cho2/openSUSE/openSUSE-ID-artwork/misc/board-elections-2020-3.png"
   width="29.700001cm"
   height="21cm"
   viewBox="0 0 296.99998 210.00001"
   version="1.1"
   id="svg8"
   inkscape:version="1.0 (4035a4fb49, 2020-05-01)"
   sodipodi:docname="board-elections-2020-3.svg">
  <defs
     id="defs2" />
  <sodipodi:namedview
     inkscape:guide-bbox="true"
     showguides="false"
     id="base"
     pagecolor="#ffffff"
     bordercolor="#666666"
     borderopacity="1.0"
     inkscape:pageopacity="0.0"
     inkscape:pageshadow="2"
     inkscape:zoom="0.8746525"
     inkscape:cx="401.11411"
     inkscape:cy="405.93805"
     inkscape:document-units="cm"
     inkscape:current-layer="layer3"
     inkscape:document-rotation="0"
     showgrid="false"
     units="cm"
     inkscape:window-width="1920"
     inkscape:window-height="1016"
     inkscape:window-x="0"
     inkscape:window-y="27"
     inkscape:window-maximized="1">
    <sodipodi:guide
       inkscape:color="rgb(0,0,255)"
       inkscape:locked="false"
       inkscape:label=""
       id="guide830"
       orientation="-1,0"
       position="0,131.9573" />
    <sodipodi:guide
       inkscape:color="rgb(0,0,255)"
       inkscape:locked="false"
       inkscape:label=""
       id="guide832"
       orientation="0,1"
       position="-40.090428,210" />
    <sodipodi:guide
       inkscape:color="rgb(0,0,255)"
       inkscape:locked="false"
       inkscape:label=""
       id="guide834"
       orientation="-1,0"
       position="297,138.90631" />
    <sodipodi:guide
       inkscape:color="rgb(0,0,255)"
       inkscape:locked="false"
       inkscape:label=""
       id="guide836"
       orientation="0,1"
       position="234.66264,210" />
    <sodipodi:guide
       inkscape:color="rgb(0,0,255)"
       inkscape:locked="false"
       inkscape:label=""
       id="guide838"
       orientation="0,1"
       position="190.83044,0" />
    <inkscape:grid
       id="grid840"
       type="xygrid" />
    <sodipodi:guide
       inkscape:color="rgb(0,0,255)"
       inkscape:locked="false"
       inkscape:label=""
       id="guide848"
       orientation="0,1"
       position="-15.875,104.16667" />
    <sodipodi:guide
       inkscape:color="rgb(0,0,255)"
       inkscape:locked="false"
       inkscape:label=""
       id="guide850"
       orientation="-1,0"
       position="148.34487,71.608485" />
    <sodipodi:guide
       inkscape:color="rgb(0,0,255)"
       inkscape:locked="false"
       inkscape:label=""
       id="guide852"
       orientation="0,1"
       position="-34.395833,88.291666" />
    <sodipodi:guide
       id="guide854"
       orientation="0,-1"
       position="31.75,72.416666" />
    <sodipodi:guide
       id="guide953"
       orientation="1,0"
       position="10.583333,56.541666" />
    <sodipodi:guide
       id="guide955"
       orientation="1,0"
       position="56.503267,72.135015" />
    <sodipodi:guide
       id="guide957"
       orientation="1,0"
       position="102.41635,71.648493" />
    <sodipodi:guide
       id="guide959"
       orientation="1,0"
       position="194.25001,72.416657" />
    <sodipodi:guide
       id="guide961"
       orientation="1,0"
       position="240.19454,71.212776" />
    <sodipodi:guide
       id="guide963"
       orientation="1,0"
       position="286.12825,71.946615" />
    <sodipodi:guide
       position="-26.458332,56.541668"
       orientation="0,-1"
       id="guide31" />
    <sodipodi:guide
       position="-3.96875,80.354166"
       orientation="0,-1"
       id="guide35" />
    <sodipodi:guide
       position="33.504057,97.587784"
       orientation="1,0"
       id="guide37" />
    <sodipodi:guide
       position="79.521766,80.354169"
       orientation="1,0"
       id="guide39" />
    <sodipodi:guide
       position="125.34775,90.941249"
       orientation="1,0"
       id="guide41" />
    <sodipodi:guide
       position="171.23078,90.914558"
       orientation="1,0"
       id="guide43" />
    <sodipodi:guide
       position="217.16465,92.075684"
       orientation="1,0"
       id="guide45" />
    <sodipodi:guide
       position="262.9939,94.393416"
       orientation="1,0"
       id="guide47" />
    <sodipodi:guide
       position="-18.520833,7.9999999"
       orientation="0,1"
       id="guide1543"
       inkscape:label=""
       inkscape:locked="false"
       inkscape:color="rgb(0,0,255)" />
    <sodipodi:guide
       position="87.312497,163.69792"
       orientation="0,-1"
       id="guide1020" />
  </sodipodi:namedview>
  <metadata
     id="metadata5">
    <rdf:RDF>
      <cc:Work
         rdf:about="">
        <dc:format>image/svg+xml</dc:format>
        <dc:type
           rdf:resource="http://purl.org/dc/dcmitype/StillImage" />
        <dc:title />
      </cc:Work>
    </rdf:RDF>
  </metadata>
  <g
     inkscape:label="bg"
     inkscape:groupmode="layer"
     id="layer1"
     sodipodi:insensitive="true">
    <rect
       style="fill:#ffffff;stroke-width:73.4241"
       id="rect1020"
       width="297"
       height="210"
       x="0"
       y="0" />
    <g
       id="g838"
       transform="matrix(1.1565574,0,0,1.1565534,24.826135,-4900.0212)"
       style="fill:#73ba25">
      <circle
         style="opacity:0.3;fill:#73ba25;fill-opacity:1;stroke:none;stroke-width:1.90574;stroke-miterlimit:4;stroke-dasharray:none;stroke-opacity:1"
         id="path872"
         cx="507.46362"
         cy="3582.8301"
         r="0" />
      <path
         style="opacity:1;fill:#73ba25;fill-opacity:0.941176;stroke:none;stroke-width:1.9056;stroke-miterlimit:4;stroke-dasharray:none;stroke-opacity:1"
         d="m 100.5002,4267.059 a 60.472077,60.472442 0 0 0 -47.607132,23.2988 c 7.375955,1.9706 12.596534,3.6642 14.160064,4.1895 0.0245,-0.9593 0.183589,-9.5391 0.183589,-9.5391 0,0 0.0202,-0.1964 0.124999,-0.2988 0.13497,-0.1318 0.330078,-0.092 0.330078,-0.092 1.939989,0.281 43.348482,6.4189 60.802382,16.5899 2.15548,1.261 3.21941,2.6017 4.5488,3.9609 4.82477,4.99 11.19998,25.7389 11.88469,30.0176 0.0269,0.1681 -0.18083,0.3507 -0.26953,0.4199 h -0.002 c -0.4957,0.3868 -1.03554,0.789 -1.57616,1.1484 -4.12998,2.7709 -13.64449,9.4312 -25.85142,8.3438 -10.96493,-0.97 -25.290388,-7.2597 -42.560284,-18.6387 1.69799,3.9756 3.371,7.9635 5.04489,11.9492 2.500985,1.299 26.640524,13.5997 38.554464,13.3594 9.59593,-0.1999 19.85892,-4.8804 23.96469,-7.3516 0,0 0.90227,-0.5436 1.29491,-0.2402 0.4295,0.3318 0.31068,0.8402 0.20898,1.3594 -0.25259,1.1786 -0.82764,3.3289 -1.21873,4.3496 l -0.33008,0.832 c -0.46999,1.2592 -0.92111,2.4296 -1.79101,3.1504 -2.41868,2.1993 -6.27908,3.9491 -12.32804,6.5781 -9.34995,4.09 -24.51938,6.6911 -38.603293,6.6016 -5.04437,-0.1123 -9.91781,-0.672 -14.197174,-1.1719 -8.782187,-0.9915 -15.927854,-1.7959 -20.285038,1.3555 a 60.472077,60.472442 0 0 0 45.517305,20.7734 60.472077,60.472442 0 0 0 60.47229,-60.4726 60.472077,60.472442 0 0 0 -60.47229,-60.4727 z m 13.4882,35.0879 c -4.73327,-0.1509 -9.24668,1.5194 -12.70695,4.75 -3.458684,3.2199 -5.437952,7.6097 -5.613251,12.3399 -0.326998,9.7581 7.334241,17.9803 17.083881,18.3398 4.75477,0.1596 9.25839,-1.5118 12.71867,-4.7617 3.44988,-3.2099 5.42915,-7.5999 5.61325,-12.3301 0.335,-9.7494 -7.33546,-17.9889 -17.0956,-18.3379 z m -0.14844,5.2188 c 6.82096,0.242 12.16127,5.972 11.93157,12.791 -0.1053,3.2885 -1.49253,6.3369 -3.90231,8.5976 -2.41329,2.2502 -5.56743,3.4203 -8.87691,3.3203 -6.80516,-0.251 -12.14564,-5.9877 -11.91594,-12.8085 0.1,-3.3008 1.51475,-6.3495 3.91403,-8.5997 2.39919,-2.2502 5.53828,-3.42 8.84956,-3.3007 z m 2.02147,6.2011 c -3.03067,0 -5.47848,1.631 -5.47848,3.6602 0,2.01 2.44781,3.6504 5.47848,3.6504 3.02888,0 5.4863,-1.6405 5.4863,-3.6504 0,-2.0292 -2.45572,-3.6602 -5.4863,-3.6602 z"
         id="path819" />
    </g>
    <rect
       y="0"
       x="0"
       height="210"
       width="297"
       id="rect886"
       style="opacity:0.85;fill:#f6f5f4;stroke-width:73.4241" />
  </g>
  <g
     sodipodi:insensitive="true"
     inkscape:label="line"
     id="layer2"
     inkscape:groupmode="layer"
     style="display:inline">
    <rect
       y="121.70834"
       x="0"
       height="15.875"
       width="10.916667"
       id="rect858"
       style="fill:#d2d5d8;stroke-width:2.55136" />
    <rect
       y="121.70833"
       x="10.583333"
       height="15.875"
       width="45.919933"
       id="rect874"
       style="fill:#b9e787;stroke-width:5.23274" />
    <rect
       y="105.83332"
       x="32.543301"
       height="23.78002"
       width="2"
       id="rect71"
       style="display:inline;mix-blend-mode:normal;fill:#b9e787;stroke-width:5.37832"
       rx="1" />
    <circle
       style="fill:#ffffff;stroke-width:5.33481"
       id="path59"
       cx="33.543301"
       cy="129.64583"
       r="1.5" />
    <circle
       style="fill:#b9e787;stroke-width:8.89133"
       id="path1048"
       cx="33.543301"
       cy="99.604179"
       r="6.25" />
    <text
       xml:space="preserve"
       style="font-style:normal;font-variant:normal;font-weight:normal;font-stretch:normal;font-size:10.5833px;line-height:1.25;font-family:Roboto;-inkscape-font-specification:Roboto;letter-spacing:0px;word-spacing:0px;fill:#ffffff;fill-opacity:1;stroke:none;stroke-width:0.264583"
       x="30.294228"
       y="103.30833"
       id="text1052"><tspan
         sodipodi:role="line"
         id="tspan1050"
         x="30.294228"
         y="103.30833"
         style="font-style:normal;font-variant:normal;font-weight:bold;font-stretch:normal;font-family:Quicksand;-inkscape-font-specification:Quicksand;fill:#ffffff;stroke-width:0.264583">0</tspan></text>
    <rect
       style="fill:#b9e787;stroke-width:5.23274"
       id="rect1063"
       width="45.919933"
       height="15.875"
       x="56.503265"
       y="-137.58333"
       transform="scale(1,-1)" />
    <rect
       rx="1"
       style="display:inline;mix-blend-mode:normal;fill:#b9e787;stroke-width:5.37832"
       id="rect1065"
       width="2"
       height="23.78002"
       x="78.463234"
       y="-153.45834"
       transform="scale(1,-1)" />
    <circle
       r="1.5"
       cy="-129.64583"
       cx="79.463234"
       id="circle1067"
       style="fill:#ffffff;stroke-width:5.33481"
       transform="scale(1,-1)" />
    <circle
       r="6.25"
       cy="-159.68748"
       cx="79.463234"
       id="circle1071"
       style="fill:#b9e787;stroke-width:8.89133"
       transform="scale(1,-1)" />
    <text
       id="text1075"
       y="163.39163"
       x="76.214165"
       style="font-style:normal;font-variant:normal;font-weight:normal;font-stretch:normal;font-size:10.5833px;line-height:1.25;font-family:Roboto;-inkscape-font-specification:Roboto;letter-spacing:0px;word-spacing:0px;fill:#ffffff;fill-opacity:1;stroke:none;stroke-width:0.264583"
       xml:space="preserve"><tspan
         style="font-style:normal;font-variant:normal;font-weight:bold;font-stretch:normal;font-family:Quicksand;-inkscape-font-specification:Quicksand;fill:#ffffff;stroke-width:0.264583"
         y="163.39163"
         x="76.214165"
         id="tspan1073"
         sodipodi:role="line">0</tspan></text>
    <rect
       style="fill:#97db4b;stroke-width:5.23274"
       id="rect1095"
       width="45.919933"
       height="15.875"
       x="102.42319"
       y="121.70833" />
    <rect
       rx="1"
       style="display:inline;mix-blend-mode:normal;fill:#97db4b;stroke-width:5.37832"
       id="rect1097"
       width="2"
       height="23.78002"
       x="124.38316"
       y="105.83332" />
    <circle
       r="1.5"
       cy="129.64583"
       cx="125.38316"
       id="circle1099"
       style="fill:#ffffff;stroke-width:5.33481" />
    <circle
       r="6.25"
       cy="99.604179"
       cx="125.38316"
       id="circle1103"
       style="fill:#97db4b;stroke-width:8.89133" />
    <text
       id="text1107"
       y="103.30833"
       x="123.29826"
       style="font-style:normal;font-variant:normal;font-weight:normal;font-stretch:normal;font-size:10.5833px;line-height:1.25;font-family:Roboto;-inkscape-font-specification:Roboto;letter-spacing:0px;word-spacing:0px;fill:#ffffff;fill-opacity:1;stroke:none;stroke-width:0.264583"
       xml:space="preserve"><tspan
         style="font-style:normal;font-variant:normal;font-weight:bold;font-stretch:normal;font-family:Quicksand;-inkscape-font-specification:Quicksand;fill:#ffffff;stroke-width:0.264583"
         y="103.30833"
         x="123.29826"
         id="tspan1105"
         sodipodi:role="line">1</tspan></text>
    <rect
       y="-137.58333"
       x="148.34312"
       height="15.875"
       width="45.919933"
       id="rect1129"
       style="fill:#73ba25;stroke-width:5.23274"
       transform="scale(1,-1)" />
    <rect
       y="-153.45834"
       x="170.30309"
       height="23.78002"
       width="2"
       id="rect1131"
       style="display:inline;mix-blend-mode:normal;fill:#73ba25;stroke-width:5.37832"
       rx="1"
       transform="scale(1,-1)" />
    <circle
       style="fill:#ffffff;stroke-width:5.33481"
       id="circle1133"
       cx="171.30309"
       cy="-129.64583"
       r="1.5"
       transform="scale(1,-1)" />
    <circle
       transform="scale(1,-1)"
       style="fill:#73ba25;stroke-width:8.89133"
       id="circle1137"
       cx="171.30309"
       cy="-159.68748"
       r="6.25" />
    <text
       xml:space="preserve"
       style="font-style:normal;font-variant:normal;font-weight:normal;font-stretch:normal;font-size:10.5833px;line-height:1.25;font-family:Roboto;-inkscape-font-specification:Roboto;letter-spacing:0px;word-spacing:0px;fill:#ffffff;fill-opacity:1;stroke:none;stroke-width:0.264583"
       x="168.3768"
       y="163.44455"
       id="text1141"><tspan
         sodipodi:role="line"
         id="tspan1139"
         x="168.3768"
         y="163.44455"
         style="font-style:normal;font-variant:normal;font-weight:bold;font-stretch:normal;font-family:Quicksand;-inkscape-font-specification:Quicksand;fill:#ffffff;stroke-width:0.264583">2</tspan></text>
    <rect
       y="121.70833"
       x="194.26306"
       height="15.875"
       width="45.919933"
       id="rect1145"
       style="fill:#73ba25;stroke-width:5.23274" />
    <rect
       y="105.83332"
       x="216.22304"
       height="23.78002"
       width="2"
       id="rect1147"
       style="display:inline;mix-blend-mode:normal;fill:#73ba25;stroke-width:5.37832"
       rx="1" />
    <circle
       style="fill:#ffffff;stroke-width:5.33481"
       id="circle1149"
       cx="217.22302"
       cy="129.64583"
       r="1.5" />
    <circle
       style="fill:#73ba25;stroke-width:8.89133"
       id="circle1151"
       cx="217.22304"
       cy="99.604179"
       r="6.25" />
    <text
       xml:space="preserve"
       style="font-style:normal;font-variant:normal;font-weight:normal;font-stretch:normal;font-size:10.5833px;line-height:1.25;font-family:Roboto;-inkscape-font-specification:Roboto;letter-spacing:0px;word-spacing:0px;fill:#ffffff;fill-opacity:1;stroke:none;stroke-width:0.264583"
       x="214.29675"
       y="103.36125"
       id="text1155"><tspan
         sodipodi:role="line"
         id="tspan1153"
         x="214.29675"
         y="103.36125"
         style="font-style:normal;font-variant:normal;font-weight:bold;font-stretch:normal;font-family:Quicksand;-inkscape-font-specification:Quicksand;fill:#ffffff;stroke-width:0.264583">2</tspan></text>
    <rect
       transform="scale(1,-1)"
       style="fill:#73ba25;stroke-width:5.23274"
       id="rect1205"
       width="45.919933"
       height="15.875"
       x="240.183"
       y="-137.58333" />
    <rect
       transform="scale(1,-1)"
       rx="1"
       style="display:inline;mix-blend-mode:normal;fill:#73ba25;stroke-width:5.37832"
       id="rect1207"
       width="2"
       height="23.78002"
       x="262.14294"
       y="-153.45834" />
    <circle
       transform="scale(1,-1)"
       r="1.5"
       cy="-129.64583"
       cx="263.14297"
       id="circle1209"
       style="fill:#ffffff;stroke-width:5.33481" />
    <circle
       r="6.25"
       cy="-159.68748"
       cx="263.14294"
       id="circle1211"
       style="fill:#73ba25;stroke-width:8.89133"
       transform="scale(1,-1)" />
    <text
       id="text1215"
       y="163.33873"
       x="260.21667"
       style="font-style:normal;font-variant:normal;font-weight:normal;font-stretch:normal;font-size:10.5833px;line-height:1.25;font-family:Roboto;-inkscape-font-specification:Roboto;letter-spacing:0px;word-spacing:0px;fill:#ffffff;fill-opacity:1;stroke:none;stroke-width:0.264583"
       xml:space="preserve"><tspan
         style="font-style:normal;font-variant:normal;font-weight:bold;font-stretch:normal;font-family:Quicksand;-inkscape-font-specification:Quicksand;fill:#ffffff;stroke-width:0.264583"
         y="163.33873"
         x="260.21667"
         id="tspan1213"
         sodipodi:role="line">2</tspan></text>
    <rect
       style="fill:#bfc4c8;stroke-width:2.55136"
       id="rect1219"
       width="10.916667"
       height="15.875"
       x="286.10294"
       y="121.70833" />
  </g>
  <g
     sodipodi:insensitive="true"
     inkscape:groupmode="layer"
     id="layer3"
     inkscape:label="text"
     style="display:inline;mix-blend-mode:normal">
    <text
       xml:space="preserve"
       style="font-style:normal;font-weight:normal;font-size:4.23333px;line-height:1.25;font-family:sans-serif;letter-spacing:0px;word-spacing:0px;fill:#154a44;fill-opacity:1;stroke:none;stroke-width:0.264583"
       x="31.058334"
       y="62.967564"
       id="text1323"><tspan
         sodipodi:role="line"
         id="tspan1321"
         x="31.058334"
         y="62.967564"
         style="font-style:normal;font-variant:normal;font-weight:bold;font-stretch:normal;font-size:4.23333px;font-family:'Source Sans Pro';-inkscape-font-specification:'Source Sans Pro';fill:#154a44;stroke-width:0.264583">20 July 2020</tspan><tspan
         sodipodi:role="line"
         x="31.058334"
         y="68.300568"
         style="font-style:normal;font-variant:normal;font-weight:normal;font-stretch:normal;font-size:4.23333px;font-family:'Source Sans Pro';-inkscape-font-specification:'Source Sans Pro';fill:#154a44;stroke-width:0.264583"
         id="tspan1333">• Announcement of the Ad-hoc </tspan><tspan
         sodipodi:role="line"
         x="31.058334"
         y="73.633568"
         style="font-style:normal;font-variant:normal;font-weight:normal;font-stretch:normal;font-size:4.23333px;font-family:'Source Sans Pro';-inkscape-font-specification:'Source Sans Pro';fill:#154a44;stroke-width:0.264583"
         id="tspan1337">   openSUSE Board Election 2020</tspan><tspan
         sodipodi:role="line"
         x="31.058334"
         y="78.966576"
         style="font-style:normal;font-variant:normal;font-weight:normal;font-stretch:normal;font-size:4.23333px;font-family:'Source Sans Pro';-inkscape-font-specification:'Source Sans Pro';fill:#154a44;stroke-width:0.264583"
         id="tspan1327">• Call for Nominations and Applications </tspan><tspan
         sodipodi:role="line"
         x="31.058334"
         y="84.299576"
         style="font-style:normal;font-variant:normal;font-weight:normal;font-stretch:normal;font-size:4.23333px;font-family:'Source Sans Pro';-inkscape-font-specification:'Source Sans Pro';fill:#154a44;stroke-width:0.264583"
         id="tspan1339">   for Board candidacy</tspan><tspan
         sodipodi:role="line"
         x="31.058334"
         y="89.632584"
         style="font-style:normal;font-variant:normal;font-weight:normal;font-stretch:normal;font-size:4.23333px;font-family:'Source Sans Pro';-inkscape-font-specification:'Source Sans Pro';fill:#154a44;stroke-width:0.264583"
         id="tspan1329">• Membership drive</tspan><tspan
         sodipodi:role="line"
         x="31.058334"
         y="94.965584"
         style="font-style:normal;font-variant:normal;font-weight:normal;font-stretch:normal;font-size:4.23333px;font-family:'Source Sans Pro';-inkscape-font-specification:'Source Sans Pro';fill:#154a44;stroke-width:0.264583"
         id="tspan1331" /></text>
    <text
       id="text1355"
       y="172.76013"
       x="84.533165"
       style="font-style:normal;font-weight:normal;font-size:4.23333px;line-height:1.25;font-family:sans-serif;letter-spacing:0px;word-spacing:0px;fill:#154a44;fill-opacity:1;stroke:none;stroke-width:0.264583"
       xml:space="preserve"><tspan
         style="font-style:normal;font-variant:normal;font-weight:bold;font-stretch:normal;font-size:4.23333px;font-family:'Source Sans Pro';-inkscape-font-specification:'Source Sans Pro';text-align:end;text-anchor:end;fill:#154a44;stroke-width:0.264583"
         y="172.76013"
         x="84.533165"
         id="tspan1341"
         sodipodi:role="line">2 August 2020</tspan><tspan
         id="tspan1353"
         style="font-style:normal;font-variant:normal;font-weight:normal;font-stretch:normal;font-size:4.23333px;font-family:'Source Sans Pro';-inkscape-font-specification:'Source Sans Pro';text-align:end;text-anchor:end;fill:#154a44;stroke-width:0.264583"
         y="178.09314"
         x="84.533165"
         sodipodi:role="line">Nominations and Applications for </tspan><tspan
         style="font-style:normal;font-variant:normal;font-weight:normal;font-stretch:normal;font-size:4.23333px;font-family:'Source Sans Pro';-inkscape-font-specification:'Source Sans Pro';text-align:end;text-anchor:end;fill:#154a44;stroke-width:0.264583"
         y="183.42613"
         x="84.533165"
         sodipodi:role="line"
         id="tspan1377">Board candidacy close</tspan></text>
    <text
       id="text1393"
       y="57.760132"
       x="120"
       style="font-style:normal;font-weight:normal;font-size:4.23333px;line-height:1.25;font-family:sans-serif;letter-spacing:0px;word-spacing:0px;fill:#154a44;fill-opacity:1;stroke:none;stroke-width:0.264583"
       xml:space="preserve"><tspan
         id="tspan1391"
         style="font-style:normal;font-variant:normal;font-weight:bold;font-stretch:normal;font-size:4.23333px;font-family:'Source Sans Pro';-inkscape-font-specification:'Source Sans Pro';fill:#154a44;stroke-width:0.264583"
         y="57.760132"
         x="120"
         sodipodi:role="line">3 August 2020</tspan><tspan
         style="font-style:normal;font-variant:normal;font-weight:normal;font-stretch:normal;font-size:4.23333px;font-family:'Source Sans Pro';-inkscape-font-specification:'Source Sans Pro';fill:#154a44;stroke-width:0.264583"
         y="63.093136"
         x="120"
         sodipodi:role="line"
         id="tspan1422">   • Announcement of the final list of candidates</tspan><tspan
         style="font-style:normal;font-variant:normal;font-weight:normal;font-stretch:normal;font-size:4.23333px;font-family:'Source Sans Pro';-inkscape-font-specification:'Source Sans Pro';fill:#154a44;stroke-width:0.264583"
         y="68.42614"
         x="120"
         sodipodi:role="line"
         id="tspan1424">   • Campaign begins</tspan><tspan
         style="font-style:normal;font-variant:normal;font-weight:normal;font-stretch:normal;font-size:4.23333px;font-family:'Source Sans Pro';-inkscape-font-specification:'Source Sans Pro';fill:#154a44;stroke-width:0.264583"
         y="73.75914"
         x="120"
         sodipodi:role="line"
         id="tspan1428">   • Membership drive continues,  opportunity</tspan><tspan
         style="font-style:normal;font-variant:normal;font-weight:normal;font-stretch:normal;font-size:4.23333px;font-family:'Source Sans Pro';-inkscape-font-specification:'Source Sans Pro';fill:#154a44;stroke-width:0.264583"
         y="79.092148"
         x="120"
         sodipodi:role="line"
         id="tspan1430">      to apply for openSUSE Membership,  but </tspan><tspan
         style="font-style:normal;font-variant:normal;font-weight:normal;font-stretch:normal;font-size:4.23333px;font-family:'Source Sans Pro';-inkscape-font-specification:'Source Sans Pro';fill:#154a44;stroke-width:0.264583"
         y="84.425148"
         x="120"
         sodipodi:role="line"
         id="tspan1432">      members will only be eligible to vote and</tspan><tspan
         style="font-style:normal;font-variant:normal;font-weight:normal;font-stretch:normal;font-size:4.23333px;font-family:'Source Sans Pro';-inkscape-font-specification:'Source Sans Pro';fill:#154a44;stroke-width:0.264583"
         y="89.758148"
         x="120"
         sodipodi:role="line"
         id="tspan1444">      not run as a candidate</tspan></text>
    <text
       xml:space="preserve"
       style="font-style:normal;font-weight:normal;font-size:4.23333px;line-height:1.25;font-family:sans-serif;letter-spacing:0px;word-spacing:0px;fill:#154a44;fill-opacity:1;stroke:none;stroke-width:0.264583"
       x="176.67845"
       y="172.76013"
       id="text1452"><tspan
         id="tspan1450"
         sodipodi:role="line"
         x="176.67845"
         y="172.76013"
         style="font-style:normal;font-variant:normal;font-weight:bold;font-stretch:normal;font-size:4.23333px;font-family:'Source Sans Pro';-inkscape-font-specification:'Source Sans Pro';text-align:end;text-anchor:end;fill:#154a44;stroke-width:0.264583">17 August 2020</tspan><tspan
         sodipodi:role="line"
         x="176.67845"
         y="178.09314"
         style="font-style:normal;font-variant:normal;font-weight:normal;font-stretch:normal;font-size:4.23333px;font-family:'Source Sans Pro';-inkscape-font-specification:'Source Sans Pro';text-align:end;text-anchor:end;fill:#154a44;stroke-width:0.264583"
         id="tspan1459"><tspan
   style="font-weight:bold;font-size:4.23333px;fill:#154a44"
   id="tspan1463">   • </tspan>Ballots open: Please cast </tspan><tspan
         sodipodi:role="line"
         x="176.67845"
         y="183.42613"
         style="font-style:normal;font-variant:normal;font-weight:normal;font-stretch:normal;font-size:4.23333px;font-family:'Source Sans Pro';-inkscape-font-specification:'Source Sans Pro';text-align:end;text-anchor:end;fill:#154a44;stroke-width:0.264583"
         id="tspan1465">your vote during this time</tspan><tspan
         sodipodi:role="line"
         x="176.67845"
         y="188.75914"
         style="font-style:normal;font-variant:normal;font-weight:normal;font-stretch:normal;font-size:4.23333px;font-family:'Source Sans Pro';-inkscape-font-specification:'Source Sans Pro';text-align:end;text-anchor:end;fill:#154a44;stroke-width:0.264583"
         id="tspan1461">   • Campaign continues</tspan></text>
    <text
       id="text1481"
       y="172.76013"
       x="268.55945"
       style="font-style:normal;font-weight:normal;font-size:4.23333px;line-height:1.25;font-family:sans-serif;letter-spacing:0px;word-spacing:0px;fill:#154a44;fill-opacity:1;stroke:none;stroke-width:0.264583"
       xml:space="preserve"><tspan
         id="tspan1479"
         style="font-style:normal;font-variant:normal;font-weight:bold;font-stretch:normal;font-size:4.23333px;font-family:'Source Sans Pro';-inkscape-font-specification:'Source Sans Pro';text-align:end;text-anchor:end;fill:#154a44;stroke-width:0.264583"
         y="172.76013"
         x="268.55945"
         sodipodi:role="line">31 August 2020</tspan><tspan
         style="font-style:normal;font-variant:normal;font-weight:normal;font-stretch:normal;font-size:4.23333px;font-family:'Source Sans Pro';-inkscape-font-specification:'Source Sans Pro';text-align:end;text-anchor:end;fill:#154a44;stroke-width:0.264583"
         y="178.09314"
         x="268.55945"
         sodipodi:role="line"
         id="tspan1496"> Announcement of results</tspan></text>
    <text
       xml:space="preserve"
       style="font-style:normal;font-weight:normal;font-size:4.23333px;line-height:1.25;font-family:sans-serif;letter-spacing:0px;word-spacing:0px;fill:#154a44;fill-opacity:1;stroke:none;stroke-width:0.264583"
       x="214.90686"
       y="84.760132"
       id="text1512"><tspan
         id="tspan1510"
         sodipodi:role="line"
         x="214.90686"
         y="84.760132"
         style="font-style:normal;font-variant:normal;font-weight:bold;font-stretch:normal;font-size:4.23333px;font-family:'Source Sans Pro';-inkscape-font-specification:'Source Sans Pro';fill:#154a44;stroke-width:0.264583">30 August 2020</tspan><tspan
         sodipodi:role="line"
         x="214.90686"
         y="90.093132"
         style="font-style:normal;font-variant:normal;font-weight:normal;font-stretch:normal;font-size:4.23333px;font-family:'Source Sans Pro';-inkscape-font-specification:'Source Sans Pro';fill:#154a44;stroke-width:0.264583"
         id="tspan1541">Ballots close</tspan></text>
    <rect
       y="194"
       x="0"
       height="7.9999995"
       width="297"
       id="rect996"
       style="opacity:1;fill:#173f4f;stroke-width:0.264583" />
    <text
       xml:space="preserve"
       style="font-style:normal;font-weight:normal;font-size:3.88056px;line-height:1.25;font-family:sans-serif;letter-spacing:0px;word-spacing:0px;fill:#ffffff;fill-opacity:1;stroke:none;stroke-width:0.264583"
       x="32.921673"
       y="198.96626"
       id="text1549"><tspan
         sodipodi:role="line"
         x="32.921673"
         y="198.96626"
         style="font-style:normal;font-variant:normal;font-weight:normal;font-stretch:normal;font-size:3.88056px;font-family:Cabin;-inkscape-font-specification:Cabin;fill:#ffffff;stroke-width:0.264583"
         id="tspan1002">To stand for a position in the openSUSE Board please send an email to <tspan
   style="font-style:normal;font-variant:normal;font-weight:bold;font-stretch:normal;font-family:Cabin;-inkscape-font-specification:'Cabin Bold'"
   id="tspan1024">opensuse-project@opensuse.org</tspan> and <tspan
   style="font-style:normal;font-variant:normal;font-weight:bold;font-stretch:normal;font-family:Cabin;-inkscape-font-specification:'Cabin Bold'"
   id="tspan1030">election-officials@opensuse.org</tspan></tspan></text>
    <g
       transform="translate(0,1.2988253)"
       id="g1251">
      <g
         style="fill:#ffffff"
         transform="matrix(0.50613894,0,0,0.50613894,13.827653,187.17118)"
         id="g7917">
        <g
           id="g1199"
           transform="translate(-2.4816457)">
          <path
             style="display:inline;mix-blend-mode:normal;fill:#73ba25;fill-opacity:1;stroke:none;stroke-width:0.0934513;stroke-miterlimit:4;stroke-dasharray:0.560706, 0.560706;stroke-dashoffset:0"
             d="m 49.756057,13.281307 9.441164,7.929583 -9.440918,7.929588 H 73.54484 V 13.281307 Z"
             id="rect7839"
             inkscape:connector-curvature="0"
             transform="matrix(1.9757421,0,0,1.9757421,-27.319876,-364.57446)" />
          <path
             inkscape:connector-curvature="0"
             id="path7849"
             d="m 249.75606,13.281307 -9.44117,7.929583 9.44092,7.929588 H 225.96727 V 13.281307 Z"
             style="display:inline;mix-blend-mode:normal;fill:#73ba25;fill-opacity:1;stroke:none;stroke-width:0.0934513;stroke-miterlimit:4;stroke-dasharray:0.560706, 0.560706;stroke-dashoffset:0"
             transform="matrix(1.9757421,0,0,1.9757421,-27.319876,-364.57446)" />
          <rect
             style="display:inline;mix-blend-mode:normal;fill:#73ba25;fill-opacity:1;stroke:none;stroke-width:0.251923;stroke-miterlimit:4;stroke-dasharray:1.51154, 1.51154;stroke-dashoffset:0"
             id="rect1177"
             width="172.87779"
             height="15.859173"
             x="63.229958"
             y="18.693237"
             transform="matrix(1.9757421,0,0,1.9757421,-27.319876,-364.57446)" />
          <g
             transform="translate(0.96466393)"
             id="g1176">
            <g
               style="fill:#ffffff"
               id="g7901"
               transform="translate(0,4.1523519)">
              <path
                 id="path835"
                 d="m 190.9315,-325.09984 c -2.31668,0 -3.59098,1.95859 -3.59098,3.31268 v 1.73829 c 0,1.99407 1.6292,3.22964 3.14006,3.22964 h 5.30357 c 0.66816,0 0.80805,0.43744 0.80805,0.80651 v 1.12179 c 0,0.11902 -0.0241,1.19644 -0.80805,1.19644 h -7.23344 c -0.71882,0 -1.23823,0.50008 -1.23823,1.18444 v 0.31007 c 0,0.68174 0.51941,1.1787 1.23823,1.1787 h 7.62662 c 1.99356,0 3.27995,-1.38698 3.27995,-3.53561 v -1.87559 c 0,-2.01755 -1.44964,-2.9196 -2.8888,-2.9196 h -5.21845 c -0.78561,0 -1.14161,-0.58935 -1.14161,-1.00592 v -1.03565 c 0,-0.652 0.43586,-1.02994 1.19801,-1.02994 h 5.77652 c 0.70838,0 1.24135,-0.50896 1.24135,-1.18182 v -0.30955 c 0,-0.67548 -0.54184,-1.18497 -1.26534,-1.18497 h -6.22714 z"
                 inkscape:connector-curvature="0"
                 style="fill:#ffffff;stroke-width:0.297636" />
              <path
                 id="path837"
                 d="m 212.61725,-325.09984 c -0.68486,0 -1.23662,0.55646 -1.23662,1.24135 v 8.88086 c 0,0.7115 -0.58048,1.28311 -1.28311,1.28311 h -4.03148 c -0.70521,0 -1.28257,-0.57161 -1.28257,-1.28311 v -8.88086 c 0,-0.68489 -0.55646,-1.24135 -1.24081,-1.24135 h -0.38994 c -0.6948,0 -1.24135,0.54812 -1.24135,1.24135 v 9.21719 c 0,2.14598 1.6887,3.70259 4.01482,3.70259 h 4.31125 c 2.32296,0 4.01065,-1.5561 4.01065,-3.70259 v -9.21719 c 0,-0.69323 -0.54447,-1.24135 -1.23823,-1.24135 h -0.39255 z"
                 inkscape:connector-curvature="0"
                 style="fill:#ffffff;stroke-width:0.297636" />
              <path
                 id="path839"
                 d="m 220.33495,-325.09984 c -2.31564,0 -3.59366,1.95859 -3.59366,3.31268 v 1.73829 c 0,1.99407 1.63233,3.22964 3.14423,3.22964 h 5.30209 c 0.66923,0 0.80965,0.43744 0.80965,0.80651 v 1.12179 c 0,0.11902 -0.0241,1.19644 -0.80965,1.19644 h -7.23672 c -0.71567,0 -1.2382,0.50008 -1.2382,1.18444 v 0.31007 c 0,0.68174 0.52253,1.1787 1.2382,1.1787 h 7.6293 c 1.9941,0 3.2862,-1.38698 3.2862,-3.53561 v -1.87559 c 0,-2.01755 -1.45381,-2.9196 -2.893,-2.9196 h -5.21845 c -0.78772,0 -1.14268,-0.58935 -1.14268,-1.00592 v -1.03565 c 0,-0.652 0.43589,-1.02994 1.19801,-1.02994 h 5.7798 c 0.70679,0 1.23769,-0.50896 1.23769,-1.18182 v -0.30955 c 0,-0.67548 -0.54134,-1.18497 -1.26796,-1.18497 h -6.22446 z"
                 inkscape:connector-curvature="0"
                 style="fill:#ffffff;stroke-width:0.297636" />
              <path
                 id="path841"
                 d="m 232.52909,-325.09984 c -0.68748,0 -1.20688,0.50949 -1.20688,1.18497 v 11.71436 c 0,0.67236 0.50738,1.1787 1.17974,1.1787 h 9.33505 c 0.71882,0 1.23823,-0.49697 1.23823,-1.1787 v -0.31008 c 0,-0.68435 -0.51941,-1.18444 -1.23823,-1.18444 h -7.64537 v -2.98231 h 5.6021 c 0.71724,0 1.23823,-0.50322 1.23823,-1.18498 v -0.30954 c 0,-0.68489 -0.52099,-1.18182 -1.23823,-1.18182 h -5.6021 v -3.07161 h 7.25696 c 0.7162,0 1.23819,-0.49381 1.23819,-1.18182 v -0.30954 c 0,-0.68489 -0.52199,-1.18498 -1.23819,-1.18498 h -8.91956 z"
                 inkscape:connector-curvature="0"
                 style="fill:#ffffff;stroke-width:0.297636" />
              <g
                 id="g851"
                 transform="matrix(0.52202366,0,0,0.52202366,-103.26376,-530.61448)"
                 style="fill:#ffffff">
                <path
                   id="path843"
                   d="m 491.25,404.37 c -2.241,0 -4.065,1.744 -4.065,3.894 v 8.461 c 0,2.184 1.765,3.963 3.929,3.963 h 5.473 c 2.164,0 3.929,-1.779 3.929,-3.963 v -8.461 c 0,-2.149 -1.825,-3.894 -4.065,-3.894 z m -1.184,12.019 v -7.726 c 0,-0.906 0.744,-1.647 1.654,-1.647 h 4.264 c 0.89,0 1.648,0.758 1.648,1.647 v 7.726 c 0,0.912 -0.738,1.653 -1.648,1.653 h -4.296 c -0.912,0 -1.622,-0.725 -1.622,-1.653 z"
                   inkscape:connector-curvature="0"
                   style="fill:#ffffff" />
                <path
                   id="path845"
                   d="m 512.91,404.27 c -1.578,0 -2.768,0.564 -3.723,1.026 -0.582,0.279 -1.086,0.52 -1.477,0.52 -0.177,0 -0.328,-0.08 -0.408,-0.211 l -0.364,-0.696 c -0.091,-0.183 -0.456,-0.541 -0.907,-0.541 h -0.541 c -0.52,0 -0.936,0.467 -0.936,1.037 v 21.461 c 0,0.673 0.531,1.203 1.203,1.203 h 0.468 c 0.667,0 1.209,-0.536 1.209,-1.203 v -7.121 c 0,-0.211 0.137,-0.439 0.276,-0.439 0.391,0 0.895,0.229 1.477,0.496 0.955,0.439 2.145,0.98 3.723,0.98 h 0.505 c 2.794,0 4.532,-1.597 4.532,-4.162 v -8.192 c 0,-2.526 -1.775,-4.157 -4.532,-4.157 h -0.505 z m -5.475,11.952 v -7.39 c 0,-1.021 0.798,-1.818 1.818,-1.818 h 3.997 c 1.021,0 1.818,0.798 1.818,1.818 v 7.39 c 0,1.003 -0.818,1.818 -1.818,1.818 h -3.997 c -1.001,0 -1.818,-0.815 -1.818,-1.818 z"
                   inkscape:connector-curvature="0"
                   style="fill:#ffffff" />
                <path
                   id="path847"
                   d="m 526.04,404.37 c -2.241,0 -4.06,1.744 -4.06,3.894 v 8.398 c 0,2.178 1.768,4.025 3.854,4.025 h 5.647 c 0.698,0 1.203,-0.484 1.203,-1.141 v -0.37 c 0,-0.661 -0.505,-1.135 -1.203,-1.135 h -4.639 c -1.3,0 -1.986,-0.639 -1.986,-1.854 v -2.457 h 8.369 c 1.346,0 2.142,-0.821 2.142,-2.212 v -3.256 c 0,-2.149 -1.822,-3.894 -4.054,-3.894 h -5.273 z m -1.183,4.265 c 0,-0.907 0.713,-1.619 1.621,-1.619 h 4.396 c 0.906,0 1.613,0.712 1.613,1.619 v 2.622 h -7.631 c 10e-4,-0.342 10e-4,-2.622 10e-4,-2.622 z"
                   inkscape:connector-curvature="0"
                   style="fill:#ffffff" />
                <path
                   id="path849"
                   d="m 547,404.27 c -1.573,0 -2.76,0.564 -3.718,1.021 -0.596,0.28 -1.105,0.525 -1.521,0.525 -0.183,0 -0.257,-0.023 -0.399,-0.269 l -0.331,-0.604 c -0.19,-0.382 -0.513,-0.575 -0.949,-0.575 h -0.465 c -0.562,0 -0.972,0.438 -0.972,1.037 v 14.077 c 0,0.667 0.527,1.203 1.206,1.203 h 0.465 c 0.667,0 1.211,-0.542 1.211,-1.203 v -10.65 c 0,-0.998 0.815,-1.818 1.813,-1.818 h 3.999 c 1.001,0 1.816,0.82 1.816,1.818 v 10.65 c 0,0.667 0.53,1.203 1.203,1.203 h 0.47 c 0.667,0 1.209,-0.542 1.209,-1.203 v -11.055 c 0,-2.526 -1.776,-4.157 -4.535,-4.157 z"
                   inkscape:connector-curvature="0"
                   style="fill:#ffffff" />
              </g>
              <g
                 id="g855"
                 transform="matrix(0.52202366,0,0,0.52202366,-103.26376,-530.61448)"
                 style="fill:#ffffff">
                <path
                   id="path853"
                   d="m 667.46,415.23 c 1.218,0 2.188,0.99 2.188,2.229 0,1.257 -0.971,2.237 -2.198,2.237 -1.218,0 -2.208,-0.98 -2.208,-2.237 0,-1.238 0.99,-2.229 2.208,-2.229 z m -0.01,0.346 c -0.98,0 -1.782,0.842 -1.782,1.882 0,1.06 0.802,1.891 1.792,1.891 0.99,0.011 1.782,-0.831 1.782,-1.881 0,-1.05 -0.792,-1.892 -1.782,-1.892 z m -0.416,3.179 h -0.396 v -2.485 c 0.208,-0.03 0.406,-0.06 0.703,-0.06 0.377,0 0.624,0.079 0.772,0.188 0.149,0.108 0.229,0.276 0.229,0.515 0,0.326 -0.218,0.524 -0.485,0.604 v 0.021 c 0.218,0.039 0.366,0.237 0.416,0.604 0.06,0.387 0.118,0.535 0.158,0.614 h -0.416 c -0.06,-0.079 -0.119,-0.307 -0.168,-0.634 -0.06,-0.316 -0.218,-0.436 -0.535,-0.436 h -0.277 v 1.069 z m 0,-1.377 h 0.287 c 0.327,0 0.604,-0.118 0.604,-0.426 0,-0.218 -0.158,-0.436 -0.604,-0.436 -0.129,0 -0.218,0.01 -0.287,0.021 z"
                   inkscape:connector-curvature="0"
                   style="fill:#ffffff" />
              </g>
            </g>
            <text
               id="text936"
               y="-307.38196"
               x="251.92418"
               style="font-style:normal;font-weight:normal;font-size:14.8628px;line-height:1.25;font-family:sans-serif;letter-spacing:0px;word-spacing:0px;fill:#ffffff;fill-opacity:1;stroke:none;stroke-width:0.37157"
               xml:space="preserve"><tspan
                 id="tspan934"
                 style="font-style:normal;font-variant:normal;font-weight:600;font-stretch:normal;font-family:Cabin;-inkscape-font-specification:'Cabin Semi-Bold';fill:#ffffff;stroke-width:0.37157"
                 y="-307.38196"
                 x="251.92418"
                 sodipodi:role="line">Board Election 2020</tspan></text>
          </g>
        </g>
      </g>
      <g
         id="g1130"
         fill="#73ba25"
         transform="matrix(0.100092,0,0,0.100092,107.96904,-40.556694)">
        <path
           fill-rule="evenodd"
           clip-rule="evenodd"
           d="m 523.71,467.88 c -3.3113,-0.11926 -6.4507,1.0506 -8.8499,3.3008 -2.3993,2.2502 -3.8147,5.2984 -3.9147,8.5991 -0.2297,6.8207 5.1108,12.559 11.916,12.81 3.3095,0.1 6.4647,-1.0698 8.878,-3.32 2.4098,-2.2607 3.7953,-5.3107 3.9006,-8.5991 0.2297,-6.819 -5.109,-12.549 -11.93,-12.791 z m 2.0205,13.512 c -3.0307,0 -5.4791,-1.6398 -5.4791,-3.6498 0,-2.0292 2.4484,-3.6603 5.4791,-3.6603 3.0306,0 5.486,1.6311 5.486,3.6603 0,2.0099 -2.4571,3.6498 -5.486,3.6498 z m 28.798,14.729 c 0.0887,-0.0692 0.29521,-0.25105 0.2683,-0.41918 -0.68471,-4.2787 -7.0592,-25.029 -11.884,-30.019 -1.3294,-1.3592 -2.394,-2.6992 -4.5495,-3.9602 -17.454,-10.171 -58.863,-16.309 -60.803,-16.59 0,0 -0.19473,-0.0406 -0.3297,0.0912 -0.1048,0.10237 -0.1246,0.29991 -0.1246,0.29991 0,0 -0.1596,8.5798 -0.1841,9.5392 -4.2286,-1.4206 -34.972,-11.351 -63.791,-12.351 -24.44,-0.85939 -60.033,-4.0198 -107.2,24.98 l -1.3943,0.86815 c -22.19,13.841 -37.51,30.91 -45.518,50.739 -2.5116,6.2402 -5.8895,20.32 -2.5414,33.569 1.4417,5.7912 4.1304,11.61 7.7556,16.819 8.194,11.77 21.944,19.58 36.749,20.899 20.904,1.8696 36.733,-7.5188 42.363,-25.099 3.8708,-12.13 0,-29.928 -14.839,-39.007 -12.07,-7.3907 -25.049,-5.7106 -32.578,-0.7296 -6.5313,4.3303 -10.23,11.06 -10.165,18.451 0.1508,13.11 11.444,20.078 19.564,20.099 2.3589,0 4.7284,-0.41041 7.3995,-1.2803 0.9506,-0.28939 1.845,-0.64893 2.8307,-1.2593 l 0.3087,-0.18064 0.1947,-0.12978 -0.065,0.0386 c 1.8503,-1.261 2.964,-3.3113 2.964,-5.5106 0,-0.59981 -0.084,-1.2084 -0.2561,-1.8205 -0.9593,-3.32 -4.239,-5.3282 -7.638,-4.7091 l -0.4595,0.10874 -0.6209,0.18942 -0.9015,0.31043 c -1.8696,0.4595 -3.2692,0.49984 -3.5691,0.51037 -0.9506,-0.0614 -5.6246,-1.461 -5.6246,-6.5805 v -0.0702 c 0,-1.8801 0.7542,-3.199 1.1698,-3.9198 1.454,-2.28 5.4352,-4.5179 10.814,-4.0496 7.0593,0.61034 12.149,4.2303 15.52,11.06 3.1289,6.349 2.3098,14.159 -2.1099,19.88 -4.3899,5.6684 -12.205,8.0782 -22.598,6.9593 -10.481,-1.1593 -19.34,-7.1908 -24.303,-16.579 -4.8565,-9.1779 -5.1213,-20.059 -0.6858,-28.418 10.609,-20.029 30.649,-19.82 41.637,-17.921 16.26,2.8202 34.758,17.819 41.319,35.138 1.0593,2.7606 1.5995,4.9494 2.0713,6.9505 l 0.7085,2.9903 18.37,8.9692 c 0.39458,0.19266 0.52796,0.25778 0.6858,0.14034 0.18941,-0.14093 0.081,-0.52966 0.081,-0.52966 -0.114,-0.4104 -0.3806,-0.78924 -0.805,-5.9298 -0.3491,-4.5618 -1.0594,-17.051 5.2282,-23.24 2.4414,-2.4186 6.1613,-4.5776 9.099,-5.2686 12.04,-2.9412 26.159,-0.912 39.507,14.539 6.9102,7.98 10.279,11.619 11.97,13.249 0,0 0.38494,0.36349 0.5893,0.53142 0.22331,0.1835 0.36878,0.33789 0.6945,0.51914 0.55786,0.31042 22.954,10.621 22.954,10.621 0,0 0.26534,0.13182 0.4612,-0.11049 0.19362,-0.23953 0.01,-0.47879 0.01,-0.47879 -0.1491,-0.17013 -14.199,-18.328 -11.698,-33.279 1.9696,-11.909 11.447,-10.83 24.558,-9.3498 4.2794,0.49984 9.1516,1.0593 14.196,1.1716 14.084,0.0895 29.254,-2.5115 38.604,-6.6015 6.049,-2.629 9.9093,-4.3794 12.328,-6.5787 0.8699,-0.72084 1.3207,-1.8907 1.7907,-3.1499 l 0.3297,-0.83133 c 0.3911,-1.0207 0.9664,-3.171 1.219,-4.3496 0.1017,-0.51914 0.2208,-1.0274 -0.2087,-1.3592 -0.39265,-0.30337 -1.2944,0.24026 -1.2944,0.24026 -4.1058,2.4712 -14.369,7.1505 -23.965,7.3504 -11.914,0.24027 -36.054,-12.061 -38.555,-13.36 -1.6739,-3.9857 -3.3458,-7.9724 -5.0438,-11.948 17.27,11.379 31.594,17.668 42.559,18.638 12.207,1.0874 21.723,-5.5724 25.853,-8.3432 0.54064,-0.35944 1.0799,-0.76184 1.5756,-1.1486 z m -48.992,-16.369 c 0.1753,-4.7302 2.1554,-9.12 5.6141,-12.34 3.4603,-3.2306 7.9747,-4.9003 12.708,-4.7494 9.7602,0.34902 17.43,8.5886 17.095,18.338 -0.1841,4.7302 -2.1642,9.12 -5.6141,12.33 -3.4603,3.2499 -7.9642,4.9196 -12.719,4.76 -9.7497,-0.35954 -17.411,-8.5798 -17.084,-18.338 z"
           id="Geeko" />
        <g
           id="g1128"
           transform="matrix(1.7539,0,0,1.7539,-692,-166.47)">
          <path
             id="path1126"
             fill="#73ba25"
             d="m 667.46,415.23 c 1.218,0 2.188,0.99 2.188,2.229 0,1.257 -0.971,2.237 -2.198,2.237 -1.218,0 -2.208,-0.98 -2.208,-2.237 0,-1.238 0.99,-2.229 2.208,-2.229 z m -0.01,0.346 c -0.98,0 -1.782,0.842 -1.782,1.882 0,1.06 0.802,1.891 1.792,1.891 0.99,0.011 1.782,-0.831 1.782,-1.881 0,-1.05 -0.792,-1.892 -1.782,-1.892 z m -0.416,3.179 h -0.396 v -2.485 c 0.208,-0.03 0.406,-0.06 0.703,-0.06 0.377,0 0.624,0.079 0.772,0.188 0.149,0.108 0.229,0.276 0.229,0.515 0,0.326 -0.218,0.524 -0.485,0.604 v 0.021 c 0.218,0.039 0.366,0.237 0.416,0.604 0.06,0.387 0.118,0.535 0.158,0.614 h -0.416 c -0.06,-0.079 -0.119,-0.307 -0.168,-0.634 -0.06,-0.316 -0.218,-0.436 -0.535,-0.436 h -0.277 v 1.069 z m 0,-1.377 h 0.287 c 0.327,0 0.604,-0.118 0.604,-0.426 0,-0.218 -0.158,-0.436 -0.604,-0.436 -0.129,0 -0.218,0.01 -0.287,0.021 z" />
        </g>
      </g>
    </g>
    <rect
       style="opacity:1;fill:#102c37;stroke-width:0.264583"
       id="rect994"
       width="297"
       height="7.9999995"
       x="0"
       y="201.99998" />
    <text
       id="text1257"
       y="206.88193"
       x="89.586205"
       style="font-style:normal;font-weight:normal;font-size:3.52778px;line-height:1.25;font-family:sans-serif;letter-spacing:0px;word-spacing:0px;fill:#ffffff;fill-opacity:1;stroke:none;stroke-width:0.264583"
       xml:space="preserve"><tspan
         style="font-style:normal;font-variant:normal;font-weight:normal;font-stretch:normal;font-size:3.52778px;font-family:Cabin;-inkscape-font-specification:Cabin;fill:#ffffff;stroke-width:0.264583"
         y="206.88193"
         x="89.586205"
         id="tspan1255"
         sodipodi:role="line">[1] https://en.opensuse.org/openSUSE:Board_election_rules#Ad-hoc_elections:</tspan></text>
    <rect
       style="fill:#2d9d91;stroke-width:0.264583"
       id="rect984"
       width="154.78125"
       height="9.260417"
       x="71.109375"
       y="41.5" />
    <text
       xml:space="preserve"
       style="font-style:normal;font-weight:normal;font-size:3.88056px;line-height:1.25;font-family:sans-serif;letter-spacing:0px;word-spacing:0px;fill:#ffffff;fill-opacity:1;stroke:none;stroke-width:0.264583"
       x="86.424789"
       y="47.323483"
       id="text968"><tspan
         sodipodi:role="line"
         x="86.424789"
         y="47.323483"
         style="font-style:normal;font-variant:normal;font-weight:normal;font-stretch:normal;font-size:3.88056px;font-family:Cabin;-inkscape-font-specification:Cabin;fill:#ffffff;stroke-width:0.264583"
         id="tspan970">Ad-hoc Election [1]. The elected board member will serve till the end of 2021</tspan></text>
    <rect
       style="opacity:0.85;fill:#276b86;stroke-width:0.264583"
       id="rect1012"
       width="10.583333"
       height="8.0000134"
       x="10.583333"
       y="202" />
    <rect
       y="193.99998"
       x="-1.5441785e-08"
       height="8.0000134"
       width="10.583333"
       id="rect1014"
       style="opacity:0.85;fill:#276b86;stroke-width:0.264583" />
    <rect
       style="opacity:1;fill:#276b86;stroke-width:0.264583"
       id="rect1016"
       width="10.583333"
       height="8.0000134"
       x="286.41666"
       y="193.99998" />
    <rect
       y="201.99998"
       x="275.54489"
       height="8.0000134"
       width="10.583333"
       id="rect1018"
       style="opacity:1;fill:#276b86;stroke-width:0.264583" />
  </g>
</svg>
