<?xml version="1.0" encoding="UTF-8" standalone="no"?>
<!-- Created with Inkscape (http://www.inkscape.org/) -->

<svg
   width="21cm"
   height="29.700001cm"
   viewBox="0 0 210 297.00001"
   version="1.1"
   id="svg5"
   inkscape:version="1.2 (dc2aedaf03, 2022-05-15)"
   sodipodi:docname="board-elections-2022.svg"
   xml:space="preserve"
   inkscape:export-filename="board-elections-2022.png"
   inkscape:export-xdpi="300"
   inkscape:export-ydpi="300"
   xmlns:inkscape="http://www.inkscape.org/namespaces/inkscape"
   xmlns:sodipodi="http://sodipodi.sourceforge.net/DTD/sodipodi-0.dtd"
   xmlns="http://www.w3.org/2000/svg"
   xmlns:svg="http://www.w3.org/2000/svg"><sodipodi:namedview
     id="namedview7"
     pagecolor="#ffffff"
     bordercolor="#666666"
     borderopacity="1.0"
     inkscape:showpageshadow="2"
     inkscape:pageopacity="0.0"
     inkscape:pagecheckerboard="0"
     inkscape:deskcolor="#d1d1d1"
     inkscape:document-units="cm"
     showgrid="false"
     inkscape:zoom="0.53795867"
     inkscape:cx="471.2258"
     inkscape:cy="553.01647"
     inkscape:window-width="1920"
     inkscape:window-height="1011"
     inkscape:window-x="0"
     inkscape:window-y="32"
     inkscape:window-maximized="1"
     inkscape:current-layer="layer1"
     showguides="false"><sodipodi:guide
       position="105,90.923926"
       orientation="-1,0"
       id="guide1545"
       inkscape:locked="false"
       inkscape:label=""
       inkscape:color="rgb(0,134,229)" /><sodipodi:guide
       position="5.0000001,278.56794"
       orientation="-1,0"
       id="guide1696"
       inkscape:locked="false"
       inkscape:label=""
       inkscape:color="rgb(0,134,229)" /><sodipodi:guide
       position="205,282.74124"
       orientation="-1,0"
       id="guide1762"
       inkscape:locked="false"
       inkscape:label=""
       inkscape:color="rgb(0,134,229)" /><sodipodi:guide
       position="79.640513,292.00001"
       orientation="0,1"
       id="guide1829"
       inkscape:locked="false"
       inkscape:label=""
       inkscape:color="rgb(0,134,229)" /><sodipodi:guide
       position="-26.083138,5.0000077"
       orientation="0,1"
       id="guide1897"
       inkscape:locked="false"
       inkscape:label=""
       inkscape:color="rgb(0,134,229)" /><sodipodi:guide
       position="100,278.06463"
       orientation="-1,0"
       id="guide2043"
       inkscape:locked="false"
       inkscape:label=""
       inkscape:color="rgb(0,134,229)" /><sodipodi:guide
       position="110,265.76892"
       orientation="-1,0"
       id="guide2045"
       inkscape:locked="false"
       inkscape:label=""
       inkscape:color="rgb(0,134,229)" /><sodipodi:guide
       position="87.423275,247.00001"
       orientation="0,1"
       id="guide2116"
       inkscape:locked="false"
       inkscape:label=""
       inkscape:color="rgb(0,134,229)" /><sodipodi:guide
       position="-33.038641,242.00001"
       orientation="0,1"
       id="guide2494"
       inkscape:locked="false"
       inkscape:label=""
       inkscape:color="rgb(0,134,229)" /><sodipodi:guide
       position="-12.172131,217.00001"
       orientation="0,1"
       id="guide2729"
       inkscape:locked="false"
       inkscape:label=""
       inkscape:color="rgb(0,134,229)" /><inkscape:grid
       type="xygrid"
       id="grid7686" /><sodipodi:guide
       position="200,265.03118"
       orientation="-1,0"
       id="guide13926"
       inkscape:locked="false"
       inkscape:label=""
       inkscape:color="rgb(0,134,229)" /></sodipodi:namedview><defs
     id="defs2" /><g
     inkscape:label="Layer 1"
     inkscape:groupmode="layer"
     id="layer1"><rect
       style="fill:#fafafa;stroke-width:1.32292"
       id="rect2240"
       width="210.11067"
       height="297.12177"
       x="0.069703706"
       y="0.29810193" /><g
       style="fill:#73ba25"
       transform="matrix(0.22464245,0,0,0.22464245,-37.98478,-83.268487)"
       id="g857"><path
         style="clip-rule:evenodd;fill:#73ba25;fill-rule:evenodd"
         inkscape:connector-curvature="0"
         id="Geeko"
         d="m 523.71,442.05 c -3.3113,-0.11926 -6.4507,1.0506 -8.8499,3.3008 -2.3993,2.2502 -3.8147,5.2984 -3.9147,8.5992 -0.2297,6.8208 5.1108,12.559 11.916,12.81 3.3095,0.1 6.4647,-1.0698 8.878,-3.32 2.4098,-2.2607 3.7953,-5.3107 3.9006,-8.5992 0.2297,-6.819 -5.109,-12.549 -11.93,-12.791 z m 2.0205,13.512 c -3.0307,0 -5.4791,-1.6398 -5.4791,-3.6498 0,-2.0292 2.4484,-3.6603 5.4791,-3.6603 3.0306,0 5.486,1.6311 5.486,3.6603 0,2.0099 -2.4571,3.6498 -5.486,3.6498 z m 28.798,14.729 c 0.0887,-0.0692 0.29521,-0.25105 0.2683,-0.41918 -0.68471,-4.2787 -7.0592,-25.029 -11.884,-30.019 -1.3294,-1.3592 -2.394,-2.6992 -4.5495,-3.9602 -17.454,-10.171 -58.863,-16.309 -60.803,-16.59 0,0 -0.19473,-0.0406 -0.3297,0.0912 -0.1048,0.10237 -0.1246,0.29991 -0.1246,0.29991 0,0 -0.1596,8.5799 -0.1841,9.5392 -4.2286,-1.4206 -34.972,-11.351 -63.791,-12.351 -24.44,-0.85939 -60.033,-4.0198 -107.2,24.98 l -1.3943,0.86815 c -22.19,13.841 -37.51,30.91 -45.518,50.739 -2.5116,6.2402 -5.8895,20.32 -2.5414,33.569 1.4417,5.7912 4.1304,11.611 7.7556,16.819 8.194,11.77 21.944,19.58 36.749,20.899 20.904,1.8696 36.733,-7.5188 42.363,-25.099 3.8708,-12.13 0,-29.928 -14.839,-39.008 -12.07,-7.3908 -25.049,-5.7106 -32.578,-0.7296 -6.5313,4.3303 -10.23,11.06 -10.165,18.451 0.1508,13.11 11.444,20.078 19.564,20.099 2.3589,0 4.7284,-0.41041 7.3995,-1.2803 0.9506,-0.28939 1.845,-0.64893 2.8307,-1.2593 l 0.3087,-0.18065 0.1947,-0.12978 -0.065,0.0386 c 1.8503,-1.261 2.964,-3.3113 2.964,-5.5106 0,-0.59981 -0.084,-1.2084 -0.2561,-1.8205 -0.9593,-3.32 -4.239,-5.3282 -7.638,-4.7091 l -0.4595,0.10874 -0.6209,0.18942 -0.9015,0.31043 c -1.8696,0.45951 -3.2692,0.49985 -3.5691,0.51038 -0.9506,-0.0614 -5.6246,-1.461 -5.6246,-6.5805 v -0.0702 c 0,-1.8801 0.7542,-3.199 1.1698,-3.9199 1.454,-2.28 5.4352,-4.5179 10.814,-4.0497 7.0593,0.61034 12.149,4.2303 15.52,11.06 3.1289,6.349 2.3098,14.159 -2.1099,19.88 -4.3899,5.6685 -12.205,8.0783 -22.598,6.9593 -10.481,-1.1593 -19.34,-7.1908 -24.303,-16.579 -4.8565,-9.1779 -5.1213,-20.059 -0.6858,-28.418 10.609,-20.029 30.649,-19.82 41.637,-17.921 16.26,2.8202 34.758,17.819 41.319,35.139 1.0593,2.7606 1.5995,4.9494 2.0713,6.9505 l 0.7085,2.9903 18.37,8.9692 c 0.39458,0.19266 0.52796,0.25778 0.6858,0.14034 0.18941,-0.14093 0.081,-0.52966 0.081,-0.52966 -0.114,-0.4104 -0.3806,-0.78924 -0.805,-5.9298 -0.3491,-4.5618 -1.0594,-17.051 5.2282,-23.24 2.4414,-2.4186 6.1613,-4.5776 9.099,-5.2686 12.04,-2.9412 26.159,-0.912 39.507,14.539 6.9102,7.98 10.279,11.619 11.97,13.249 0,0 0.38494,0.36349 0.5893,0.53142 0.22331,0.1835 0.36878,0.33789 0.6945,0.51914 0.55786,0.31042 22.954,10.621 22.954,10.621 0,0 0.26534,0.13182 0.4612,-0.11049 0.19362,-0.23953 0.01,-0.4788 0.01,-0.4788 -0.1491,-0.17013 -14.199,-18.328 -11.698,-33.279 1.9696,-11.909 11.447,-10.83 24.558,-9.3498 4.2794,0.49984 9.1516,1.0593 14.196,1.1716 14.084,0.0895 29.254,-2.5115 38.604,-6.6015 6.049,-2.629 9.9093,-4.3794 12.328,-6.5787 0.8699,-0.72084 1.3207,-1.8907 1.7907,-3.1499 l 0.3297,-0.83133 c 0.3911,-1.0207 0.9664,-3.171 1.219,-4.3496 0.1017,-0.51914 0.2208,-1.0274 -0.2087,-1.3592 -0.39265,-0.30337 -1.2944,0.24027 -1.2944,0.24027 -4.1058,2.4712 -14.369,7.1505 -23.965,7.3504 -11.914,0.24028 -36.054,-12.061 -38.555,-13.36 -1.6739,-3.9857 -3.3458,-7.9724 -5.0438,-11.948 17.27,11.379 31.594,17.668 42.559,18.638 12.207,1.0874 21.723,-5.5724 25.853,-8.3433 0.54064,-0.35944 1.0799,-0.76184 1.5756,-1.1486 z m -48.992,-16.369 c 0.1753,-4.7302 2.1554,-9.1201 5.6141,-12.34 3.4603,-3.2306 7.9747,-4.9003 12.708,-4.7494 9.7602,0.34902 17.43,8.5886 17.095,18.338 -0.1841,4.7302 -2.1642,9.1201 -5.6141,12.33 -3.4603,3.2499 -7.9642,4.9196 -12.719,4.76 -9.7497,-0.35954 -17.411,-8.5799 -17.084,-18.338 z" /><path
         style="fill:#73ba25"
         inkscape:connector-curvature="0"
         d="m 376.84,556.36 c -7.7836,0 -12.065,6.5805 -12.065,11.13 v 5.8403 c 0,6.6997 5.4738,10.851 10.55,10.851 h 17.819 c 2.2449,0 2.7149,1.4697 2.7149,2.7097 v 3.769 c 0,0.39988 -0.081,4.0198 -2.7149,4.0198 h -24.303 c -2.4151,0 -4.1602,1.6802 -4.1602,3.9795 v 1.0418 c 0,2.2905 1.7451,3.9602 4.1602,3.9602 h 25.624 c 6.698,0 11.02,-4.66 11.02,-11.879 v -6.3016 c 0,-6.7786 -4.8705,-9.8093 -9.7058,-9.8093 h -17.533 c -2.6395,0 -3.8356,-1.9801 -3.8356,-3.3797 v -3.4796 c 0,-2.1906 1.4644,-3.4604 4.0251,-3.4604 h 19.408 c 2.38,0 4.1707,-1.71 4.1707,-3.9707 v -1.04 c 0,-2.2695 -1.8205,-3.9813 -4.2513,-3.9813 h -20.922 z"
         id="path835" /><path
         style="fill:#73ba25"
         inkscape:connector-curvature="0"
         d="m 449.7,556.36 c -2.301,0 -4.1548,1.8696 -4.1548,4.1707 v 29.838 c 0,2.3905 -1.9503,4.311 -4.311,4.311 h -13.545 c -2.3694,0 -4.3092,-1.9205 -4.3092,-4.311 v -29.838 c 0,-2.3011 -1.8696,-4.1707 -4.1689,-4.1707 h -1.3101 c -2.3344,0 -4.1707,1.8416 -4.1707,4.1707 v 30.968 c 0,7.2101 5.6737,12.44 13.489,12.44 h 14.485 c 7.8047,0 13.475,-5.2282 13.475,-12.44 v -30.968 c 0,-2.3291 -1.8293,-4.1707 -4.1602,-4.1707 h -1.3189 z"
         id="path837" /><path
         style="fill:#73ba25"
         inkscape:connector-curvature="0"
         d="m 475.63,556.36 c -7.7801,0 -12.074,6.5805 -12.074,11.13 v 5.8403 c 0,6.6997 5.4843,10.851 10.564,10.851 h 17.814 c 2.2485,0 2.7203,1.4697 2.7203,2.7097 v 3.769 c 0,0.39988 -0.081,4.0198 -2.7203,4.0198 H 467.62 c -2.4045,0 -4.1601,1.6802 -4.1601,3.9795 v 1.0418 c 0,2.2905 1.7556,3.9602 4.1601,3.9602 h 25.633 c 6.6998,0 11.041,-4.66 11.041,-11.879 v -6.3016 c 0,-6.7786 -4.8845,-9.8093 -9.7199,-9.8093 h -17.533 c -2.6466,0 -3.8392,-1.9801 -3.8392,-3.3797 v -3.4796 c 0,-2.1906 1.4645,-3.4604 4.0251,-3.4604 h 19.419 c 2.3747,0 4.1584,-1.71 4.1584,-3.9707 v -1.04 c 0,-2.2695 -1.8188,-3.9813 -4.2601,-3.9813 h -20.913 z"
         id="path839" /><path
         style="fill:#73ba25"
         inkscape:connector-curvature="0"
         d="m 516.6,556.36 c -2.3098,0 -4.0549,1.7118 -4.0549,3.9813 v 39.358 c 0,2.259 1.7047,3.9602 3.9637,3.9602 h 31.364 c 2.4151,0 4.1602,-1.6697 4.1602,-3.9602 v -1.0418 c 0,-2.2993 -1.7451,-3.9795 -4.1602,-3.9795 h -25.687 v -10.02 h 18.822 c 2.4098,0 4.1602,-1.6907 4.1602,-3.9813 v -1.04 c 0,-2.3011 -1.7504,-3.9707 -4.1602,-3.9707 h -18.822 v -10.32 h 24.382 c 2.4063,0 4.1601,-1.6591 4.1601,-3.9707 v -1.04 c 0,-2.3011 -1.7538,-3.9813 -4.1601,-3.9813 h -29.968 z"
         id="path841" /><g
         style="fill:#73ba25"
         transform="matrix(1.7539,0,0,1.7539,-611.6,-134.13)"
         id="g851"><path
           style="fill:#73ba25"
           inkscape:connector-curvature="0"
           d="m 491.25,404.37 c -2.241,0 -4.065,1.744 -4.065,3.894 v 8.461 c 0,2.184 1.765,3.963 3.929,3.963 h 5.473 c 2.164,0 3.929,-1.779 3.929,-3.963 v -8.461 c 0,-2.149 -1.825,-3.894 -4.065,-3.894 z m -1.184,12.019 v -7.726 c 0,-0.906 0.744,-1.647 1.654,-1.647 h 4.264 c 0.89,0 1.648,0.758 1.648,1.647 v 7.726 c 0,0.912 -0.738,1.653 -1.648,1.653 h -4.296 c -0.912,0 -1.622,-0.725 -1.622,-1.653 z"
           id="path843" /><path
           style="fill:#73ba25"
           inkscape:connector-curvature="0"
           d="m 512.91,404.27 c -1.578,0 -2.768,0.564 -3.723,1.026 -0.582,0.279 -1.086,0.52 -1.477,0.52 -0.177,0 -0.328,-0.08 -0.408,-0.211 l -0.364,-0.696 c -0.091,-0.183 -0.456,-0.541 -0.907,-0.541 h -0.541 c -0.52,0 -0.936,0.467 -0.936,1.037 v 21.461 c 0,0.673 0.531,1.203 1.203,1.203 h 0.468 c 0.667,0 1.209,-0.536 1.209,-1.203 v -7.121 c 0,-0.211 0.137,-0.439 0.276,-0.439 0.391,0 0.895,0.229 1.477,0.496 0.955,0.439 2.145,0.98 3.723,0.98 h 0.505 c 2.794,0 4.532,-1.597 4.532,-4.162 v -8.192 c 0,-2.526 -1.775,-4.157 -4.532,-4.157 h -0.505 z m -5.475,11.952 v -7.39 c 0,-1.021 0.798,-1.818 1.818,-1.818 h 3.997 c 1.021,0 1.818,0.798 1.818,1.818 v 7.39 c 0,1.003 -0.818,1.818 -1.818,1.818 h -3.997 c -1.001,0 -1.818,-0.815 -1.818,-1.818 z"
           id="path845" /><path
           style="fill:#73ba25"
           inkscape:connector-curvature="0"
           d="m 526.04,404.37 c -2.241,0 -4.06,1.744 -4.06,3.894 v 8.398 c 0,2.178 1.768,4.025 3.854,4.025 h 5.647 c 0.698,0 1.203,-0.484 1.203,-1.141 v -0.37 c 0,-0.661 -0.505,-1.135 -1.203,-1.135 h -4.639 c -1.3,0 -1.986,-0.639 -1.986,-1.854 v -2.457 h 8.369 c 1.346,0 2.142,-0.821 2.142,-2.212 v -3.256 c 0,-2.149 -1.822,-3.894 -4.054,-3.894 h -5.273 z m -1.183,4.265 c 0,-0.907 0.713,-1.619 1.621,-1.619 h 4.396 c 0.906,0 1.613,0.712 1.613,1.619 v 2.622 h -7.631 c 10e-4,-0.342 10e-4,-2.622 10e-4,-2.622 z"
           id="path847" /><path
           style="fill:#73ba25"
           inkscape:connector-curvature="0"
           d="m 547,404.27 c -1.573,0 -2.76,0.564 -3.718,1.021 -0.596,0.28 -1.105,0.525 -1.521,0.525 -0.183,0 -0.257,-0.023 -0.399,-0.269 l -0.331,-0.604 c -0.19,-0.382 -0.513,-0.575 -0.949,-0.575 h -0.465 c -0.562,0 -0.972,0.438 -0.972,1.037 v 14.077 c 0,0.667 0.527,1.203 1.206,1.203 h 0.465 c 0.667,0 1.211,-0.542 1.211,-1.203 v -10.65 c 0,-0.998 0.815,-1.818 1.813,-1.818 h 3.999 c 1.001,0 1.816,0.82 1.816,1.818 v 10.65 c 0,0.667 0.53,1.203 1.203,1.203 h 0.47 c 0.667,0 1.209,-0.542 1.209,-1.203 v -11.055 c 0,-2.526 -1.776,-4.157 -4.535,-4.157 z"
           id="path849" /></g><g
         style="fill:#73ba25"
         transform="matrix(1.7539,0,0,1.7539,-611.6,-134.13)"
         id="g855"><path
           style="fill:#73ba25"
           inkscape:connector-curvature="0"
           d="m 667.46,415.23 c 1.218,0 2.188,0.99 2.188,2.229 0,1.257 -0.971,2.237 -2.198,2.237 -1.218,0 -2.208,-0.98 -2.208,-2.237 0,-1.238 0.99,-2.229 2.208,-2.229 z m -0.01,0.346 c -0.98,0 -1.782,0.842 -1.782,1.882 0,1.06 0.802,1.891 1.792,1.891 0.99,0.011 1.782,-0.831 1.782,-1.881 0,-1.05 -0.792,-1.892 -1.782,-1.892 z m -0.416,3.179 h -0.396 v -2.485 c 0.208,-0.03 0.406,-0.06 0.703,-0.06 0.377,0 0.624,0.079 0.772,0.188 0.149,0.108 0.229,0.276 0.229,0.515 0,0.326 -0.218,0.524 -0.485,0.604 v 0.021 c 0.218,0.039 0.366,0.237 0.416,0.604 0.06,0.387 0.118,0.535 0.158,0.614 h -0.416 c -0.06,-0.079 -0.119,-0.307 -0.168,-0.634 -0.06,-0.316 -0.218,-0.436 -0.535,-0.436 h -0.277 v 1.069 z m 0,-1.377 h 0.287 c 0.327,0 0.604,-0.118 0.604,-0.426 0,-0.218 -0.158,-0.436 -0.604,-0.436 -0.129,0 -0.218,0.01 -0.287,0.021 z"
           id="path853" /></g></g><g
       id="g2041"
       transform="matrix(0.89759789,0,0,0.89759789,105.512,-49.68407)"><text
         xml:space="preserve"
         style="font-style:normal;font-weight:normal;font-size:38.7506px;line-height:1.25;font-family:sans-serif;letter-spacing:0px;word-spacing:0px;fill:#73ba25;fill-opacity:1;stroke:none;stroke-width:0.96876"
         x="3.3349352"
         y="98.199364"
         id="text884"><tspan
           sodipodi:role="line"
           x="3.3349352"
           y="98.199364"
           style="font-style:normal;font-variant:normal;font-weight:800;font-stretch:normal;font-family:Inter;-inkscape-font-specification:'Inter Ultra-Bold';fill:#73ba25;stroke-width:0.96876"
           id="tspan908">2022 </tspan></text><text
         id="text936"
         y="113.91328"
         x="4.0903482"
         style="font-style:normal;font-weight:normal;font-size:14.3909px;line-height:1.25;font-family:sans-serif;letter-spacing:0px;word-spacing:0px;fill:#73ba25;fill-opacity:1;stroke:none;stroke-width:0.359769"
         xml:space="preserve"><tspan
           id="tspan934"
           style="font-style:normal;font-variant:normal;font-weight:bold;font-stretch:normal;font-family:Inter;-inkscape-font-specification:'Inter Bold';fill:#73ba25;stroke-width:0.359769"
           y="113.91328"
           x="4.0903482"
           sodipodi:role="line">Board Election</tspan></text></g><rect
       style="fill:#73ba25;stroke-width:1.15895"
       id="rect2582"
       width="200"
       height="20"
       x="5"
       y="60.000004"
       rx="2.5" /><text
       xml:space="preserve"
       style="font-size:3.52778px;line-height:1.25;font-family:Arial;-inkscape-font-specification:Arial;text-align:start;text-anchor:start;fill:#ffffff;stroke-width:0.264583"
       x="9.5672922"
       y="66.46521"
       id="text2570"><tspan
         sodipodi:role="line"
         style="font-style:normal;font-variant:normal;font-weight:normal;font-stretch:normal;font-size:3.52778px;font-family:Inter;-inkscape-font-specification:Inter;text-align:start;text-anchor:start;fill:#ffffff;stroke-width:0.264583"
         x="9.5672922"
         y="66.46521"
         id="tspan2572">We are approaching that time of the year again - our regular annual elections for the openSUSE board.</tspan><tspan
         sodipodi:role="line"
         style="font-style:normal;font-variant:normal;font-weight:normal;font-stretch:normal;font-size:3.52778px;font-family:Inter;-inkscape-font-specification:Inter;text-align:start;text-anchor:start;fill:#ffffff;stroke-width:0.264583"
         x="9.5672922"
         y="70.96212"
         id="tspan2580">This time we are looking to fill three seats: Axel's (he has served two terms in a row and cannot run again this time)</tspan><tspan
         sodipodi:role="line"
         style="font-style:normal;font-variant:normal;font-weight:normal;font-stretch:normal;font-size:3.52778px;font-family:Inter;-inkscape-font-specification:Inter;text-align:start;text-anchor:start;fill:#ffffff;stroke-width:0.264583"
         x="9.5672922"
         y="75.459038"
         id="tspan2594">and Gertjan's and Neal's (both of who are eligible for running again)</tspan></text><text
       xml:space="preserve"
       style="font-size:4.23333px;line-height:1.25;font-family:Arial;-inkscape-font-specification:Arial;stroke-width:0.264583"
       x="11.757803"
       y="62.556202"
       id="text2586"><tspan
         sodipodi:role="line"
         id="tspan2584"
         style="stroke-width:0.264583"
         x="11.757803"
         y="62.556202" /></text><text
       xml:space="preserve"
       style="font-style:normal;font-weight:normal;font-size:5.64444px;line-height:1.25;font-family:sans-serif;fill:#173f4f;fill-opacity:1;stroke:none;stroke-width:0.264583"
       x="37.443226"
       y="284.29749"
       id="text42131"><tspan
         sodipodi:role="line"
         id="tspan42129"
         style="font-style:normal;font-variant:normal;font-weight:normal;font-stretch:normal;font-size:5.64444px;font-family:Inter;-inkscape-font-specification:Inter;fill:#173f4f;stroke-width:0.264583"
         x="37.443226"
         y="284.29749">https://en.opensuse.org/openSUSE:Board_election</tspan></text><g
       id="g13335"
       transform="translate(0,1.0041569)"><path
         style="fill:none;stroke:#acb2b7;stroke-width:0.990816;stroke-linecap:round;stroke-linejoin:round;stroke-dasharray:none;stroke-opacity:1"
         d="m 105.01716,89.49525 -0.0717,179.00924"
         id="path5434" /><g
         id="g10639"
         transform="translate(0,8.9958339)"><path
           style="fill:#dc3545;stroke:none;stroke-width:0.476116px;stroke-linecap:butt;stroke-linejoin:miter;stroke-opacity:1"
           d="m 105.24021,128.95455 -26.803054,0.0771 0.0693,-20.24201 z"
           id="path8689" /><path
           style="fill:#dc3545;stroke:none;stroke-width:0.446114px;stroke-linecap:butt;stroke-linejoin:miter;stroke-opacity:1"
           d="m 87.426984,95.551067 -0.027,26.770403 -28.940549,0.0841 -0.05867,-26.845832 z"
           id="path8418"
           sodipodi:nodetypes="ccccc" /><path
           style="fill:#dc3545;stroke:none;stroke-width:0.446114px;stroke-linecap:butt;stroke-linejoin:miter;stroke-opacity:1"
           d="M 5.0471269,80.042501 71.770916,80.000011 71.836336,109.0659 5.0000209,109.19843 11.70194,93.457128 Z"
           id="path8414" /><path
           style="fill:#ac1e2b;stroke:none;stroke-width:0.446114px;stroke-linecap:butt;stroke-linejoin:miter;stroke-opacity:1"
           d="m 58.435818,122.33628 13.382023,-13.42081 -13.425609,0.0364 z"
           id="path8416"
           sodipodi:nodetypes="cccc" /><path
           style="fill:#ac1e2b;stroke:none;stroke-width:0.222699px;stroke-linecap:butt;stroke-linejoin:miter;stroke-opacity:1"
           d="m 78.450528,128.96948 6.680267,-6.69963 -6.702019,0.0182 z"
           id="path8601"
           sodipodi:nodetypes="cccc" /><text
           xml:space="preserve"
           style="font-size:4.93889px;line-height:1.25;font-family:Arial;-inkscape-font-specification:Arial;fill:#ffffff;stroke-width:0.264583"
           x="-119.57254"
           y="80.521027"
           id="text10486"
           transform="rotate(-90)"><tspan
             sodipodi:role="line"
             id="tspan10484"
             style="font-style:normal;font-variant:normal;font-weight:600;font-stretch:normal;font-size:4.93889px;font-family:Inter;-inkscape-font-specification:'Inter Semi-Bold';fill:#ffffff;stroke-width:0.264583"
             x="-119.57254"
             y="80.521027">PHASE 0</tspan></text><text
           xml:space="preserve"
           style="font-size:4.23333px;line-height:1.25;font-family:Arial;-inkscape-font-specification:Arial;fill:#ffffff;stroke-width:0.264583"
           x="13.300128"
           y="90.737816"
           id="text10603"><tspan
             sodipodi:role="line"
             id="tspan10601"
             style="font-style:normal;font-variant:normal;font-weight:600;font-stretch:normal;font-family:Inter;-inkscape-font-specification:'Inter Semi-Bold';fill:#ffffff;stroke-width:0.264583"
             x="13.300128"
             y="90.737816">15 October</tspan><tspan
             sodipodi:role="line"
             style="font-style:normal;font-variant:normal;font-weight:500;font-stretch:normal;font-family:Inter;-inkscape-font-specification:'Inter Medium';fill:#ffffff;stroke-width:0.264583"
             x="13.300128"
             y="96.134102"
             id="tspan10605">* Announcement of election</tspan><tspan
             sodipodi:role="line"
             style="font-style:normal;font-variant:normal;font-weight:500;font-stretch:normal;font-family:Inter;-inkscape-font-specification:'Inter Medium';fill:#ffffff;stroke-width:0.264583"
             x="13.300128"
             y="101.5304"
             id="tspan10607">* Call for nomination</tspan><tspan
             sodipodi:role="line"
             style="font-style:normal;font-variant:normal;font-weight:500;font-stretch:normal;font-family:Inter;-inkscape-font-specification:'Inter Medium';fill:#ffffff;stroke-width:0.264583"
             x="13.300128"
             y="106.92668"
             id="tspan10609" /><tspan
             sodipodi:role="line"
             style="font-style:normal;font-variant:normal;font-weight:normal;font-stretch:normal;font-family:Inter;-inkscape-font-specification:Inter;fill:#ffffff;stroke-width:0.264583"
             x="13.300128"
             y="112.21835"
             id="tspan10611" /></text></g><g
         id="g10791"
         transform="translate(0,-11.641668)"><path
           style="fill:#ffc107;stroke:none;stroke-width:0.476116px;stroke-linecap:butt;stroke-linejoin:miter;stroke-opacity:1"
           d="m 104.61251,178.64665 26.80305,0.0771 -0.0693,-20.242 z"
           id="path10737" /><path
           style="fill:#ffc107;stroke:none;stroke-width:0.446114px;stroke-linecap:butt;stroke-linejoin:miter;stroke-opacity:1"
           d="m 122.42574,145.24317 0.027,26.7704 28.94054,0.0841 0.0587,-26.84583 z"
           id="path10739"
           sodipodi:nodetypes="ccccc" /><path
           style="fill:#ffc107;stroke:none;stroke-width:0.446114px;stroke-linecap:butt;stroke-linejoin:miter;stroke-opacity:1"
           d="m 204.80559,129.73461 -66.72379,-0.0425 -0.0654,29.06588 66.83632,0.13253 -6.70192,-15.7413 z"
           id="path10741" /><path
           style="fill:#eea320;stroke:none;stroke-width:0.446114px;stroke-linecap:butt;stroke-linejoin:miter;stroke-opacity:1"
           d="m 151.4169,172.02839 -13.38202,-13.42082 13.42561,0.0364 z"
           id="path10743"
           sodipodi:nodetypes="cccc" /><path
           style="fill:#eea320;stroke:none;stroke-width:0.222699px;stroke-linecap:butt;stroke-linejoin:miter;stroke-opacity:1"
           d="m 131.40219,178.66158 -6.68026,-6.69963 6.70201,0.0182 z"
           id="path10745"
           sodipodi:nodetypes="cccc" /><text
           xml:space="preserve"
           style="font-size:4.93889px;line-height:1.25;font-family:Arial;-inkscape-font-specification:Arial;fill:#000000;stroke-width:0.264583"
           x="-168.63939"
           y="132.90433"
           id="text10749"
           transform="rotate(-90)"><tspan
             sodipodi:role="line"
             id="tspan10747"
             style="font-style:normal;font-variant:normal;font-weight:600;font-stretch:normal;font-size:4.93889px;font-family:Inter;-inkscape-font-specification:'Inter Semi-Bold';fill:#000000;stroke-width:0.264583"
             x="-168.63939"
             y="132.90433">PHASE 1</tspan></text><text
           xml:space="preserve"
           style="font-size:4.23333px;line-height:1.25;font-family:Arial;-inkscape-font-specification:Arial;fill:#000000;stroke-width:0.264583"
           x="146.28043"
           y="139.97742"
           id="text10761"><tspan
             sodipodi:role="line"
             id="tspan10751"
             style="font-style:normal;font-variant:normal;font-weight:600;font-stretch:normal;font-family:Inter;-inkscape-font-specification:'Inter Semi-Bold';fill:#000000;stroke-width:0.264583"
             x="146.28043"
             y="139.97742">1 November</tspan><tspan
             sodipodi:role="line"
             style="font-style:normal;font-variant:normal;font-weight:500;font-stretch:normal;font-family:Inter;-inkscape-font-specification:'Inter Medium';fill:#000000;stroke-width:0.264583"
             x="146.28043"
             y="145.3737"
             id="tspan10753">* Publish candidate slate</tspan><tspan
             sodipodi:role="line"
             style="font-style:normal;font-variant:normal;font-weight:500;font-stretch:normal;font-family:Inter;-inkscape-font-specification:'Inter Medium';fill:#000000;stroke-width:0.264583"
             x="146.28043"
             y="150.76999"
             id="tspan10755">* Campaign begins</tspan><tspan
             sodipodi:role="line"
             style="font-style:normal;font-variant:normal;font-weight:500;font-stretch:normal;font-family:Inter;-inkscape-font-specification:'Inter Medium';fill:#000000;stroke-width:0.264583"
             x="146.28043"
             y="156.16629"
             id="tspan10757" /><tspan
             sodipodi:role="line"
             style="font-style:normal;font-variant:normal;font-weight:normal;font-stretch:normal;font-family:Inter;-inkscape-font-specification:Inter;fill:#000000;stroke-width:0.264583"
             x="146.28043"
             y="161.45795"
             id="tspan10759" /></text></g><g
         id="g11321"
         transform="translate(0,8.9958339)"><path
           style="fill:#fe7f2d;stroke:none;stroke-width:0.476116px;stroke-linecap:butt;stroke-linejoin:miter;stroke-opacity:1"
           d="m 105.24021,187.16291 -26.803054,0.0771 0.0693,-20.24201 z"
           id="path11013" /><path
           style="fill:#fe7f2d;stroke:none;stroke-width:0.446114px;stroke-linecap:butt;stroke-linejoin:miter;stroke-opacity:1"
           d="m 87.426984,153.75943 -0.027,26.7704 -28.940549,0.0841 -0.05867,-26.84583 z"
           id="path11015"
           sodipodi:nodetypes="ccccc" /><path
           style="fill:#fe7f2d;stroke:none;stroke-width:0.446114px;stroke-linecap:butt;stroke-linejoin:miter;stroke-opacity:1"
           d="m 5.0471269,138.25086 66.7237891,-0.0425 0.06542,29.06589 -66.8363151,0.13253 6.7019191,-15.7413 z"
           id="path11017" /><path
           style="fill:#e35a01;stroke:none;stroke-width:0.446114px;stroke-linecap:butt;stroke-linejoin:miter;stroke-opacity:1"
           d="m 58.435818,180.54464 13.382023,-13.42081 -13.425609,0.0364 z"
           id="path11019"
           sodipodi:nodetypes="cccc" /><path
           style="fill:#e35a01;stroke:none;stroke-width:0.222699px;stroke-linecap:butt;stroke-linejoin:miter;stroke-opacity:1"
           d="m 78.450528,187.17784 6.680267,-6.69963 -6.702019,0.0182 z"
           id="path11021"
           sodipodi:nodetypes="cccc" /><text
           xml:space="preserve"
           style="font-size:4.93889px;line-height:1.25;font-family:Arial;-inkscape-font-specification:Arial;fill:#ffffff;stroke-width:0.264583"
           x="-177.7809"
           y="80.521027"
           id="text11025"
           transform="rotate(-90)"><tspan
             sodipodi:role="line"
             id="tspan11023"
             style="font-style:normal;font-variant:normal;font-weight:600;font-stretch:normal;font-size:4.93889px;font-family:Inter;-inkscape-font-specification:'Inter Semi-Bold';fill:#ffffff;stroke-width:0.264583"
             x="-177.7809"
             y="80.521027">PHASE 2</tspan></text><text
           xml:space="preserve"
           style="font-size:4.23333px;line-height:1.25;font-family:Arial;-inkscape-font-specification:Arial;fill:#ffffff;stroke-width:0.264583"
           x="26.153425"
           y="151.21587"
           id="text11037"><tspan
             sodipodi:role="line"
             id="tspan11027"
             style="font-style:normal;font-variant:normal;font-weight:600;font-stretch:normal;font-family:Inter;-inkscape-font-specification:'Inter Semi-Bold';fill:#ffffff;stroke-width:0.264583"
             x="26.153425"
             y="151.21587">1 December</tspan><tspan
             sodipodi:role="line"
             style="font-style:normal;font-variant:normal;font-weight:normal;font-stretch:normal;font-family:Inter;-inkscape-font-specification:Inter;fill:#ffffff;stroke-width:0.264583"
             x="26.153425"
             y="156.61215"
             id="tspan11035">Ballots open</tspan></text></g><g
         id="g11635"
         transform="translate(0,8.9958339)"><path
           style="fill:#3797be;stroke:none;stroke-width:0.476116px;stroke-linecap:butt;stroke-linejoin:miter;stroke-opacity:1"
           d="m 104.61251,216.74667 26.80305,0.0771 -0.0693,-20.242 z"
           id="path11445" /><path
           style="fill:#3797be;stroke:none;stroke-width:0.446114px;stroke-linecap:butt;stroke-linejoin:miter;stroke-opacity:1"
           d="m 122.42574,183.34319 0.027,26.7704 28.94054,0.0841 0.0587,-26.84583 z"
           id="path11447"
           sodipodi:nodetypes="ccccc" /><path
           style="fill:#3797be;stroke:none;stroke-width:0.446114px;stroke-linecap:butt;stroke-linejoin:miter;stroke-opacity:1"
           d="m 204.80559,167.83463 -66.72379,-0.0425 -0.0654,29.06588 66.83632,0.13253 -6.70192,-15.7413 z"
           id="path11449" /><path
           style="fill:#276b86;stroke:none;stroke-width:0.446114px;stroke-linecap:butt;stroke-linejoin:miter;stroke-opacity:1"
           d="m 151.4169,210.12841 -13.38202,-13.42082 13.42561,0.0364 z"
           id="path11451"
           sodipodi:nodetypes="cccc" /><path
           style="fill:#276b86;stroke:none;stroke-width:0.222699px;stroke-linecap:butt;stroke-linejoin:miter;stroke-opacity:1"
           d="m 131.40219,216.7616 -6.68026,-6.69963 6.70201,0.0182 z"
           id="path11453"
           sodipodi:nodetypes="cccc" /><text
           xml:space="preserve"
           style="font-size:4.93889px;line-height:1.25;font-family:Arial;-inkscape-font-specification:Arial;fill:#ffffff;stroke-width:0.264583"
           x="-207.24014"
           y="132.90433"
           id="text11457"
           transform="rotate(-90)"><tspan
             sodipodi:role="line"
             id="tspan11455"
             style="font-style:normal;font-variant:normal;font-weight:600;font-stretch:normal;font-size:4.93889px;font-family:Inter;-inkscape-font-specification:'Inter Semi-Bold';fill:#ffffff;stroke-width:0.264583"
             x="-207.24014"
             y="132.90433">PHASE 2</tspan></text><text
           xml:space="preserve"
           style="font-size:4.23333px;line-height:1.25;font-family:Arial;-inkscape-font-specification:Arial;fill:#ffffff;stroke-width:0.264583"
           x="157.40236"
           y="181.20703"
           id="text11469"><tspan
             sodipodi:role="line"
             id="tspan11459"
             style="font-style:normal;font-variant:normal;font-weight:600;font-stretch:normal;font-family:Inter;-inkscape-font-specification:'Inter Semi-Bold';fill:#ffffff;stroke-width:0.264583"
             x="157.40236"
             y="181.20703">15 December</tspan><tspan
             sodipodi:role="line"
             style="font-style:normal;font-variant:normal;font-weight:500;font-stretch:normal;font-family:Inter;-inkscape-font-specification:'Inter Medium';fill:#ffffff;stroke-width:0.264583"
             x="157.40236"
             y="186.60332"
             id="tspan11465">Ballots closed</tspan><tspan
             sodipodi:role="line"
             style="font-style:normal;font-variant:normal;font-weight:normal;font-stretch:normal;font-family:Inter;-inkscape-font-specification:Inter;fill:#ffffff;stroke-width:0.264583"
             x="157.40236"
             y="191.89499"
             id="tspan11467" /></text></g><g
         id="g11791"
         transform="translate(0,67.73337)"><path
           style="fill:#35b9ab;stroke:none;stroke-width:0.476116px;stroke-linecap:butt;stroke-linejoin:miter;stroke-opacity:1"
           d="m 105.24021,187.16291 -26.803054,0.0771 0.0693,-20.24201 z"
           id="path11771" /><path
           style="fill:#35b9ab;stroke:none;stroke-width:0.446114px;stroke-linecap:butt;stroke-linejoin:miter;stroke-opacity:1"
           d="m 87.426984,153.75943 -0.027,26.7704 -28.940549,0.0841 -0.05867,-26.84583 z"
           id="path11773"
           sodipodi:nodetypes="ccccc" /><path
           style="fill:#35b9ab;stroke:none;stroke-width:0.446114px;stroke-linecap:butt;stroke-linejoin:miter;stroke-opacity:1"
           d="m 5.0471269,138.25086 66.7237891,-0.0425 0.06542,29.06589 -66.8363151,0.13253 6.7019191,-15.7413 z"
           id="path11775" /><path
           style="fill:#258278;stroke:none;stroke-width:0.446114px;stroke-linecap:butt;stroke-linejoin:miter;stroke-opacity:1"
           d="m 58.435818,180.54464 13.382023,-13.42081 -13.425609,0.0364 z"
           id="path11777"
           sodipodi:nodetypes="cccc" /><path
           style="fill:#258278;stroke:none;stroke-width:0.222699px;stroke-linecap:butt;stroke-linejoin:miter;stroke-opacity:1"
           d="m 78.450528,187.17784 6.680267,-6.69963 -6.702019,0.0182 z"
           id="path11779"
           sodipodi:nodetypes="cccc" /><text
           xml:space="preserve"
           style="font-size:4.93889px;line-height:1.25;font-family:Arial;-inkscape-font-specification:Arial;fill:#ffffff;stroke-width:0.264583"
           x="-177.7809"
           y="80.521027"
           id="text11783"
           transform="rotate(-90)"><tspan
             sodipodi:role="line"
             id="tspan11781"
             style="font-style:normal;font-variant:normal;font-weight:600;font-stretch:normal;font-size:4.93889px;font-family:Inter;-inkscape-font-specification:'Inter Semi-Bold';fill:#ffffff;stroke-width:0.264583"
             x="-177.7809"
             y="80.521027">PHASE 2</tspan></text><text
           xml:space="preserve"
           style="font-size:4.23333px;line-height:1.25;font-family:Arial;-inkscape-font-specification:Arial;fill:#ffffff;stroke-width:0.264583"
           x="20.582151"
           y="151.64281"
           id="text11789"><tspan
             sodipodi:role="line"
             id="tspan11785"
             style="font-style:normal;font-variant:normal;font-weight:600;font-stretch:normal;font-family:Inter;-inkscape-font-specification:'Inter Semi-Bold';fill:#ffffff;stroke-width:0.264583"
             x="20.582151"
             y="151.64281">16 December</tspan><tspan
             sodipodi:role="line"
             style="font-style:normal;font-variant:normal;font-weight:normal;font-stretch:normal;font-family:Inter;-inkscape-font-specification:Inter;fill:#ffffff;stroke-width:0.264583"
             x="20.582151"
             y="157.03909"
             id="tspan11787">Result announced</tspan></text></g><circle
         style="fill:#ffffff;stroke:#acb2b7;stroke-width:1;stroke-linecap:round;stroke-linejoin:round;stroke-dasharray:none"
         id="path13146"
         cx="104.98131"
         cy="-137.93074"
         transform="scale(1,-1)"
         r="1.8041073" /><circle
         style="fill:#ffffff;stroke:#acb2b7;stroke-width:1;stroke-linecap:round;stroke-linejoin:round;stroke-dasharray:none"
         id="circle13148"
         cx="104.98131"
         cy="-167.03452"
         transform="scale(1,-1)"
         r="1.8041073" /><circle
         style="fill:#ffffff;stroke:#acb2b7;stroke-width:1;stroke-linecap:round;stroke-linejoin:round;stroke-dasharray:none"
         id="circle13150"
         cx="104.98131"
         cy="-196.13829"
         transform="scale(1,-1)"
         r="1.8041073" /><circle
         style="fill:#ffffff;stroke:#acb2b7;stroke-width:1;stroke-linecap:round;stroke-linejoin:round;stroke-dasharray:none"
         id="circle13152"
         cx="104.98131"
         cy="-225.77122"
         transform="scale(1,-1)"
         r="1.8041073" /><circle
         style="fill:#ffffff;stroke:#acb2b7;stroke-width:1;stroke-linecap:round;stroke-linejoin:round;stroke-dasharray:none"
         id="circle13154"
         cx="104.98131"
         cy="-254.875"
         transform="scale(1,-1)"
         r="1.8041073" /></g></g></svg>
