<?xml version="1.0" encoding="UTF-8" standalone="no"?>
<!-- Created with Inkscape (http://www.inkscape.org/) -->

<svg
   width="1260"
   height="765"
   id="svg2"
   version="1.1"
   inkscape:version="1.2.1 (9c6d41e410, 2022-07-14)"
   sodipodi:docname="oSAS22-ID-navy.svg"
   inkscape:export-filename="oSAS2-ID-navy.png"
   inkscape:export-xdpi="300"
   inkscape:export-ydpi="300"
   xmlns:inkscape="http://www.inkscape.org/namespaces/inkscape"
   xmlns:sodipodi="http://sodipodi.sourceforge.net/DTD/sodipodi-0.dtd"
   xmlns="http://www.w3.org/2000/svg"
   xmlns:svg="http://www.w3.org/2000/svg"
   xmlns:rdf="http://www.w3.org/1999/02/22-rdf-syntax-ns#"
   xmlns:cc="http://creativecommons.org/ns#"
   xmlns:dc="http://purl.org/dc/elements/1.1/">
  <defs
     id="defs4">
    <clipPath
       clipPathUnits="userSpaceOnUse"
       id="clipPath1505">
      <g
         id="g1511">
        <g
           id="g1509"
           style="stroke-width:1">
          <path
             d="M 99.351011,55.056772 H 275.62837 V 165.39538 H 99.351011 Z"
             id="path1507"
             style="stroke-width:0.999999" />
        </g>
      </g>
    </clipPath>
    <clipPath
       clipPathUnits="userSpaceOnUse"
       id="clipPath1374">
      <g
         id="g1380">
        <g
           id="g1378"
           style="stroke-width:1">
          <path
             d="M 99.351011,55.056772 H 275.62837 V 165.39538 H 99.351011 Z"
             id="path1376"
             style="stroke-width:0.999999" />
        </g>
      </g>
    </clipPath>
    <clipPath
       clipPathUnits="userSpaceOnUse"
       id="clipPath1389">
      <g
         id="g1395">
        <g
           id="g1393"
           style="stroke-width:1">
          <path
             d="M 99.351011,55.056772 H 275.62837 V 165.39538 H 99.351011 Z"
             id="path1391"
             style="stroke-width:0.999999" />
        </g>
      </g>
    </clipPath>
    <clipPath
       clipPathUnits="userSpaceOnUse"
       id="clipPath1479">
      <g
         id="g1485">
        <g
           id="g1483"
           style="stroke-width:1">
          <path
             d="M 99.351011,55.056772 H 275.62837 V 165.39538 H 99.351011 Z"
             id="path1481"
             style="stroke-width:0.999999" />
        </g>
      </g>
    </clipPath>
    <clipPath
       clipPathUnits="userSpaceOnUse"
       id="clipPath1434">
      <g
         id="g1440">
        <g
           id="g1438"
           style="stroke-width:1">
          <path
             d="M 99.351011,55.056772 H 275.62837 V 165.39538 H 99.351011 Z"
             id="path1436"
             style="stroke-width:0.999999" />
        </g>
      </g>
    </clipPath>
    <clipPath
       clipPathUnits="userSpaceOnUse"
       id="clipPath1464">
      <g
         id="g1470">
        <g
           id="g1468"
           style="stroke-width:1">
          <path
             d="M 99.351011,55.056772 H 275.62837 V 165.39538 H 99.351011 Z"
             id="path1466"
             style="stroke-width:0.999999" />
        </g>
      </g>
    </clipPath>
    <clipPath
       clipPathUnits="userSpaceOnUse"
       id="clipPath1449">
      <g
         id="g1455">
        <g
           id="g1453"
           style="stroke-width:1">
          <path
             d="M 99.351011,55.056772 H 275.62837 V 165.39538 H 99.351011 Z"
             id="path1451"
             style="stroke-width:0.999999" />
        </g>
      </g>
    </clipPath>
    <clipPath
       clipPathUnits="userSpaceOnUse"
       id="clipPath1419">
      <g
         id="g1425">
        <g
           id="g1423"
           style="stroke-width:1">
          <path
             d="M 99.351011,55.056772 H 275.62837 V 165.39538 H 99.351011 Z"
             id="path1421"
             style="stroke-width:0.999999" />
        </g>
      </g>
    </clipPath>
    <clipPath
       clipPathUnits="userSpaceOnUse"
       id="clipPath1404">
      <g
         id="g1410">
        <g
           id="g1408"
           style="stroke-width:1">
          <path
             d="M 99.351011,55.056772 H 275.62837 V 165.39538 H 99.351011 Z"
             id="path1406"
             style="stroke-width:0.999999" />
        </g>
      </g>
    </clipPath>
  </defs>
  <sodipodi:namedview
     id="base"
     pagecolor="#ffffff"
     bordercolor="#666666"
     borderopacity="1.0"
     inkscape:pageopacity="0.0"
     inkscape:pageshadow="2"
     inkscape:zoom="0.81562976"
     inkscape:cx="522.90882"
     inkscape:cy="346.97115"
     inkscape:document-units="px"
     inkscape:current-layer="g3908"
     showgrid="false"
     inkscape:window-width="1920"
     inkscape:window-height="1011"
     inkscape:window-x="0"
     inkscape:window-y="32"
     inkscape:window-maximized="1"
     showguides="false"
     inkscape:showpageshadow="2"
     inkscape:pagecheckerboard="0"
     inkscape:deskcolor="#d1d1d1" />
  <metadata
     id="metadata7">
    <rdf:RDF>
      <cc:Work
         rdf:about="">
        <dc:format>image/svg+xml</dc:format>
        <dc:type
           rdf:resource="http://purl.org/dc/dcmitype/StillImage" />
      </cc:Work>
    </rdf:RDF>
  </metadata>
  <g
     style="display:inline"
     inkscape:label="oSAS22"
     inkscape:groupmode="layer"
     id="g3908"
     transform="translate(0,-287.36218)">
    <path
       style="color:#000000;display:inline;overflow:visible;visibility:visible;fill:#173f4f;fill-opacity:1;fill-rule:nonzero;stroke:none;stroke-width:2.5;marker:none;enable-background:accumulate"
       d="m 804.41968,362.73787 -17.5,9.0625 c -6.9146,3.57802 -13.43183,6.77763 -19.6875,9.6875 -0.0727,0.0338 -0.14612,0.06 -0.21875,0.0937 -12.61011,5.51976 -25.36577,10.60944 -38.375,15.0625 -0.0219,0.007 -0.0406,0.0238 -0.0625,0.0313 -0.16563,0.0514 -0.33447,0.10521 -0.5,0.15625 -4.1319,1.27418 -8.2286,2.42983 -12.34375,3.46875 -6.71084,1.69423 -14.58613,4.18402 -17.5,5.5625 -11.69447,5.53236 -19.37329,15.23647 -39.5625,49.875 -15.38517,26.39626 -49.48381,87.09065 -50.21875,89.40625 -1.22377,3.85577 1.94357,7.41206 11.125,12.53125 27.81824,15.51031 50.59472,27.53913 61.0625,32.3125 2.34026,1.22673 4.69293,2.4258 7.03125,3.65625 0.43885,-0.60677 0.89177,-1.20704 1.34375,-1.8125 1.3012,-0.56507 2.3834,-1.87296 4.375,-4.84375 1.93575,-2.8875 7.05099,-9.1364 11.375,-13.90625 4.32401,-4.76984 9.41162,-11.63437 11.28125,-15.25 1.86964,-3.61562 3.9321,-6.59175 4.59375,-6.59375 0.47011,-9.9e-4 1.11456,0.86023 1.65625,2.09375 0.12368,2.25779 0.13906,4.52256 0.0625,6.8125 1.44925,58.14108 0.6123,116.31377 1.03125,174.46875 0.0752,39.59374 0.11265,79.18748 0.15625,118.78125 -0.23929,13.41374 -0.63067,17.35839 -1.25,18.90625 -1.56349,3.90756 -1.54795,4.22977 0.34375,6.78125 6.12362,8.25945 20.96306,11.20741 65.78125,13.125 26.69415,1.14215 133.5125,0.50279 155.5,-0.9375 24.86493,-1.62878 38.13073,-4.60303 44.31243,-10.0625 0.4827,-0.28264 0.9628,-0.57411 1.4375,-0.875 4e-4,-0.19793 -4e-4,-0.39581 0,-0.59375 0.185,-0.21852 0.3644,-0.43053 0.5313,-0.65625 1.8716,-2.53148 1.8864,-2.84523 0.3125,-7 -0.358,-0.945 -0.6286,-2.50176 -0.8438,-6.125 0.038,-59.65112 -0.3903,-119.28526 -0.4687,-178.9375 0.1666,-62.19172 0.511,-113.05228 0.875,-128.625 0.121,-1.98359 0.278,-3.96208 0.4687,-5.9375 0.01,-0.0134 0.023,-0.0182 0.031,-0.0313 1.282,-2.08948 2.7579,-0.56112 7.3125,7.0625 2.49909,4.18318 7.64849,10.9085 11.43749,14.9375 3.7891,4.029 8.4158,9.67499 10.2812,12.5625 5.4774,8.47905 2.0486,9.60023 50.125,-16.53125 18.6566,-10.14066 32.7756,-18.41522 33.4063,-19.59375 0.6008,-1.12238 1.041,-3.19376 1,-4.625 -0.073,-2.56238 -29.5544,-55.87209 -52,-94 -24.3252,-41.32083 -28.5088,-45.26468 -55.18749,-52 -0.1246,-0.0315 -0.2505,-0.0621 -0.375,-0.0937 -6.1423,-1.841 -12.3807,-3.4817 -18.4063,-5.46875 -1.2947,-0.42696 -2.6048,-0.87846 -3.875,-1.34375 -1.2701,-0.46528 -2.5112,-0.95397 -3.75,-1.46875 -11.00411,-4.03755 -21.69156,-8.91978 -32.31243,-13.9375 -0.96162,-0.45431 -1.91404,-0.91914 -2.875,-1.375 -3.3698,-1.66629 -6.84785,-3.4229 -10.4375,-5.28125 l -16.5,-8.53125 -12,0.4375 c -0.32534,0.0121 -0.8644,0.0197 -1.21875,0.0313 -25.45971,-10e-4 -50.91559,-0.10124 -76.375,0.0313 -0.0489,-0.001 -0.10783,10e-4 -0.15625,0 -0.69774,-0.0206 -1.64934,-0.0402 -2.25,-0.0625 l -12,-0.4375 z"
       id="path3910"
       inkscape:connector-curvature="0" />
    <path
       style="fill:#173f4f;fill-opacity:1"
       d="m 372.48679,363.18751 -52.125,0.125 -52.09375,0.15625 -21.40625,10.59375 c -25.9037,12.8568 -44.9287,20.47205 -63.25,25.25 -21.4993,5.60672 -25.74864,7.67361 -34.15625,16.625 -6.8055,7.24551 -10.75665,13.22471 -27.21875,41.375 -26.388901,45.12529 -49.250001,86.77773 -49.250001,89.75 0,1.73163 0.97925,3.74464 2.46875,5.125 2.5326,2.34711 69.298151,38.84658 73.281251,40.0625 3.52821,1.07704 6.1495,-0.26058 8.1875,-4.25 1.0333,-2.02251 5.77215,-7.90084 10.53125,-13.0625 4.9519,-5.37086 10.3741,-12.53498 12.6875,-16.75 2.2232,-4.05084 4.45485,-7.375 4.96875,-7.375 0.5139,0 1.36655,1.17408 1.90625,2.59375 1.1577,3.04465 0.7324,315.89078 -0.4375,321.46875 -0.6831,3.25698 -0.4492,3.85487 2.8125,6.71875 6.3597,5.5839 21.49065,8.57502 51.09375,10.125 22.6417,1.18549 158.58348,0.55558 174.78125,-0.8125 22.53167,-1.90304 34.64567,-5.42789 39.0625,-11.34375 1.86186,-2.49375 1.91165,-2.99635 0.59375,-6.96875 -1.2035,-3.62757 -1.4375,-28.22108 -1.4375,-160.78125 0,-178.51861 -0.50594,-169.07967 8.28125,-153.21875 2.40649,4.34373 7.97286,11.74581 12.71875,16.9375 4.63954,5.07535 9.11764,10.5729 9.96875,12.21875 1.90373,3.6814 4.9651,5.41808 8.125,4.625 4.87257,-1.22294 70.98232,-37.73493 73.78125,-40.75 2.21986,-2.39127 2.69341,-3.68918 2.25,-5.90625 -0.53511,-2.67553 -16.95673,-32.58867 -38.40625,-69.90625 -38.38111,-66.77495 -39.43811,-67.90757 -70.03125,-75.96875 -22.85986,-6.02348 -39.02782,-12.47205 -70.1875,-27.96875 l -17.5,-8.6875 z"
       id="path3912"
       inkscape:connector-curvature="0" />
    <path
       style="opacity:0.5;fill:#000000"
       d="m 805.10233,361.33918 -12,6.21875 c -30.35337,15.70348 -54.12092,25.46516 -75.875,31.15625 -8.31502,2.1753 -17.35827,5.06134 -20.125,6.40625 -9.94653,4.83504 -16.96765,12.53273 -28.6875,31.5 -10.15439,16.43374 -55.32117,95.76859 -59.84375,105.125 -2.6198,5.41991 -2.16129,8.86412 1.625,12.15625 2.36219,2.05391 46.30341,26.41449 65.5,36.3125 11.71209,6.0389 13.74038,5.81091 18.28125,-1.9375 1.41651,-2.41708 5.75768,-7.72328 9.65625,-11.78125 3.89856,-4.05797 9.15557,-10.87113 11.6875,-15.15625 3.3251,-5.62753 4.93062,-7.47549 5.71875,-6.6875 0.77886,0.77872 1.0625,45.78365 1.0625,157.28125 0,133.5401 -0.20189,156.8378 -1.4375,160.5625 -1.26529,3.8141 -1.25653,4.6744 0.0313,6.96875 4.87653,8.68815 19.78045,12.29624 58.40625,14.125 24.89547,1.17869 153.6822,0.49679 171,-0.90625 22.99173,-1.86272 34.98763,-5.26961 40.12503,-11.375 2.0929,-2.48726 2.4378,-3.61921 1.8125,-6.125 -1.0864,-4.35412 -1.6398,-319.73523 -0.5625,-320.8125 0.5056,-0.50563 2.4825,1.98795 4.6561,5.875 2.079,3.7175 7.14059,10.35571 11.24999,14.75 4.1096,4.39429 8.9961,10.36137 10.8439,13.25 3.53,5.51823 5.9471,6.97026 9.9375,5.96875 2.1262,-0.53367 64.0051,-33.73978 72.0936,-38.6875 3.6547,-2.23533 5.8527,-6.822 4.9689,-10.34375 -0.6918,-2.75625 -34.617,-63.32296 -52.4062,-93.5625 -14.5955,-24.81055 -20.1294,-32.81121 -27.0938,-39.1875 -7.0484,-6.45316 -12.2399,-8.80362 -29.12499,-13.28125 -23.3569,-6.19382 -38.81534,-12.37106 -69.50003,-27.71875 l -20,-10 -13.5,0.84375 c -17.62052,1.08643 -57.89754,1.04229 -75,-0.0625 l -13.5,-0.875 z m 2.5625,5.96875 17.21875,1.28125 c 16.62449,1.2532 54.36641,0.97349 72.53125,-0.5625 l 7.3125,-0.625 24.6875,12.03125 c 27.33477,13.31285 45.35178,20.41115 64.18748,25.25 17.75649,4.56162 23.26749,7.26463 30.65619,15.1875 6.5318,7.00378 10.8604,13.6199 27.5938,42.25 23.8607,40.82455 47.7755,84.34269 47.1875,85.875 -0.8486,2.21147 -69.0967,39.625 -72.2813,39.625 -0.946,0 -2.5563,-1.4625 -3.5937,-3.25 -1.0373,-1.7875 -4.5508,-6.3481 -7.8125,-10.15625 -3.2617,-3.80814 -7.0023,-8.55149 -8.3125,-10.53125 -3.7643,-5.68827 -6.5032,-18.06006 -6.5313,-29.5625 -0.022,-9.22638 0.322,-11.04332 4.5313,-23.75 7.3047,-22.05117 11.6668,-46.75 8.25,-46.75 -0.8874,0 -2.014,3.55688 -3.4375,10.75 -3.2577,16.46253 -6.7946,27.63524 -12.84379,40.5625 -7.3093,15.62024 -9.1109,21.0148 -11.4374,34.53125 -1.8796,10.92184 -1.9688,17.1002 -1.9688,164.03125 0,124.70937 0.2758,153.63716 1.375,157.875 1.2705,4.89769 1.2285,5.3043 -0.75,7.125 -4.3632,4.01542 -16.1792,6.70528 -36.12498,8.21875 -13.19702,1.00138 -136.56699,2.01222 -156,1.28125 -22.23713,-0.83643 -43.28664,-2.52107 -49.84375,-4 -6.98746,-1.57599 -14.54512,-4.74074 -15.71875,-6.5625 -0.3247,-0.504 0.0128,-3.22053 0.75,-6.0625 2.09086,-8.06045 1.94485,-306.09177 -0.15625,-320.03125 -1.79339,-11.89798 -5.92846,-24.59723 -11.875,-36.4375 -5.25624,-10.46578 -9.76824,-24.62732 -12.59375,-39.5625 -1.12384,-5.94042 -2.0625,-11.00292 -2.0625,-11.25 0,-0.24708 -0.72047,-0.46875 -1.625,-0.46875 -1.41521,0 -1.57121,0.89608 -1.0625,6.34375 1.00011,10.70998 4.54139,26.08453 9.28125,40.34375 4.1875,12.59749 4.523,14.37565 4.5,23.71875 -0.0286,11.60365 -2.72108,23.96189 -6.46875,29.625 -1.30178,1.96713 -4.93781,6.48547 -8.0625,10.03125 -3.12469,3.54578 -6.54966,8.125 -7.625,10.1875 -1.21753,2.33522 -2.68963,3.75 -3.875,3.75 -1.04693,0 -12.83936,-5.88003 -26.21875,-13.09375 -47.03371,-25.359 -46.37819,-24.95806 -45.9375,-28.5625 0.16798,-1.37392 17.09375,-31.8434 37.125,-66.84375 36.94459,-64.55285 39.28221,-67.12094 67.5,-74.375 22.2926,-5.73084 33.87849,-10.28858 65.75,-25.84375 l 23.78125,-11.59375 z"
       id="path3924"
       inkscape:connector-curvature="0" />
    <path
       style="fill:#1a1a1a"
       d="m 804.41956,362.73787 -17.5,9.0625 c -27.65839,14.31209 -49.24003,22.95912 -71.1875,28.5 -6.71084,1.69423 -14.58613,4.18402 -17.5,5.5625 -11.69447,5.53236 -19.37329,15.23647 -39.5625,49.875 -15.38517,26.39626 -49.48381,87.09065 -50.21875,89.40625 -1.22377,3.85576 1.94357,7.41206 11.125,12.53125 36.26891,20.22204 64.07049,34.5625 67.03125,34.5625 2.81333,0 3.73946,-0.71267 6.78125,-5.25 1.93575,-2.8875 7.05099,-9.13641 11.375,-13.90625 4.32401,-4.76984 9.41162,-11.63437 11.28125,-15.25 1.86964,-3.61562 3.9321,-6.59175 4.59375,-6.59375 0.66164,-0.002 1.67721,1.6875 2.25,3.75 0.70114,2.5247 1.02725,54.29628 1.03125,158.46875 0.005,141.03816 -0.13119,155.11036 -1.625,158.84375 -1.56349,3.90756 -1.54795,4.22976 0.34375,6.78125 6.12362,8.25944 20.96306,11.20741 65.78125,13.125 26.69415,1.14214 133.5125,0.50279 155.5,-0.9375 27.93085,-1.82961 41.22155,-5.34378 46.28125,-12.1875 1.8716,-2.53149 1.8864,-2.84523 0.3125,-7 -1.5093,-3.984 -1.6288,-17.50246 -1.375,-160.84375 0.1531,-86.49338 0.6737,-157.29072 1.1563,-158.28125 1.362,-2.79562 2.7051,-1.65153 7.5937,6.53125 2.49909,4.18319 7.64849,10.9085 11.43749,14.9375 3.7891,4.02901 8.4159,9.675 10.2813,12.5625 5.4774,8.47905 2.0486,9.60023 50.125,-16.53125 18.6566,-10.14065 32.7755,-18.41521 33.4062,-19.59375 0.6008,-1.12237 1.041,-3.19375 1,-4.625 -0.073,-2.56238 -29.5544,-55.87209 -52,-94 -24.3252,-41.32082 -28.5088,-45.26467 -55.18749,-52 -22.1695,-5.59694 -43.31404,-14.10194 -72.03125,-28.96875 l -16.5,-8.53125 -12,0.4375 c -15.48303,0.57559 -64.51697,0.57559 -80,0 l -12,-0.4375 z m 1,4 51.5,0.0937 51.5,0.125 22.5,11.0625 c 27.42661,13.49126 41.40825,19.04239 61.28125,24.3125 18.26839,4.84457 24.08179,7.33353 30.31249,13.0625 8.4744,7.79192 14.9214,17.74677 40.4063,62.34375 29.9158,52.35083 38.1599,67.52477 37.8437,69.6875 -0.199,1.36091 -2.0984,3.20506 -5,4.90625 -12.8843,7.55416 -67.9057,36.90625 -69.1875,36.90625 -0.812,0 -2.8056,-2.13751 -4.4375,-4.75 -1.632,-2.6125 -5.7462,-7.9 -9.125,-11.75 -7.8953,-8.9965 -10.6327,-14.76892 -12.6562,-26.5 -2.15549,-12.49709 -1.43849,-22.09974 2.5625,-33.625 3.496,-10.07042 7.0477,-23.30423 6.9687,-26.03125 -0.029,-1.00838 -1.1914,1.98125 -2.5625,6.65625 -1.371,4.67499 -5.4279,14.75726 -9.03119,22.40625 -3.6032,7.64899 -7.7599,18.22398 -9.2188,23.5 l -2.6562,9.59375 -0.2813,160 c -0.2293,123.23644 -0.027,160.853 0.9063,163.75 1.1122,3.45282 1.0066,3.97888 -1.1563,6.28125 -4.8236,5.13441 -18.7505,7.84142 -48.46875,9.4375 -22.04775,1.18413 -144.1334,1.14408 -165.5,-0.0625 -25.33965,-1.43093 -38.33453,-4.06183 -44.0625,-8.84375 -3.06627,-2.55984 -3.19195,-2.88096 -2.09375,-6.03125 1.58598,-4.54952 1.67572,-312.76333 0.0937,-323.34375 -1.65841,-11.09199 -4.58163,-19.97739 -11.4375,-34.6875 -3.46053,-7.425 -7.28661,-16.79579 -8.5,-20.8125 -1.21339,-4.01672 -2.41669,-7.08331 -2.65625,-6.84375 -0.73611,0.73611 2.37362,12.6312 6.15625,23.5625 4.54813,13.14345 5.34213,22.13332 3.09375,35.03125 -2.16209,12.403 -3.85857,15.91319 -12.75,26.59375 -4.10418,4.92999 -8.47016,10.65625 -9.71875,12.71875 -1.24859,2.0625 -2.90622,3.75 -3.6875,3.75 -0.78127,0 -12.80113,-6.13595 -26.6875,-13.625 -43.66105,-23.54683 -46.69877,-25.33643 -47.34375,-27.90625 -0.45263,-1.80341 3.76096,-10.03484 18.1875,-35.65625 39.19759,-69.61458 50.17325,-87.46283 58.96875,-95.78125 6.89569,-6.52166 12.31175,-8.94016 31.15625,-13.9375 19.33634,-5.12777 35.9623,-11.69628 63.15625,-25 l 21.625,-10.59375 z"
       id="path3926"
       inkscape:connector-curvature="0" />
    <g
       style="fill:#1a1a1a"
       id="g3928"
       transform="translate(-6.3167913,-38.755017)">
      <path
         inkscape:connector-curvature="0"
         id="path3930"
         d="m 378.80358,401.94253 -52.125,0.125 -52.09375,0.15625 -21.40625,10.59375 c -25.9037,12.8568 -44.9287,20.47205 -63.25,25.25 -21.4993,5.60672 -25.7486,7.67361 -34.15621,16.625 -6.8055,7.24551 -10.7567,13.22471 -27.2188,41.375 -26.3889,45.12529 -49.249999,86.77773 -49.249999,89.75 0,1.73163 0.9793,3.74464 2.4688,5.125 2.5326,2.34711 69.298099,38.84658 73.281199,40.0625 3.52821,1.07704 6.14951,-0.26058 8.18751,-4.25 1.0333,-2.02251 5.7722,-7.90084 10.5313,-13.0625 4.9519,-5.37086 10.374,-12.53498 12.6874,-16.75 2.2232,-4.05084 4.4549,-7.375 4.9688,-7.375 0.5139,0 1.3665,1.17408 1.9062,2.59375 1.1577,3.04465 0.7325,315.89078 -0.4374,321.46875 -0.6831,3.25698 -0.4493,3.85487 2.8124,6.71875 6.3597,5.5839 21.4907,8.57502 51.0938,10.125 22.6417,1.18549 158.58348,0.55558 174.78125,-0.8125 22.53167,-1.90304 34.64567,-5.42789 39.0625,-11.34375 1.86186,-2.49375 1.91165,-2.99635 0.59375,-6.96875 -1.2035,-3.62757 -1.4375,-28.22108 -1.4375,-160.78125 0,-178.51861 -0.50594,-169.07967 8.28125,-153.21875 2.40649,4.34373 7.97286,11.74581 12.71875,16.9375 4.63954,5.07535 9.11764,10.5729 9.96875,12.21875 1.90373,3.6814 4.9651,5.41808 8.125,4.625 4.87257,-1.22294 70.98232,-37.73493 73.78125,-40.75 2.21986,-2.39127 2.69341,-3.68918 2.25,-5.90625 -0.53511,-2.67553 -16.95673,-32.58867 -38.40625,-69.90625 -38.38111,-66.77495 -39.43811,-67.90757 -70.03125,-75.96875 -22.85986,-6.02348 -39.02782,-12.47205 -70.1875,-27.96875 l -17.5,-8.6875 z m -2.8125,2.34375 22.40625,11.0625 c 27.60775,13.62012 45.74427,20.82945 65.90625,26.1875 8.525,2.26551 17.525,5.09464 20,6.28125 6.68885,3.2069 14.46393,11.0731 21.46875,21.75 13.45197,20.50377 65.53125,112.39647 65.53125,115.625 0,1.13738 -0.7875,2.75146 -1.75,3.59375 -4.1716,3.65062 -69.44793,38.78125 -72.0625,38.78125 -1.30402,0 -2.90941,-1.6124 -4.71875,-4.75 -1.50654,-2.6125 -5.23187,-7.82098 -8.25,-11.59375 -3.01814,-3.77278 -6.55319,-8.82253 -7.875,-11.1875 -3.33911,-5.97433 -5.508,-17.21789 -5.5,-28.59375 0.006,-8.5902 0.42414,-10.83614 3.9375,-21 4.52008,-13.07621 7.84955,-26.71635 8.625,-35.375 l 0.53125,-6 -1.46875,5 c -0.80679,2.75 -2.82253,9.95 -4.5,16 -1.67746,6.05 -5.67594,16.625 -8.875,23.5 -6.99114,15.02442 -9.53922,22.60052 -11.5625,34.375 -1.32313,7.69996 -1.53125,29.41319 -1.53125,163.1875 0,113.57269 0.30164,155.61013 1.15625,159.3125 0.95236,4.12586 0.90743,5.34814 -0.25,6.75 -3.92951,4.75933 -17.83029,7.90887 -41.5,9.40625 -16.24676,1.0278 -126.40404,2.04691 -144.90625,1.34375 -52.1804,-1.98307 -67.7633,-4.28992 -73.6562,-10.96875 -1.5127,-1.71442 -1.5365,-2.42858 -0.25,-7.375 2.2264,-8.55996 2.1107,-304.6607 -0.125,-319.71875 -1.7547,-11.81767 -5.7247,-23.86448 -11.9376,-36.3125 -4.8568,-9.73133 -7.374,-17.02705 -11.5,-33.125 -1.6195,-6.31981 -2.9437,-9.98117 -2.9687,-8.25 -0.094,6.46078 3.1583,21.08583 7.625,34.25 5.5314,16.30187 6.5357,26.3908 3.9687,40 -1.9604,10.39539 -4.0162,14.63712 -11.6874,24.125 -3.3353,4.125 -7.1768,9.6375 -8.5313,12.25 -1.8293,3.52808 -3.0488,4.75 -4.7187,4.75 -2.46381,0 -68.781809,-35.57332 -72.531309,-38.90625 -1.6336,-1.45162 -2.1161,-2.67609 -1.6563,-4.125 1.2202,-3.84426 40.443499,-73.29383 57.187599,-101.25 17.02171,-28.42011 24.70511,-35.63015 42.28121,-39.6875 21.7485,-5.02051 44.2128,-13.70255 74.5,-28.78125 l 21,-10.46875 12,0.875 c 15.65023,1.11878 59.81928,1.09967 74.59375,-0.0313 l 11.59375,-0.90625 z"
         style="fill:#1a1a1a" />
      <path
         inkscape:connector-curvature="0"
         id="path3932"
         d="m 371.27233,410.88003 c -2.24772,0.0531 -4.81574,0.26166 -7.71875,0.59375 -18.22302,2.08464 -42.35994,2.49869 -59.25,1 -25.01568,-2.21969 -33,-1.69422 -33,2.21875 0,1.13248 1.73924,1.12981 2.4375,0 1.10478,-1.78758 8.43042,-2.01467 20.0625,-0.625 15.77814,1.88495 50.5229,1.89729 66.53125,0.0313 11.76154,-1.37101 16.08821,-1.16061 21.25,0.96875 1.34882,0.55642 1.59582,0.35195 1.125,-0.875 -0.90568,-2.36018 -4.69435,-3.4718 -11.4375,-3.3125 z"
         style="fill:#1a1a1a" />
      <path
         inkscape:connector-curvature="0"
         id="path3934"
         d="m 377.58483,431.66128 c -0.30926,-0.014 -1.65076,1.12727 -3.5,3.03125 -5.2422,5.39739 -14.4307,10.14586 -24.28125,12.5625 -10.57844,2.59521 -36.35704,2.33588 -46.65625,-0.46875 -10.17217,-2.77003 -17.04896,-6.39271 -22.4375,-11.78125 -3.67212,-3.67212 -4.20839,-3.93053 -3,-1.59375 3.98922,7.7143 16.56864,15.05193 30.09375,17.59375 5.60592,1.05352 12.33927,1.39559 22.5,1.125 15.5909,-0.41519 22.80468,-1.82472 31.9375,-6.25 5.22509,-2.53181 13.12994,-9.68379 15.28125,-13.8125 0.14329,-0.275 0.16559,-0.40158 0.0625,-0.40625 z"
         style="fill:#1a1a1a" />
    </g>
    <rect
       inkscape:export-ydpi="90"
       inkscape:export-xdpi="90"
       inkscape:export-filename="/media/winardiaris/Data/AA/2015.gnome.asia/logo/Logo_blue.png"
       y="1100.1171"
       x="114.33783"
       height="350.24646"
       width="916.02924"
       id="rect4098"
       style="color:#000000;display:inline;overflow:visible;visibility:visible;opacity:0;fill:#000000;fill-opacity:1;fill-rule:nonzero;stroke:none;stroke-width:5;marker:none;enable-background:accumulate" />
    <g
       id="g3914"
       style="opacity:0.5;fill:#1a1a1a"
       transform="translate(-6.4119613,-38.705277)">
      <path
         inkscape:connector-curvature="0"
         id="path3916"
         d="m 275.65625,399.95593 -13.8125,7.15625 c -28.89269,14.95077 -52.78564,24.42698 -80.34375,31.875 -5.225,1.41214 -11.525,3.53776 -14,4.71875 -6.00025,2.86314 -14.75988,11.31413 -20.8125,20.09375 -8.52559,12.36678 -61.13101,103.85393 -66.84375,116.25 -1.968863,4.27223 -2.153137,5.59676 -1.25,8.1875 0.592339,1.69919 2.278653,3.89771 3.75,4.875 1.471347,0.9773 18.18125,10.22938 37.15625,20.5625 39.35119,21.42927 40.86986,21.87575 45.03125,13.71875 1.06886,-2.09514 5.75054,-7.88813 10.40625,-12.875 4.65571,-4.98688 10.12566,-11.98735 12.125,-15.5625 1.99935,-3.57516 3.97555,-6.5 4.40625,-6.5 0.4307,0 1.06534,1.6875 1.40625,3.75 0.34091,2.0625 0.619,72.65665 0.625,156.875 0.009,131.79827 -0.17924,153.71496 -1.4375,157.28125 -1.66805,4.72778 -1.28942,6.47848 2.28125,10.34375 3.15955,3.42023 10.79503,6.32071 21.5,8.1875 8.46858,1.47679 39.46144,3.39992 64.15625,3.96875 7.7,0.17735 36.55729,0.16145 64.125,-0.0313 83.85793,-0.58618 106.45279,-2.90029 115.96875,-11.875 3.37628,-3.18423 3.58583,-3.73076 2.875,-7.21875 -0.86952,-4.2669 -1.81492,-315.54419 -0.96875,-319.03125 0.30028,-1.2375 0.87923,-2.22575 1.28125,-2.21875 0.40202,0.007 2.17555,2.63532 3.9375,5.84375 1.76195,3.20843 7.07093,10.04621 11.8125,15.21875 4.74158,5.17254 9.50173,11.08089 10.5625,13.125 2.35635,4.5407 5.15732,6.16333 9.4375,5.46875 1.78648,-0.28991 14.22442,-6.4747 27.625,-13.75 13.40059,-7.2753 28.84375,-15.64692 34.34375,-18.625 11.51452,-6.23476 15.5,-9.92866 15.5,-14.375 0,-2.99249 -5.52444,-13.42193 -30,-56.46875 -39.70987,-69.84042 -45.53713,-78.20901 -59.3125,-84.9375 -3.93693,-1.92297 -13.9375,-5.28527 -22.1875,-7.46875 -20.01247,-5.29659 -36.44625,-11.86047 -63.5,-25.34375 l -22.5,-11.21875 -11,0.46875 c -14.56026,0.58943 -67.04973,0.58477 -81.15625,0 l -11.1875,-0.46875 z m 1.34375,6.1875 10,0.40625 c 12.44244,0.47523 67.51827,0.49143 81,0.0313 l 10,-0.34375 13.5,7.0625 c 26.74458,13.96031 51.46457,23.92247 73.625,29.71875 7.6367,1.99745 16.125,4.73683 18.875,6.09375 13.0335,6.43105 20.50882,17.62455 67.53125,101.21875 12.78589,22.73014 18.95663,34.64602 18.5625,35.84375 -0.32475,0.98691 -4.98619,4.22628 -10.34375,7.1875 -25.00611,13.82135 -61.14785,33.09375 -62.03125,33.09375 -0.94891,0 -5.04429,-6.23352 -13.96875,-21.28125 -7.886,-13.29675 -8.16034,-20.24673 -1.21875,-31.9375 7.86997,-13.25429 9.05692,-16.0722 9.6875,-23.59375 0.70033,-8.35356 -0.83039,-9.75859 -2.65625,-2.4375 -1.48453,5.95249 -5.6663,13.25 -7.59375,13.25 -2.00859,0 -1.8529,-3.77674 0.59375,-15.625 2.63723,-12.77124 4.76367,-40.95508 3.21875,-42.5 -1.84787,-1.84787 -3.0511,-0.13193 -3.78125,5.375 -1.63925,12.3634 -7.50988,31.94214 -13.4375,44.75 -7.37601,15.9374 -9.56863,22.27673 -11.53125,33.53125 -1.31909,7.56421 -1.53125,29.6443 -1.53125,165.46875 0,112.56913 0.32503,157.61146 1.125,159.90625 1.50096,4.30564 -0.47465,6.41074 -8.46875,9 -8.39928,2.72049 -17.78108,3.87673 -40.65625,5.0625 -17.02125,0.88233 -138.15499,1.18187 -154.5,0.375 -30.82095,-1.52147 -44.52089,-3.54833 -51.71875,-7.59375 -3.73963,-2.10179 -3.87745,-2.34567 -3.09375,-5.71875 0.45069,-1.93981 0.8125,-75.7563 0.8125,-164.0313 l 0,-160.5 -2.65625,-9.65625 c -1.46714,-5.30857 -5.17982,-14.916 -8.25,-21.375 -6.71837,-14.13396 -10.7319,-26.30131 -14.03125,-42.5625 -1.35575,-6.68193 -2.67226,-12.35975 -2.9375,-12.625 -0.26525,-0.26524 -1.01992,-0.13133 -1.6875,0.28125 -1.79653,1.11032 -0.49321,25.3958 2.09375,38.9375 3.33921,17.47943 3.50873,19.5 1.625,19.5 -2.21869,0 -6.0675,-6.28488 -8.28125,-13.5 l -1.84375,-6 -0.3125,5.71875 c -0.41534,7.81089 0.91069,11.99511 6.90625,21.84375 6.67628,10.96684 8.17326,15.23533 7.5,21.25 -0.57996,5.18119 -5.80202,16.34089 -11.15625,23.84375 -1.82917,2.56322 -4.25875,6.50072 -5.40625,8.75 -1.1475,2.24928 -2.60276,4.09375 -3.25,4.09375 -0.64725,0 -13.59592,-6.70785 -28.75,-14.90625 -42.694307,-23.09775 -43.517589,-23.57551 -43.84375,-25.75 -0.293647,-1.95773 14.621837,-29.3018 40.28125,-73.84375 33.58707,-58.3035 36.11917,-61.20353 59.15625,-67.40625 28.88742,-7.77793 42.90709,-13.23239 73.84375,-28.8125 l 19,-9.59375 z"
         style="fill:#1a1a1a" />
      <path
         id="path3918"
         d="m 312.01489,466.39503 c -16.99963,-2.3242 -30.59381,-8.94005 -39.7231,-19.33196 -4.47452,-5.09336 -3.13511,-5.37243 1.9731,-0.41111 10.10945,9.81877 21.1061,14.14527 40.43645,15.90925 14.45215,1.31882 34.20061,-0.0466 43.86583,-3.033 7.83372,-2.42046 16.92565,-7.74096 22.85731,-13.37587 3.96658,-3.76813 4.18937,-3.86749 2.21757,-0.98907 -5.82061,8.49693 -20.09891,17.16186 -32.62716,19.80012 -8.98895,1.89294 -29.98788,2.66378 -39,1.43164 z"
         style="fill:#1a1a1a"
         inkscape:connector-curvature="0" />
      <path
         id="path3920"
         d="m 311.82988,453.52154 c -8.30482,-1.31963 -18.44791,-4.74169 -23.41577,-7.89996 -10.07754,-6.40671 -17.38873,-17.05228 -18.57184,-27.04184 -0.51964,-4.3875 -0.32914,-4.97243 2.30306,-7.07169 2.79939,-2.2326 3.18745,-2.26747 15.86956,-1.42591 13.57773,0.901 54.7406,1.06565 79.32822,0.31731 14.27176,-0.43437 14.33616,-0.42634 16.34194,2.03823 2.59077,3.18338 1.9278,8.1783 -2.21622,16.69738 -5.34633,10.9907 -16.64696,19.29731 -31.13018,22.88248 -7.28811,1.80409 -30.8331,2.72367 -38.50877,1.504 z"
         style="fill:#1a1a1a"
         inkscape:connector-curvature="0" />
      <path
         id="path3922"
         d="m 276.31867,418.25958 c 1.58,-1.58 9.9298,-1.56917 30.36514,0.0394 13.7122,1.07936 20.36391,1.08185 37.5,0.014 25.04873,-1.56087 32.81298,-1.52453 34.84644,0.16308 1.80448,1.49759 2.97701,0.71274 2.151,-1.43981 -0.97091,-2.53015 -5.60402,-2.97317 -18.16636,-1.7371 -15.55397,1.53044 -55.59193,1.51648 -71.23792,-0.0248 -13.02005,-1.28264 -17.47165,-0.67688 -18.07569,2.45966 -0.38628,2.00578 0.88242,2.26053 2.61739,0.52556 z"
         style="fill:#1a1a1a"
         inkscape:connector-curvature="0" />
    </g>
    <g
       transform="matrix(0.15625,0,0,0.15625,796.73057,326.81195)"
       id="layer1"
       inkscape:label="Layer 1"
       style="fill:#ffffff">
      <path
         inkscape:connector-curvature="0"
         style="clip-rule:evenodd;fill:#ffffff;fill-opacity:1;fill-rule:evenodd"
         id="Geeko"
         d="m 523.71454,442.05319 c -3.3113,-0.11926 -6.4507,1.05056 -8.8499,3.30076 -2.3993,2.2502 -3.8147,5.2984 -3.9147,8.59916 -0.2297,6.82075 5.1108,12.55937 11.9158,12.81017 3.3095,0.1 6.4647,-1.06985 8.878,-3.32005 2.4098,-2.26072 3.7953,-5.31068 3.9006,-8.59916 0.2297,-6.819 -5.109,-12.54885 -11.9298,-12.79088 z m 2.0205,13.51171 c -3.0307,0 -5.4791,-1.63985 -5.4791,-3.64977 0,-2.02922 2.4484,-3.6603 5.4791,-3.6603 3.0306,0 5.486,1.63108 5.486,3.6603 0,2.00992 -2.4571,3.64977 -5.486,3.64977 z m 27.1532,15.79875 c 0.805,-0.53142 1.3961,-0.97164 1.6451,-1.06985 l 0.2683,-0.41918 c -0.6805,-4.27941 -7.0592,-25.02929 -11.8841,-30.01901 -1.3294,-1.35924 -2.394,-2.69919 -4.5495,-3.96021 -17.4544,-10.17062 -58.863,-16.30912 -60.8027,-16.58974 l -0.3297,0.0912 -0.1246,0.29991 c 0,0 -0.1596,8.57987 -0.1841,9.53923 -4.2286,-1.42062 -34.9719,-11.35096 -63.7913,-12.35066 -24.44,-0.85939 -60.0328,-4.01984 -107.1958,24.98019 l -1.3943,0.86815 c -22.1898,13.84145 -37.5097,30.90998 -45.5178,50.73909 -2.5116,6.24022 -5.8895,20.32019 -2.5414,33.56882 1.4417,5.79123 4.1304,11.61053 7.7556,16.81949 8.194,11.77013 21.9442,19.58006 36.7486,20.89896 20.9042,1.86961 36.7327,-7.51879 42.3626,-25.09945 3.8708,-12.12968 0,-29.92781 -14.8394,-39.00753 -12.07,-7.39075 -25.0486,-5.71056 -32.5779,-0.7296 -6.5313,4.33027 -10.2302,11.05982 -10.1653,18.45056 0.1508,13.11009 11.4439,20.07816 19.5643,20.09921 2.3589,0 4.7284,-0.41041 7.3995,-1.28032 0.9506,-0.28939 1.845,-0.64893 2.8307,-1.25927 l 0.3087,-0.18065 0.1947,-0.12978 -0.065,0.0386 c 1.8503,-1.26102 2.964,-3.31128 2.964,-5.51062 0,-0.59981 -0.084,-1.2084 -0.2561,-1.8205 -0.9593,-3.32005 -4.239,-5.32822 -7.638,-4.70911 l -0.4595,0.10874 -0.6209,0.18942 -0.9015,0.31043 c -1.8696,0.45951 -3.2692,0.49985 -3.5691,0.51038 -0.9506,-0.0614 -5.6246,-1.46097 -5.6246,-6.58048 v -0.0702 c 0,-1.88013 0.7542,-3.19903 1.1698,-3.91986 1.454,-2.28002 5.4352,-4.51794 10.8143,-4.04966 7.0593,0.61034 12.149,4.23031 15.5199,11.05982 3.1289,6.34896 2.3098,14.15888 -2.1099,19.87997 -4.3899,5.66846 -12.2051,8.07826 -22.5985,6.9593 -10.481,-1.1593 -19.3397,-7.19081 -24.3031,-16.57921 -4.8565,-9.17793 -5.1213,-20.05885 -0.6858,-28.41774 10.6091,-20.02905 30.6486,-19.82034 41.6366,-17.92091 16.26,2.8202 34.7579,17.81919 41.3191,35.13852 1.0593,2.76057 1.5995,4.94938 2.0713,6.95053 l 0.7085,2.99033 18.3699,8.96923 0.2403,0.18064 0.4455,-0.0403 0.081,-0.52966 c -0.114,-0.4104 -0.3806,-0.78924 -0.805,-5.92979 -0.3491,-4.56178 -1.0594,-17.05099 5.2282,-23.24035 2.4414,-2.41857 6.1613,-4.57757 9.099,-5.26859 12.0402,-2.94122 26.1588,-0.912 39.5074,14.53947 6.9102,7.98005 10.2794,11.6193 11.9701,13.24863 l 0.5893,0.53142 0.6945,0.51914 c 0.5542,0.30167 22.9545,10.62136 22.9545,10.62136 l 0.4612,-0.11049 0.01,-0.4788 c -0.1491,-0.17013 -14.1992,-18.32781 -11.6982,-33.27943 1.9696,-11.90869 11.4474,-10.83007 24.5575,-9.34981 4.2794,0.49984 9.1516,1.05932 14.1957,1.17157 14.0835,0.0895 29.2544,-2.51152 38.6042,-6.60152 6.049,-2.62903 9.9093,-4.37938 12.3278,-6.57871 0.8699,-0.72084 1.3207,-1.89066 1.7907,-3.14993 l 0.3297,-0.83133 c 0.3911,-1.02074 0.9664,-3.17097 1.219,-4.34957 0.1017,-0.51914 0.1613,-1.06809 -0.2087,-1.35923 l -1.2944,0.24027 c -4.1058,2.47119 -14.3693,7.15048 -23.9647,7.35042 -11.9139,0.24028 -35.8979,-11.9806 -38.3989,-13.28021 l -0.2403,-0.27886 c -0.5893,-1.43992 -4.19,-9.94963 -4.9599,-11.74909 17.2702,11.37903 31.594,17.66836 42.5591,18.63824 12.2068,1.08739 21.7215,-5.57376 25.7852,-8.42202 z m -47.3471,-17.4386 c 0.1753,-4.73016 2.1554,-9.12006 5.6141,-12.34014 3.4603,-3.23061 7.9747,-4.90028 12.7084,-4.74945 9.7602,0.34902 17.4298,8.58864 17.0948,18.33833 -0.1841,4.73016 -2.1642,9.12006 -5.6141,12.32962 -3.4603,3.2499 -7.9642,4.91957 -12.7189,4.75997 -9.7497,-0.35954 -17.4106,-8.57987 -17.0843,-18.33833 z" />
      <path
         inkscape:connector-curvature="0"
         style="fill:#ffffff;fill-opacity:1"
         id="path7"
         d="m 376.83604,556.35906 c -7.7836,0 -12.0648,6.58047 -12.0648,11.12998 v 5.84034 c 0,6.69974 5.4738,10.85112 10.5495,10.85112 h 17.8192 c 2.2449,0 2.7149,1.46973 2.7149,2.70971 v 3.76903 c 0,0.39988 -0.081,4.01984 -2.7149,4.01984 h -24.3032 c -2.4151,0 -4.1602,1.6802 -4.1602,3.97951 v 1.04179 c 0,2.29054 1.7451,3.96021 4.1602,3.96021 h 25.6238 c 6.698,0 11.0195,-4.66 11.0195,-11.87888 v -6.30161 c 0,-6.77865 -4.8705,-9.80932 -9.7058,-9.80932 h -17.5334 c -2.6395,0 -3.8356,-1.9801 -3.8356,-3.37968 v -3.47965 c 0,-2.19057 1.4644,-3.46036 4.0251,-3.46036 h 19.4081 c 2.38,0 4.1707,-1.71001 4.1707,-3.97074 v -1.04003 c 0,-2.26949 -1.8205,-3.98126 -4.2513,-3.98126 z" />
      <path
         inkscape:connector-curvature="0"
         style="fill:#ffffff;fill-opacity:1"
         id="path9"
         d="m 449.69824,556.35906 c -2.301,0 -4.1548,1.86961 -4.1548,4.17067 v 29.83837 c 0,2.39051 -1.9503,4.31098 -4.311,4.31098 h -13.5451 c -2.3694,0 -4.3092,-1.92047 -4.3092,-4.31098 v -29.83837 c 0,-2.30106 -1.8696,-4.17067 -4.1689,-4.17067 h -1.3101 c -2.3344,0 -4.1707,1.84155 -4.1707,4.17067 v 30.96786 c 0,7.2101 5.6737,12.44011 13.4889,12.44011 h 14.4851 c 7.8047,0 13.4749,-5.22825 13.4749,-12.44011 v -30.96786 c 0,-2.32912 -1.8293,-4.17067 -4.1602,-4.17067 z" />
      <path
         inkscape:connector-curvature="0"
         style="fill:#ffffff;fill-opacity:1"
         id="path11"
         d="m 475.63084,556.35906 c -7.7801,0 -12.0736,6.58047 -12.0736,11.12998 v 5.84034 c 0,6.69974 5.4843,10.85112 10.5635,10.85112 h 17.8139 c 2.2485,0 2.7203,1.46973 2.7203,2.70971 v 3.76903 c 0,0.39988 -0.081,4.01984 -2.7203,4.01984 h -24.3137 c -2.4045,0 -4.1601,1.6802 -4.1601,3.97951 v 1.04179 c 0,2.29054 1.7556,3.96021 4.1601,3.96021 h 25.6326 c 6.6998,0 11.0406,-4.66 11.0406,-11.87888 v -6.30161 c 0,-6.77865 -4.8845,-9.80932 -9.7199,-9.80932 h -17.5333 c -2.6466,0 -3.8392,-1.9801 -3.8392,-3.37968 v -3.47965 c 0,-2.19057 1.4645,-3.46036 4.0251,-3.46036 h 19.4187 c 2.3747,0 4.1584,-1.71001 4.1584,-3.97074 v -1.04003 c 0,-2.26949 -1.8188,-3.98126 -4.2601,-3.98126 z" />
      <path
         inkscape:connector-curvature="0"
         style="fill:#ffffff;fill-opacity:1"
         id="path13"
         d="m 516.59564,556.35906 c -2.3098,0 -4.0549,1.71177 -4.0549,3.98126 v 39.3583 c 0,2.25897 1.7047,3.96021 3.9637,3.96021 h 31.3642 c 2.4151,0 4.1602,-1.66967 4.1602,-3.96021 v -1.04179 c 0,-2.2993 -1.7451,-3.9795 -4.1602,-3.9795 0,0 -24.5329,0 -25.6869,0 0,-1.02074 0,-9.01132 0,-10.01978 1.1435,0 18.8223,0 18.8223,0 2.4098,0 4.1602,-1.69072 4.1602,-3.98126 v -1.04004 c 0,-2.30106 -1.7504,-3.97073 -4.1602,-3.97073 0,0 -17.6788,0 -18.8223,0 0,-1.02951 0,-9.29018 0,-10.3197 1.1435,0 24.3821,0 24.3821,0 2.4063,0 4.1601,-1.65914 4.1601,-3.97073 v -1.04003 c 0,-2.30107 -1.7538,-3.98126 -4.1601,-3.98126 h -29.9682 z" />
      <g
         transform="matrix(1.7538571,0,0,1.7538571,-611.60275,-134.12571)"
         style="fill:#ffffff;fill-opacity:1"
         id="g15">
        <path
           inkscape:connector-curvature="0"
           style="fill:#ffffff;fill-opacity:1"
           id="path17"
           d="m 491.254,404.369 c -2.241,0 -4.065,1.744 -4.065,3.894 v 8.461 c 0,2.184 1.765,3.963 3.929,3.963 h 5.473 c 2.164,0 3.929,-1.779 3.929,-3.963 v -8.461 c 0,-2.149 -1.825,-3.894 -4.065,-3.894 z m -1.184,12.019 v -7.726 c 0,-0.906 0.744,-1.647 1.654,-1.647 h 4.264 c 0.89,0 1.648,0.758 1.648,1.647 v 7.726 c 0,0.912 -0.738,1.653 -1.648,1.653 h -4.296 c -0.912,0 -1.622,-0.725 -1.622,-1.653 z" />
        <path
           inkscape:connector-curvature="0"
           style="fill:#ffffff;fill-opacity:1"
           id="path19"
           d="m 512.91,404.271 c -1.578,0 -2.768,0.564 -3.723,1.026 -0.582,0.279 -1.086,0.52 -1.477,0.52 -0.177,0 -0.328,-0.08 -0.408,-0.211 l -0.364,-0.696 c -0.091,-0.183 -0.456,-0.541 -0.907,-0.541 h -0.541 c -0.52,0 -0.936,0.467 -0.936,1.037 v 21.461 c 0,0.673 0.531,1.203 1.203,1.203 h 0.468 c 0.667,0 1.209,-0.536 1.209,-1.203 v -7.121 c 0,-0.211 0.137,-0.439 0.276,-0.439 0.391,0 0.895,0.229 1.477,0.496 0.955,0.439 2.145,0.98 3.723,0.98 h 0.505 c 2.794,0 4.532,-1.597 4.532,-4.162 v -8.192 c 0,-2.526 -1.775,-4.157 -4.532,-4.157 h -0.505 z m -5.475,11.952 v -7.39 c 0,-1.021 0.798,-1.818 1.818,-1.818 h 3.997 c 1.021,0 1.818,0.798 1.818,1.818 v 7.39 c 0,1.003 -0.818,1.818 -1.818,1.818 h -3.997 c -1.001,0 -1.818,-0.815 -1.818,-1.818 z" />
        <path
           inkscape:connector-curvature="0"
           style="fill:#ffffff;fill-opacity:1"
           id="path21"
           d="m 526.044,404.369 c -2.241,0 -4.06,1.744 -4.06,3.894 v 8.398 c 0,2.178 1.768,4.025 3.854,4.025 h 5.647 c 0.698,0 1.203,-0.484 1.203,-1.141 v -0.37 c 0,-0.661 -0.505,-1.135 -1.203,-1.135 h -4.639 c -1.3,0 -1.986,-0.639 -1.986,-1.854 0,0 0,-2.115 0,-2.457 0.379,0 8.369,0 8.369,0 1.346,0 2.142,-0.821 2.142,-2.212 v -3.256 c 0,-2.149 -1.822,-3.894 -4.054,-3.894 h -5.273 z m -1.183,4.265 c 0,-0.907 0.713,-1.619 1.621,-1.619 h 4.396 c 0.906,0 1.613,0.712 1.613,1.619 0,0 0,2.28 0,2.622 -0.364,0 -7.258,0 -7.631,0 10e-4,-0.342 10e-4,-2.622 10e-4,-2.622 z" />
        <path
           inkscape:connector-curvature="0"
           style="fill:#ffffff;fill-opacity:1"
           id="path23"
           d="m 546.997,404.271 c -1.573,0 -2.76,0.564 -3.718,1.021 -0.596,0.28 -1.105,0.525 -1.521,0.525 -0.183,0 -0.257,-0.023 -0.399,-0.269 l -0.331,-0.604 c -0.19,-0.382 -0.513,-0.575 -0.949,-0.575 h -0.465 c -0.562,0 -0.972,0.438 -0.972,1.037 v 14.077 c 0,0.667 0.527,1.203 1.206,1.203 h 0.465 c 0.667,0 1.211,-0.542 1.211,-1.203 v -10.65 c 0,-0.998 0.815,-1.818 1.813,-1.818 h 3.999 c 1.001,0 1.816,0.82 1.816,1.818 v 10.65 c 0,0.667 0.53,1.203 1.203,1.203 h 0.47 c 0.667,0 1.209,-0.542 1.209,-1.203 v -11.055 c 0,-2.526 -1.776,-4.157 -4.535,-4.157 z" />
      </g>
      <g
         transform="matrix(1.7538571,0,0,1.7538571,-611.60275,-134.12571)"
         style="fill:#ffffff;fill-opacity:1"
         id="g25">
        <path
           inkscape:connector-curvature="0"
           style="fill:#ffffff;fill-opacity:1"
           id="path27"
           d="m 667.456,415.229 c 1.218,0 2.188,0.99 2.188,2.229 0,1.257 -0.971,2.237 -2.198,2.237 -1.218,0 -2.208,-0.98 -2.208,-2.237 0,-1.238 0.99,-2.229 2.208,-2.229 z m -0.01,0.346 c -0.98,0 -1.782,0.842 -1.782,1.882 0,1.06 0.802,1.891 1.792,1.891 0.99,0.011 1.782,-0.831 1.782,-1.881 0,-1.05 -0.792,-1.892 -1.782,-1.892 z m -0.416,3.179 h -0.396 v -2.485 c 0.208,-0.03 0.406,-0.06 0.703,-0.06 0.377,0 0.624,0.079 0.772,0.188 0.149,0.108 0.229,0.276 0.229,0.515 0,0.326 -0.218,0.524 -0.485,0.604 v 0.021 c 0.218,0.039 0.366,0.237 0.416,0.604 0.06,0.387 0.118,0.535 0.158,0.614 h -0.416 c -0.06,-0.079 -0.119,-0.307 -0.168,-0.634 -0.06,-0.316 -0.218,-0.436 -0.535,-0.436 h -0.277 v 1.069 z m 0,-1.377 h 0.287 c 0.327,0 0.604,-0.118 0.604,-0.426 0,-0.218 -0.158,-0.436 -0.604,-0.436 -0.129,0 -0.218,0.01 -0.287,0.021 z" />
      </g>
    </g>
    <g
       id="g2204"
       transform="matrix(0.28501915,0,0,0.28501915,447.14203,412.81942)">
      <path
         id="path1106"
         clip-path="url(#clipPath1505)"
         style="fill:#ffffff;stroke:none;stroke-width:0.289928"
         d="m 228.65886,56.69853 -0.18162,0.05006 -0.0687,0.164935 c 0,0 -0.0881,4.726538 -0.1014,5.254819 -1.00632,-0.338137 -4.74557,-1.55125 -9.93974,-2.864223 -9.2591,10.811796 -10.78536,26.291342 -3.5567,38.780919 1.4156,2.44585 3.10269,4.65474 4.9994,6.61345 1.75343,-4.5098 6.59343,-3.96319 13.0196,-3.23774 2.35771,0.27544 5.04178,0.58392 7.82254,0.64562 7.75621,0.049 16.11255,-1.38323 21.26315,-3.636267 3.33219,-1.448778 5.45885,-2.412725 6.7925,-3.624079 0.47925,-0.397175 0.72694,-1.041808 0.9864,-1.735348 l 0.18162,-0.457583 c 0.21539,-0.562434 0.53248,-1.7469 0.6713,-2.396372 0.0562,-0.285898 0.0894,-0.588643 -0.11488,-0.748946 l -0.71301,0.132205 c -2.26186,1.361189 -7.91585,3.938758 -13.19865,4.048931 -6.56082,0.132759 -19.77625,-6.599418 -21.15341,-7.315544 l -0.13284,-0.153383 c -0.32446,-0.793248 -2.30785,-5.480789 -2.73202,-6.472899 9.51346,6.268856 17.40152,9.73399 23.44452,10.268331 6.7257,0.598758 11.964,-3.070347 14.20624,-4.639361 l -0.006,6.42e-4 c 0.44345,-0.293061 0.76901,-0.535803 0.90618,-0.589787 l 0.14825,-0.230396 c -0.37514,-2.357707 -3.8896,-13.788325 -6.54478,-16.537147 -0.73209,-0.749178 -1.31835,-1.487378 -2.50547,-2.18202 -9.61812,-5.60231 -32.42405,-8.984572 -33.49273,-9.138815 z m 25.49884,9.656724 c 5.377,0.192252 9.6017,4.731258 9.41991,10.102754 -0.10136,2.605597 -1.19221,5.023579 -3.0927,6.791859 -1.90599,1.790315 -4.38693,2.710414 -7.00685,2.622275 -5.37039,-0.197761 -9.59079,-4.726301 -9.409,-10.102754 h -0.005 c 0.0964,-2.605598 1.18715,-5.023846 3.09205,-6.797635 1.90599,-1.779849 4.39337,-2.699129 7.00172,-2.616499 z m -0.0796,2.875132 c -1.82392,-0.06555 -3.55346,0.57933 -4.87554,1.818778 -1.32152,1.239449 -2.10061,2.918501 -2.1557,4.73691 -0.1267,3.757458 2.81511,6.918552 6.56595,7.056269 1.82282,0.05509 3.56115,-0.589597 4.89094,-1.829047 1.32704,-1.245508 2.09016,-2.925019 2.148,-4.736268 0.1267,-3.756356 -2.81427,-6.913792 -6.57173,-7.046 z m 1.11283,3.415504 c 1.66968,0 3.02209,0.898735 3.02209,2.016443 -10e-4,1.107241 -1.35352,2.010668 -3.02209,2.010668 -1.66968,0 -3.01825,-0.903427 -3.01825,-2.010668 0,-1.117708 1.34857,-2.016443 3.01825,-2.016443 z"
         transform="matrix(4.3113968,0,0,4.3113968,-1495.5475,202.17976)"
         sodipodi:nodetypes="cccccsccccccccccccccccccccccccccccccccccccccscsss" />
      <path
         id="path28214"
         style="color:#000000;fill:#173f4f;stroke:none;stroke-width:1;stroke-linecap:round;paint-order:markers fill stroke"
         d="m -458.61107,406.66374 a 232.51185,222.08791 0 0 0 -0.72709,-0.0166 232.51185,222.08791 0 0 0 -2.89678,0.33204 c 1.20708,-0.11446 2.41401,-0.22831 3.62387,-0.31543 z" />
      <path
         id="path28199"
         style="color:#000000;fill:#ffffff;fill-opacity:1;stroke:none;stroke-width:0.999997;stroke-linecap:round;paint-order:markers fill stroke"
         d="m -464.59389,408.30828 a 221.22216,220.67738 0 0 0 -21.45934,2.55965 221.22216,220.67738 0 0 0 -30.48843,8.14908 221.22216,220.67738 0 0 0 -29.01391,12.39409 221.22216,220.67738 0 0 0 -26.95232,16.3889 221.22216,220.67738 0 0 0 -24.33947,20.04554 221.22216,220.67738 0 0 0 -21.23055,23.29805 221.22216,220.67738 0 0 0 -17.6917,26.07487 221.22216,220.67738 0 0 0 -13.79172,28.32109 221.22216,220.67738 0 0 0 -9.61068,29.98996 221.22216,220.67738 0 0 0 -2.08364,12.35836 c 4.19951,25.78897 13.01011,51.11982 26.66566,74.7137 49.96438,86.32768 152.27875,128.60363 248.80246,102.80387 83.04656,-22.19746 144.49753,-90.189 160.05193,-172.22507 2.52425,-13.3132 3.88616,-26.98115 3.88616,-40.89939 a 37.630506,37.537832 0 0 0 -31.96023,-37.05856 37.630506,37.537832 0 0 0 -5.66661,-0.48113 37.630506,37.537832 0 0 0 -37.63236,37.53969 c -1e-5,66.0658 -44.1871,123.5084 -108.1593,140.60749 -63.97221,17.09909 -131.03034,-10.60917 -164.14479,-67.82382 -33.11447,-57.21467 -23.64075,-128.99844 23.19019,-175.71399 22.78245,-22.72636 51.52576,-36.55534 81.62865,-41.04238 z" />
      <path
         id="path28212"
         style="color:#000000;fill:#ffffff;fill-opacity:1;stroke:none;stroke-width:0.999997;stroke-linecap:round;paint-order:markers fill stroke"
         d="m -445.24303,331.71951 c -56.4892,0.60436 -112.24333,22.68988 -154.19785,64.54109 -51.34837,51.22191 -72.98085,123.057 -61.81477,191.62727 a 221.22216,220.67738 0 0 1 2.08364,-12.35836 221.22216,220.67738 0 0 1 9.61068,-29.98996 221.22216,220.67738 0 0 1 13.79172,-28.32109 221.22216,220.67738 0 0 1 17.6917,-26.07487 221.22216,220.67738 0 0 1 21.23055,-23.29805 221.22216,220.67738 0 0 1 24.33947,-20.04554 221.22216,220.67738 0 0 1 26.95232,-16.3889 221.22216,220.67738 0 0 1 29.01391,-12.39409 221.22216,220.67738 0 0 1 30.48843,-8.14908 221.22216,220.67738 0 0 1 21.45934,-2.55965 c 2.36728,-0.35287 4.74257,-0.6135 7.12463,-0.84955 a 221.22216,220.67738 0 0 1 2.75615,-0.32991 221.22216,220.67738 0 0 1 0.69179,0.0164 c 9.66336,-0.72661 19.39694,-0.52272 29.0828,0.69284 18.88972,2.37066 37.54649,8.40158 54.86652,18.37669 a 37.630506,37.537832 0 0 0 24.41943,4.37696 37.630506,37.537832 0 0 0 26.98262,-18.11549 37.630506,37.537832 0 0 0 -13.76972,-51.27822 c -35.15716,-20.24804 -74.15285,-29.89206 -112.80336,-29.47856 z m 36.03381,77.99094 a 221.22216,220.67738 0 0 1 3.40659,0.57187 221.22216,220.67738 0 0 0 -3.40659,-0.57187 z m 30.70618,7.17857 a 221.22216,220.67738 0 0 1 3.30738,1.05575 221.22216,220.67738 0 0 0 -3.30738,-1.05575 z" />
      <path
         id="path28664"
         style="fill:#173f4f;stroke:none;stroke-width:1.33333;stroke-linecap:round;paint-order:markers fill stroke;stop-color:#000000"
         d="m -451.55798,331.83653 c -4.8385,0.18887 -9.66959,0.48185 -14.48175,0.98469 l 6.38882,61.34674 c 0.29347,2.81874 2.75768,4.8475 5.53686,4.65118 2.77923,-0.19632 4.93851,-2.55147 4.83379,-5.38278 z m 16.78992,0.0113 -0.53495,13.5906 c -0.11121,2.83152 2.75298,5.21782 6.4109,5.47923 3.65784,0.26165 6.8327,-1.69235 7.12793,-4.511 l 1.42003,-13.56046 c -4.8042,-0.48881 -9.61087,-0.82338 -14.42391,-0.99837 z m 20.51501,1.66404 -5.6003,42.24112 c -0.37247,2.80958 1.84279,5.39364 4.94943,5.90549 3.10662,0.51183 6.03466,-1.22482 6.5874,-4.00493 l 8.31632,-41.82024 c -4.7345,-0.93171 -9.48685,-1.703 -14.25285,-2.32158 z m -57.90536,0.0908 c -4.80357,0.6367 -9.59308,1.38436 -14.34668,2.33264 l 7.409,36.61331 c 0.56221,2.77737 3.56976,4.4901 6.76119,3.958 3.19145,-0.532 5.47542,-3.12594 5.10116,-5.93579 z m 78.13361,3.56203 -8.2888,36.45651 c -0.62848,2.76393 1.41345,5.55703 4.54976,6.3733 3.13618,0.81626 6.28637,-0.62446 7.09201,-3.34198 l 10.62697,-35.8487 c -4.63379,-1.3698 -9.29272,-2.58122 -13.97994,-3.63913 z m -98.48317,0.10186 c -4.70337,1.07389 -9.37957,2.26808 -14.01029,3.64742 l 12.3255,40.76397 c 0.82024,2.71281 3.9054,4.15993 6.94311,3.35297 3.03769,-0.80703 4.98579,-3.58796 4.34557,-6.34837 z m 118.34468,5.26462 -19.19145,58.75845 c -0.88005,2.69447 0.56025,5.5526 3.19305,6.50246 2.63274,0.95011 5.56665,-0.3311 6.62048,-2.96235 l 22.96915,-57.35289 c -4.49309,-1.79899 -9.02408,-3.45602 -13.59123,-4.94563 z m -138.19807,0.2476 c -4.57273,1.50065 -9.10771,3.12644 -13.58567,4.92646 l 5.16194,12.6967 c 1.06759,2.62634 4.66017,3.6239 8.10114,2.36004 3.44097,-1.26381 5.52748,-4.34678 4.63242,-7.03614 z m -28.86715,11.77545 c -4.30731,2.12274 -8.55581,4.38165 -12.73637,6.79394 l 31.00426,53.48273 c 1.42212,2.45344 4.52156,3.29464 6.99539,1.97223 2.47382,-1.32226 3.48365,-4.35899 2.22246,-6.89845 z m -17.99467,9.9297 c -4.09227,2.51534 -8.11011,5.17903 -12.05539,7.97671 l 21.69521,30.53439 c 1.64236,2.31197 5.08655,2.66199 7.7896,0.8802 2.70316,-1.78173 3.73343,-5.08187 2.24453,-7.49543 z m -17.01871,11.57717 c -3.84139,2.88832 -7.58775,5.93406 -11.26403,9.09626 l 27.82501,32.28397 c 1.85173,2.14855 5.25475,2.22526 7.70405,0.26115 2.44941,-1.96378 3.10398,-5.29591 1.39805,-7.56132 z m -15.90183,13.13689 c -2.49575,2.27108 -4.96059,4.59081 -7.36781,6.99202 -1.03963,1.03706 -1.99038,2.13439 -3.00558,3.18808 l 9.84664,9.42898 c 1.52451,1.46004 3.98874,1.50541 6.20414,0.3962 0.76438,-0.38133 1.50487,-0.90088 2.17835,-1.55421 2.63857,-2.55895 3.29621,-6.22751 1.3842,-8.32319 z m -21.56288,22.7284 c -3.08494,3.73366 -6.03788,7.54261 -8.84578,11.43704 l 50.2756,35.96414 c 2.30826,1.65121 5.47568,1.14989 7.17752,-1.0618 1.70185,-2.21153 1.36481,-5.38602 -0.83003,-7.1845 z m -12.3973,16.42663 c -2.71486,3.99563 -5.26619,8.07497 -7.69583,12.21269 l 32.38286,18.91865 c 2.45143,1.43225 5.7374,0.33119 7.46429,-2.40401 1.72687,-2.73525 1.30265,-6.16408 -1.05064,-7.75124 z m -10.70145,17.53787 c -2.32291,4.22093 -4.51776,8.4945 -6.54874,12.83707 l 38.68064,18.07965 c 2.57285,1.20255 5.71195,-0.12665 7.13903,-2.92657 1.42683,-2.80009 0.65059,-6.10851 -1.83928,-7.47351 z m -9.0553,18.40973 c -1.91923,4.41952 -3.67359,8.89464 -5.29422,13.41478 l 12.84406,4.62099 c 2.67199,0.96189 5.81709,-1.03846 7.17188,-4.43673 1.35491,-3.39827 0.44565,-7.00703 -2.15895,-8.13903 z m -10.34291,29.36553 c -1.27949,4.64984 -2.41976,9.33044 -3.39161,14.04734 l 60.46422,12.53727 c 2.78093,0.57641 5.46873,-1.1552 6.12689,-3.86192 0.65809,-2.70677 -0.93605,-5.47752 -3.67288,-6.23562 z m -4.54427,20.07943 c -0.84466,4.76409 -1.51766,9.55258 -2.04877,14.36088 l 37.11186,4.06255 c 2.17384,0.23801 4.19843,-1.12826 5.21154,-3.19056 0.30245,-0.61697 0.51768,-1.30086 0.62311,-2.03278 0.46026,-3.19454 -1.32311,-6.15291 -4.11959,-6.6509 z m -2.67734,20.4755 c -0.39625,4.80443 -0.67097,9.61832 -0.75286,14.44345 l 42.63757,0.6188 c 2.84012,0.0412 5.15545,-2.45095 5.30529,-5.58096 0.1498,-3.12997 -1.91686,-5.82242 -4.74826,-6.05127 z m 12.89621,20.38748 -13.58833,0.1788 c 0.0514,4.80674 0.26281,9.61175 0.62856,14.41588 l 13.58027,-1.06443 c 2.83198,-0.22183 4.87178,-3.33667 4.70405,-6.99206 -0.16765,-3.65537 -2.48433,-6.57564 -5.32455,-6.53819 z m 412.11223,20.79729 c -2.8235,-0.31858 -5.41994,2.3549 -5.94766,5.97162 -0.52771,3.61659 1.19788,6.91243 3.99547,7.41006 l 15.02228,2.67362 c 0.86023,-4.7366 1.54757,-9.52143 2.10396,-14.34169 z m -362.06263,0.98478 -61.1536,9.41806 c 0.10667,0.6976 0.16504,1.39902 0.27851,2.09596 0.65755,4.03814 1.47032,8.05889 2.35482,12.06966 l 60.45046,-13.32945 c 2.77406,-0.6117 4.51013,-3.30473 3.99264,-6.05682 -0.51751,-2.7521 -3.11503,-4.62993 -5.92283,-4.19741 z m 330.62288,12.17968 c -2.78321,-0.5727 -5.53044,1.44972 -6.26483,4.50823 -0.73447,3.05843 0.79668,6.09609 3.5377,6.84346 l 42.55768,11.60478 c 1.29863,-4.63172 2.4253,-9.32182 3.42193,-14.05827 z m -349.285,8.23805 c -0.66793,-0.13728 -1.36238,-0.13048 -2.0515,0.0412 l -36.42522,9.07702 c 1.16174,4.65058 2.50297,9.27062 3.97616,13.86305 l 35.73868,-11.39845 c 2.7059,-0.86286 4.08202,-4.03369 3.19578,-7.14339 -0.66472,-2.3322 -2.42988,-4.02762 -4.4339,-4.43942 z m 348.11859,9.23653 c -2.02211,0.31431 -3.86884,1.92297 -4.64619,4.22212 -1.03652,3.06568 0.18408,6.30097 2.84566,7.2919 l 36.2707,13.50273 c 1.72821,-4.49426 3.31293,-9.04636 4.74832,-13.66501 l -37.16973,-11.21427 c -0.67998,-0.20512 -1.37474,-0.24223 -2.04876,-0.13756 z m -338.31607,5.21505 c -0.67467,-0.0669 -1.3647,0.008 -2.03487,0.24209 l -40.35453,14.09959 c 1.59151,4.5228 3.37895,8.99817 5.28047,13.44228 l 39.29285,-16.67425 c 2.61374,-1.10918 3.71901,-4.32253 2.58363,-7.24786 -0.85141,-2.19394 -2.74353,-3.66122 -4.76755,-3.86185 z m 310.06106,1.54315 c -1.99658,0.0214 -3.87366,1.20046 -4.72343,3.12188 -1.13318,2.56194 -0.055,5.57392 2.50367,6.80229 l 56.73068,27.23373 c 2.14285,-4.31953 4.16714,-8.70057 6.02768,-13.16438 l -58.53679,-23.614 c -0.65831,-0.26555 -1.33627,-0.38671 -2.00181,-0.37958 z m -275.75074,24.95623 c -0.65345,0.12028 -1.2956,0.3712 -1.89158,0.75635 l -51.93832,33.56841 c 2.63781,4.07189 5.39712,8.03243 8.26944,11.88537 l 49.61112,-36.93508 c 2.27622,-1.69473 2.75654,-4.85377 1.16351,-7.13794 -1.19459,-1.71299 -3.25384,-2.50026 -5.21417,-2.13711 z m -54.43658,0.82792 c -0.69821,-0.0479 -1.38942,0.0649 -2.03486,0.36032 l -12.50484,5.72401 c 2.01374,4.36367 4.23541,8.66224 6.55707,12.92782 l 12.02779,-6.50516 c 2.49747,-1.35091 3.08678,-5.03226 1.44489,-8.31234 -1.23151,-2.46006 -3.39517,-4.05122 -5.49005,-4.19465 z m 326.55856,17.49384 c -1.18235,0.12906 -2.35506,0.64723 -3.31434,1.49359 -0.30787,0.27237 -0.59615,0.57966 -0.85763,0.92144 -1.90174,2.48501 -1.73888,5.87182 0.45774,7.66869 l 33.39759,27.31901 c 3.11801,-3.73591 6.10167,-7.57414 8.96705,-11.50581 l -35.28084,-25.05825 c -0.99653,-0.70776 -2.18722,-0.96799 -3.36957,-0.83896 z m 35.45728,0.8059 c -2.09803,-0.053 -4.4013,1.32584 -5.85662,3.65834 -1.94043,3.10996 -1.69498,6.82909 0.66449,8.40585 l 12.01953,8.03177 c 2.74345,-3.99312 5.37733,-8.06375 7.85583,-12.23199 l -12.69227,-7.31652 c -0.61465,-0.35433 -1.29148,-0.52966 -1.99096,-0.54745 z m -316.04723,7.81722 c -1.39117,-0.24699 -2.80141,0.0313 -3.91549,0.9105 l -29.43522,23.21503 c 2.99727,3.79482 6.07598,7.50804 9.2924,11.07119 l 27.90759,-25.12124 c 2.10916,-1.89837 2.05245,-5.35193 -0.0384,-7.81996 -1.0456,-1.23396 -2.41971,-2.00853 -3.81084,-2.2555 z m 245.40832,1.72465 c -1.3051,-0.0516 -2.6267,0.38442 -3.6701,1.30929 -2.08682,1.84985 -2.35718,5.03085 -0.54039,7.20932 l 39.81403,47.73949 c 3.73975,-3.07798 7.36549,-6.28134 10.88619,-9.58857 l -42.91888,-45.05219 c -0.97836,-1.02701 -2.26574,-1.56577 -3.57085,-1.61739 z m 28.33781,5.81483 c -1.40055,0.18085 -2.80832,0.88972 -3.9101,2.07121 -2.20322,2.3629 -2.42733,5.81087 -0.41366,7.80894 l 26.83235,26.6231 c 3.44583,-3.42195 6.77756,-6.94364 9.98732,-10.57888 l -28.63282,-24.82689 c -1.07192,-0.92952 -2.46276,-1.27831 -3.86309,-1.09745 z m -258.88371,1.38081 c -1.38655,-0.0956 -2.75237,0.32877 -3.78049,1.30648 l -30.94898,29.43149 c 3.33141,3.4899 6.76813,6.85676 10.30165,10.103 l 28.98568,-31.35696 c 1.92592,-2.08367 1.6052,-5.46947 -0.6396,-7.67146 -1.12252,-1.10094 -2.53167,-1.71702 -3.91826,-1.81259 z m 44.03291,9.66559 c -1.96223,-0.31006 -4.01428,0.51696 -5.17839,2.29675 l -33.80848,51.68112 c 4.052,2.6219 8.16861,5.13576 12.37519,7.48447 l 30.34784,-53.76623 c 1.39368,-2.46879 0.55169,-5.55151 -1.83907,-7.00027 -0.59784,-0.36218 -1.24317,-0.59255 -1.89709,-0.69588 z m 128.90272,15.84353 c -0.65498,-0.0598 -1.33185,0.006 -1.99366,0.20901 -2.64696,0.81474 -4.19177,3.58635 -3.44389,6.32088 l 16.28792,59.55884 c 4.71617,-1.28231 9.37002,-2.69671 13.94139,-4.26886 l -20.34419,-58.33484 c -0.69972,-2.00694 -2.48237,-3.30544 -4.44757,-3.48502 z m 35.54839,5.35809 c -0.72428,0.10412 -1.44995,0.33694 -2.1425,0.70694 -2.77024,1.48005 -4.02841,4.63302 -2.77133,7.17362 l 18.91588,38.22516 c 4.36016,-2.12318 8.62524,-4.38545 12.80796,-6.7748 l -21.42757,-36.94884 c -1.06692,-1.83958 -3.20976,-2.69417 -5.38244,-2.38208 z m -101.72865,0.41541 c -2.7855,-0.33817 -5.36153,1.56747 -5.79601,4.36797 l -9.47171,61.04426 c 4.74885,0.74464 9.53339,1.30823 14.33853,1.74381 l 5.51187,-61.52827 c 0.25307,-2.82287 -1.79719,-5.28966 -4.58268,-5.62777 z m -113.72334,1.82916 c -1.5187,-0.0788 -2.91526,0.39845 -3.84926,1.46606 l -9.06919,10.36425 c 3.64174,3.1639 7.39961,6.16919 11.22544,9.07703 l 8.34382,-10.87589 c 1.72653,-2.25058 0.76431,-5.84658 -2.07346,-8.16103 -1.41899,-1.1572 -3.05859,-1.79157 -4.57735,-1.87042 z m 52.62483,5.33066 c -2.23792,-0.25246 -4.38112,0.66423 -5.37404,2.54436 l -17.44886,33.04018 c 4.29073,2.24278 8.6534,4.33611 13.07824,6.29342 l 15.19059,-34.09924 c 1.1538,-2.58981 -0.30321,-5.72101 -3.21509,-7.1296 -0.72794,-0.35216 -1.48476,-0.56494 -2.23084,-0.64913 z m 17.1152,1.88962 c -2.19137,-0.0159 -4.19533,1.11961 -5.00469,3.08624 l -16.19137,39.34748 c 4.48019,1.83522 9.02893,3.50119 13.62155,5.04189 l 13.51117,-40.32941 c 0.9004,-2.68744 -0.77757,-5.64124 -3.71969,-6.73357 -0.73551,-0.27303 -1.48645,-0.40727 -2.21697,-0.4126 z m 133.27329,2.4206 c -0.74934,0.0435 -1.51794,0.21612 -2.26392,0.52815 -2.9832,1.24787 -4.60803,4.29457 -3.59832,6.94248 l 13.30987,34.91067 c 4.55591,-1.71091 9.03674,-3.54698 13.43143,-5.53696 l -15.65387,-34.01155 c -0.88878,-1.93105 -2.97743,-2.96366 -5.22519,-2.83313 z m 44.92626,3.25674 c -1.5206,-0.0715 -3.2181,0.40008 -4.74817,1.41101 -3.06013,2.0219 -4.38296,5.50106 -2.89257,7.91352 l 7.32369,11.85239 c 4.13781,-2.51898 8.16106,-5.19148 12.10492,-7.96306 l -8.10126,-11.37375 c -0.82278,-1.15501 -2.16605,-1.76856 -3.68661,-1.84011 z m -104.22969,5.22886 c -3.14024,0.19483 -5.60224,2.54204 -5.51742,5.37469 l 1.27949,42.62615 c 4.80315,-0.14643 9.615,-0.41343 14.4322,-0.87745 l -4.0452,-42.47488 c -0.26865,-2.82083 -3.00852,-4.84329 -6.14907,-4.64851 z m -16.32637,5.44621 c -3.24014,-0.0962 -5.98714,2.01237 -6.16284,4.84106 l -2.32172,37.39999 c 4.79631,0.30122 9.61226,0.44491 14.44316,0.4318 l -0.0938,-37.47697 c -0.007,-2.83396 -2.62496,-5.09971 -5.86492,-5.19588 z m -50.14884,16.58612 c -2.51651,0.0979 -4.63461,1.34699 -5.25293,3.38057 l -3.95944,13.02407 c 4.61547,1.40798 9.26613,2.70545 13.97155,3.81239 l 3.11311,-13.32942 c 0.64442,-2.75974 -1.71826,-5.6409 -5.26372,-6.58781 -0.8864,-0.23663 -1.76982,-0.33241 -2.60857,-0.2998 z m 89.65404,4.76682 c -0.83113,-0.12169 -1.72085,-0.11971 -2.62796,0.022 -3.62748,0.56654 -6.28346,3.18141 -5.93649,5.99356 l 1.67918,13.60726 c 4.77652,-0.59457 9.55152,-1.35164 14.32192,-2.26654 l -2.56986,-13.43945 c -0.39916,-2.08746 -2.37375,-3.55354 -4.86679,-3.91683 z" />
      <g
         aria-label="SUMMIT 2022"
         transform="matrix(3.8672089,0,0,3.6938344,-983.01376,102.84618)"
         id="text31453"
         style="font-weight:bold;font-size:15.2332px;line-height:1.25;font-family:Quicksand;-inkscape-font-specification:'Quicksand, Bold';fill:#ffffff;stroke:none;stroke-width:0.264583">
        <path
           d="m 96.627493,230.42166 q -1.09679,0 -1.949849,-0.27419 -0.85306,-0.2742 -1.599486,-0.92923 -0.411297,-0.36559 -0.411297,-0.80736 0,-0.35036 0.258965,-0.60933 0.258964,-0.27419 0.624561,-0.27419 0.289431,0 0.517929,0.1828 0.609328,0.50269 1.188189,0.73119 0.578862,0.2285 1.370988,0.2285 0.853059,0 1.462387,-0.38083 0.624562,-0.38083 0.624562,-0.94446 0,-0.6855 -0.609328,-1.06633 -0.609328,-0.39606 -1.934617,-0.59409 -3.336071,-0.48746 -3.336071,-3.10757 0,-0.95969 0.502696,-1.66042 0.502696,-0.71596 1.370988,-1.08156 0.868292,-0.38083 1.934616,-0.38083 0.959692,0 1.797518,0.28943 0.853059,0.28943 1.416688,0.76166 0.441758,0.35037 0.441758,0.80736 0,0.35036 -0.25896,0.62456 -0.258964,0.25897 -0.609328,0.25897 -0.228498,0 -0.411296,-0.1371 -0.396064,-0.3199 -1.112024,-0.57886 -0.700727,-0.2742 -1.264356,-0.2742 -0.959691,0 -1.492853,0.3656 -0.517929,0.35036 -0.517929,0.92922 0,0.65503 0.533162,0.99016 0.548395,0.33513 1.706118,0.54839 1.310056,0.2285 2.086949,0.5941 0.792126,0.35036 1.188187,0.97492 0.39607,0.60933 0.39607,1.62996 0,0.95969 -0.548399,1.69088 -0.533163,0.71596 -1.431921,1.11202 -0.898759,0.38083 -1.934617,0.38083 z"
           id="path16138"
           style="fill:#ffffff;stroke:none" />
        <path
           d="m 109.86512,219.59086 q 0.39606,0 0.63979,0.25896 0.24373,0.25897 0.24373,0.67026 v 5.51442 q 0,1.26436 -0.53316,2.23928 -0.53316,0.97493 -1.49285,1.52332 -0.95969,0.5484 -2.19358,0.5484 -1.23389,0 -2.20882,-0.5484 -0.95969,-0.54839 -1.49285,-1.52332 -0.53316,-0.97492 -0.53316,-2.23928 v -5.51442 q 0,-0.39606 0.27419,-0.65502 0.2742,-0.2742 0.70073,-0.2742 0.3656,0 0.6398,0.2742 0.27419,0.25896 0.27419,0.65502 v 5.51442 q 0,0.7312 0.3199,1.31006 0.3199,0.56363 0.85306,0.86829 0.5484,0.30466 1.17296,0.30466 0.65502,0 1.21865,-0.30466 0.57886,-0.30466 0.91399,-0.86829 0.35037,-0.57886 0.35037,-1.31006 v -5.51442 q 0,-0.41129 0.2285,-0.67026 0.22849,-0.25896 0.62456,-0.25896 z"
           id="path16140"
           style="fill:#ffffff;stroke:none" />
        <path
           d="m 122.28017,219.59086 q 0.38083,0 0.65503,0.2742 0.28943,0.25896 0.28943,0.65502 v 8.82003 q 0,0.39606 -0.25896,0.67026 -0.25897,0.25896 -0.6855,0.25896 -0.42652,0 -0.70072,-0.25896 -0.25897,-0.25897 -0.25897,-0.67026 v -6.13898 l -2.51347,3.83876 q -0.15234,0.1828 -0.35037,0.30467 -0.19803,0.10663 -0.41129,0.0914 -0.19804,0.0152 -0.39607,-0.0914 -0.19803,-0.12187 -0.35036,-0.30467 l -2.51348,-3.97586 v 6.27608 q 0,0.41129 -0.24373,0.67026 -0.24373,0.25896 -0.6398,0.25896 -0.38083,0 -0.62456,-0.25896 -0.24373,-0.2742 -0.24373,-0.67026 v -8.82003 q 0,-0.38083 0.2742,-0.65502 0.28943,-0.2742 0.68549,-0.2742 0.2285,0 0.457,0.12187 0.2285,0.10663 0.35036,0.28943 l 3.32084,5.10312 3.41224,-5.10312 q 0.12186,-0.1828 0.3199,-0.28943 0.21326,-0.12187 0.42652,-0.12187 z"
           id="path16142"
           style="fill:#ffffff;stroke:none" />
        <path
           d="m 134.75614,219.59086 q 0.38083,0 0.65503,0.2742 0.28943,0.25896 0.28943,0.65502 v 8.82003 q 0,0.39606 -0.25897,0.67026 -0.25896,0.25896 -0.68549,0.25896 -0.42653,0 -0.70073,-0.25896 -0.25896,-0.25897 -0.25896,-0.67026 v -6.13898 l -2.51348,3.83876 q -0.15233,0.1828 -0.35036,0.30467 -0.19804,0.10663 -0.4113,0.0914 -0.19803,0.0152 -0.39606,-0.0914 -0.19804,-0.12187 -0.35037,-0.30467 l -2.51348,-3.97586 v 6.27608 q 0,0.41129 -0.24373,0.67026 -0.24373,0.25896 -0.63979,0.25896 -0.38083,0 -0.62456,-0.25896 -0.24373,-0.2742 -0.24373,-0.67026 v -8.82003 q 0,-0.38083 0.27419,-0.65502 0.28943,-0.2742 0.6855,-0.2742 0.2285,0 0.45699,0.12187 0.2285,0.10663 0.35037,0.28943 l 3.32083,5.10312 3.41224,-5.10312 q 0.12187,-0.1828 0.3199,-0.28943 0.21326,-0.12187 0.42653,-0.12187 z"
           id="path16144"
           style="fill:#ffffff;stroke:none" />
        <path
           d="m 139.8897,229.34011 q 0,0.39606 -0.28943,0.67026 -0.28943,0.25896 -0.67026,0.25896 -0.41129,0 -0.68549,-0.25896 -0.25897,-0.2742 -0.25897,-0.67026 v -8.80479 q 0,-0.39607 0.2742,-0.65503 0.2742,-0.2742 0.70073,-0.2742 0.38083,0 0.65503,0.2742 0.27419,0.25896 0.27419,0.65503 z"
           id="path16146"
           style="fill:#ffffff;stroke:none" />
        <path
           d="m 149.18195,219.60609 q 0.4113,0 0.67026,0.24373 0.25897,0.24374 0.25897,0.6398 0,0.39606 -0.25897,0.63979 -0.25896,0.2285 -0.67026,0.2285 h -2.39161 v 7.9822 q 0,0.39606 -0.28943,0.67026 -0.28943,0.25896 -0.71596,0.25896 -0.42653,0 -0.70073,-0.25896 -0.2742,-0.2742 -0.2742,-0.67026 v -7.9822 h -2.39161 q -0.4113,0 -0.67026,-0.24373 -0.25897,-0.24373 -0.25897,-0.63979 0,-0.38083 0.25897,-0.62457 0.2742,-0.24373 0.67026,-0.24373 z"
           id="path16148"
           style="fill:#ffffff;stroke:none" />
        <path
           d="m 161.68838,228.59368 q 0.3656,0 0.60933,0.24373 0.24373,0.24373 0.24373,0.60933 0,0.35036 -0.24373,0.59409 -0.24373,0.2285 -0.60933,0.2285 h -5.17929 q -0.39606,0 -0.62456,-0.24373 -0.2285,-0.24373 -0.2285,-0.62456 0,-0.38083 0.2742,-0.67026 l 3.32084,-3.54934 q 0.56363,-0.60932 0.88352,-1.21865 0.33513,-0.62456 0.33513,-1.14249 0,-0.6855 -0.48746,-1.18819 -0.48746,-0.5027 -1.12726,-0.5027 -0.44176,0 -0.89876,0.30467 -0.44176,0.28943 -0.80735,0.77689 -0.2742,0.3656 -0.70073,0.3656 -0.33513,0 -0.62456,-0.25897 -0.2742,-0.25896 -0.2742,-0.57886 0,-0.2285 0.15233,-0.457 0.15233,-0.24373 0.457,-0.54839 0.57886,-0.57886 1.34052,-0.92923 0.76166,-0.35036 1.46239,-0.35036 1.00539,0 1.76705,0.42653 0.76166,0.42653 1.17295,1.17296 0.4113,0.74642 0.4113,1.69088 0,0.92923 -0.5027,1.91939 -0.48746,0.97492 -1.32528,1.87368 l -1.93462,2.05648 z"
           id="path16150"
           style="fill:#ffffff;stroke:none" />
        <path
           d="m 167.67501,230.42166 q -1.27959,0 -2.20881,-0.68549 -0.91399,-0.68549 -1.38622,-1.91938 -0.47223,-1.24912 -0.47223,-2.87908 0,-1.62995 0.47223,-2.86384 0.47223,-1.24912 1.38622,-1.93462 0.92922,-0.68549 2.20881,-0.68549 1.27959,0 2.19358,0.68549 0.92923,0.6855 1.40146,1.93462 0.47223,1.23389 0.47223,2.86384 0,1.62996 -0.47223,2.87908 -0.47223,1.23389 -1.40146,1.91938 -0.91399,0.68549 -2.19358,0.68549 z m 0,-1.82798 q 0.97493,0 1.52332,-0.92922 0.56363,-0.92923 0.56363,-2.72675 0,-1.79751 -0.56363,-2.72674 -0.54839,-0.92923 -1.52332,-0.92923 -0.97492,0 -1.53855,0.92923 -0.5484,0.92923 -0.5484,2.72674 0,1.79752 0.5484,2.72675 0.56363,0.92922 1.53855,0.92922 z"
           id="path16152"
           style="fill:#ffffff;stroke:none" />
        <path
           d="m 179.20653,228.59368 q 0.36559,0 0.60932,0.24373 0.24373,0.24373 0.24373,0.60933 0,0.35036 -0.24373,0.59409 -0.24373,0.2285 -0.60932,0.2285 h -5.17929 q -0.39607,0 -0.62456,-0.24373 -0.2285,-0.24373 -0.2285,-0.62456 0,-0.38083 0.2742,-0.67026 l 3.32083,-3.54934 q 0.56363,-0.60932 0.88353,-1.21865 0.33513,-0.62456 0.33513,-1.14249 0,-0.6855 -0.48746,-1.18819 -0.48747,-0.5027 -1.12726,-0.5027 -0.44176,0 -0.89876,0.30467 -0.44176,0.28943 -0.80736,0.77689 -0.2742,0.3656 -0.70073,0.3656 -0.33513,0 -0.62456,-0.25897 -0.27419,-0.25896 -0.27419,-0.57886 0,-0.2285 0.15233,-0.457 0.15233,-0.24373 0.45699,-0.54839 0.57887,-0.57886 1.34053,-0.92923 0.76166,-0.35036 1.46238,-0.35036 1.00539,0 1.76705,0.42653 0.76166,0.42653 1.17296,1.17296 0.4113,0.74642 0.4113,1.69088 0,0.92923 -0.5027,1.91939 -0.48746,0.97492 -1.32529,1.87368 l -1.93461,2.05648 z"
           id="path16154"
           style="fill:#ffffff;stroke:none" />
        <path
           d="m 187.37151,228.59368 q 0.3656,0 0.60933,0.24373 0.24373,0.24373 0.24373,0.60933 0,0.35036 -0.24373,0.59409 -0.24373,0.2285 -0.60933,0.2285 h -5.17929 q -0.39606,0 -0.62456,-0.24373 -0.2285,-0.24373 -0.2285,-0.62456 0,-0.38083 0.2742,-0.67026 l 3.32084,-3.54934 q 0.56363,-0.60932 0.88352,-1.21865 0.33514,-0.62456 0.33514,-1.14249 0,-0.6855 -0.48747,-1.18819 -0.48746,-0.5027 -1.12725,-0.5027 -0.44177,0 -0.89876,0.30467 -0.44177,0.28943 -0.80736,0.77689 -0.2742,0.3656 -0.70073,0.3656 -0.33513,0 -0.62456,-0.25897 -0.2742,-0.25896 -0.2742,-0.57886 0,-0.2285 0.15233,-0.457 0.15234,-0.24373 0.457,-0.54839 0.57886,-0.57886 1.34052,-0.92923 0.76166,-0.35036 1.46239,-0.35036 1.00539,0 1.76705,0.42653 0.76166,0.42653 1.17296,1.17296 0.41129,0.74642 0.41129,1.69088 0,0.92923 -0.50269,1.91939 -0.48747,0.97492 -1.32529,1.87368 l -1.93462,2.05648 z"
           id="path16156"
           style="fill:#ffffff;stroke:none" />
      </g>
      <path
         d="m 173.16715,132.18362 c -4.28795,0 -6.64345,3.6247 -6.64345,6.13115 v 3.21706 c 0,3.69081 3.01544,5.9769 5.81164,5.9769 h 9.81645 c 1.23669,0 1.4956,0.80978 1.4956,1.49285 v 2.07622 c 0,0.22035 -0.0446,2.21448 -1.4956,2.21448 h -13.38607 c -1.33034,0 -2.29215,0.92546 -2.29215,2.19245 v 0.57345 c 0,1.26204 0.96181,2.18199 2.29215,2.18199 h 14.11321 c 3.68971,0 6.07055,-2.56704 6.07055,-6.5443 v -3.47156 c 0,-3.73433 -2.68272,-5.40345 -5.34671,-5.40345 h -9.65669 c -1.45429,0 -2.11313,-1.09072 -2.11313,-1.86193 v -1.91702 c 0,-1.2064 0.80702,-1.906 2.21724,-1.906 h 10.69232 c 1.31107,0 2.29767,-0.94198 2.29767,-2.18749 v -0.5729 c 0,-1.24992 -1.00313,-2.193 -2.34174,-2.193 h -11.52413 z"
         style="fill:#ffffff;stroke:none;stroke-width:0.479764"
         id="path1110"
         clip-path="url(#clipPath1374)"
         transform="matrix(2.6658898,0,0,2.546373,-1058.7262,485.5325)" />
      <path
         d="m 213.27025,132.18362 c -1.26754,0 -2.28885,1.03012 -2.28885,2.29767 v 16.43786 c 0,1.31712 -1.07419,2.37479 -2.37479,2.37479 h -7.45873 c -1.30501,0 -2.37369,-1.05767 -2.37369,-2.37479 v -16.43786 c 0,-1.26755 -1.03012,-2.29767 -2.29656,-2.29767 h -0.72164 c -1.28627,0 -2.29766,1.0147 -2.29766,2.29767 v 17.06034 c 0,3.97175 3.12562,6.85278 7.43119,6.85278 h 7.97655 c 4.29952,0 7.42568,-2.88048 7.42568,-6.85278 v -17.06034 c 0,-1.28297 -1.00753,-2.29767 -2.2916,-2.29767 h -0.72659 z"
         style="fill:#ffffff;stroke:none;stroke-width:0.479764"
         id="path1114"
         clip-path="url(#clipPath1389)"
         transform="matrix(2.6658898,0,0,2.546373,-1058.7262,485.5325)" />
      <path
         d="m 227.59279,132.18362 c -4.28574,0 -6.64896,3.6247 -6.64896,6.13115 v 3.21706 c 0,3.69081 3.0215,5.9769 5.81715,5.9769 h 9.81094 c 1.23835,0 1.49836,0.80978 1.49836,1.49285 v 2.07622 c 0,0.22035 -0.0446,2.21448 -1.49836,2.21448 h -13.39157 c -1.32429,0 -2.29161,0.92546 -2.29161,2.19245 v 0.57345 c 0,1.26204 0.96732,2.18199 2.29161,2.18199 h 14.11871 c 3.69081,0 6.08157,-2.56704 6.08157,-6.5443 v -3.47156 c 0,-3.73433 -2.69043,-5.40345 -5.35442,-5.40345 h -9.6567 c -1.45759,0 -2.11478,-1.09072 -2.11478,-1.86193 v -1.91702 c 0,-1.2064 0.80647,-1.906 2.21724,-1.906 h 10.69784 c 1.30775,0 2.2905,-0.94198 2.2905,-2.18749 v -0.5729 c 0,-1.24992 -1.00203,-2.193 -2.34669,-2.193 h -11.51863 z"
         style="fill:#ffffff;stroke:none;stroke-width:0.479764"
         id="path1118"
         clip-path="url(#clipPath1479)"
         transform="matrix(2.6658898,0,0,2.546373,-1058.7262,485.5325)" />
      <path
         d="m 250.12324,132.18362 c -1.2725,0 -2.23376,0.94308 -2.23376,2.193 v 21.68212 c 0,1.2444 0.93922,2.18143 2.18363,2.18143 h 17.27518 c 1.33035,0 2.29161,-0.91995 2.29161,-2.18143 v -0.57401 c 0,-1.26699 -0.96126,-2.19245 -2.29161,-2.19245 h -14.15176 v -5.51968 h 10.36731 c 1.32759,0 2.29215,-0.93097 2.29215,-2.193 v -0.5729 c 0,-1.26755 -0.96456,-2.1875 -2.29215,-2.1875 h -10.36731 v -5.68494 h 13.43013 c 1.32538,0 2.2916,-0.91389 2.2916,-2.18749 v -0.5729 c 0,-1.26755 -0.96622,-2.193 -2.2916,-2.193 h -16.50948 v 0.003 z"
         style="fill:#ffffff;stroke:none;stroke-width:0.479764"
         id="path1122"
         clip-path="url(#clipPath1434)"
         transform="matrix(2.6658898,0,0,2.546373,-1058.7262,485.5325)" />
      <path
         d="m 102.13454,154.10812 v -7.46424 c 0,-0.87533 0.71888,-1.59146 1.59806,-1.59146 h 4.11939 c 0.8599,0 1.59255,0.7321 1.59255,1.59146 v 7.46424 c 0,0.88139 -0.71337,1.59696 -1.59255,1.59696 h -4.15023 c -0.88139,0 -1.56722,-0.70015 -1.56722,-1.59696 m 1.14415,-11.61227 c -2.16546,0 -3.92768,1.6851 -3.92768,3.76242 v 8.17486 c 0,2.11037 1.70548,3.82908 3.79602,3.82908 h 5.28777 c 2.09054,0 3.79603,-1.71871 3.79603,-3.82908 v -8.17486 c 0,-2.07622 -1.76333,-3.76242 -3.92768,-3.76242 h -5.02501 z"
         style="fill:#ffffff;stroke:none;stroke-width:0.479764"
         id="path1126"
         clip-path="url(#clipPath1464)"
         transform="matrix(2.6658898,0,0,2.546373,-1058.7262,485.5325)" />
      <path
         d="m 118.91229,153.94837 v -7.13923 c 0,-0.98661 0.77121,-1.75672 1.75616,-1.75672 h 3.86213 c 0.98605,0 1.75616,0.77122 1.75616,1.75672 v 7.13923 c 0,0.96897 -0.79049,1.75616 -1.75616,1.75616 h -3.86213 c -0.96677,0 -1.75616,-0.78719 -1.75616,-1.75616 z m 5.28942,-11.54617 c -1.52425,0 -2.6739,0.54481 -3.59661,0.99101 -0.56243,0.26993 -1.0494,0.50239 -1.42729,0.50239 -0.17077,0 -0.31675,-0.0771 -0.39387,-0.20382 l -0.35201,-0.67206 c -0.0876,-0.17682 -0.44014,-0.52277 -0.87587,-0.52277 h -0.52278 c -0.50239,0 -0.90452,0.45116 -0.90452,1.00148 v 20.73462 c 0,0.65002 0.51286,1.16233 1.16233,1.16233 h 0.45226 c 0.64451,0 1.16784,-0.51781 1.16784,-1.16233 v -6.88032 c 0,-0.20382 0.13276,-0.42417 0.26662,-0.42417 0.37789,0 0.86486,0.22145 1.42729,0.47925 0.92271,0.42417 2.07236,0.94694 3.59661,0.94694 h 0.48807 c 2.69925,0 4.37884,-1.54297 4.37884,-4.02132 v -7.91596 c 0,-2.44034 -1.7154,-4.01582 -4.37884,-4.01582 h -0.48807 v -10e-4 z"
         style="fill:#ffffff;stroke:none;stroke-width:0.479764"
         id="path1130"
         clip-path="url(#clipPath1449)"
         transform="matrix(2.6658898,0,0,2.546373,-1058.7262,485.5325)" />
      <path
         d="m 135.74678,146.61633 c 0,-0.87643 0.68913,-1.56391 1.56611,-1.56391 h 4.24719 c 0.87532,0 1.5584,0.68748 1.5584,1.56391 v 2.53344 h -7.3706 c 0.001,-0.33052 0.001,-2.53344 0.001,-2.53344 z m 1.14305,-4.12048 c -2.16546,0 -3.92272,1.68455 -3.92272,3.76187 v 8.11426 c 0,2.10431 1.70823,3.88857 3.72386,3.88857 h 5.45523 c 0.67481,0 1.16233,-0.46713 1.16233,-1.10228 v -0.35752 c 0,-0.63845 -0.48752,-1.09622 -1.16233,-1.09622 h -4.48185 c -1.25598,0 -1.91867,-0.61752 -1.91867,-1.79142 v -2.37368 h 8.08672 c 1.3006,0 2.06961,-0.79325 2.06961,-2.13737 v -3.14545 c 0,-2.07621 -1.76057,-3.76242 -3.91666,-3.76242 h -5.09442 v 0.002 z"
         style="fill:#ffffff;stroke:none;stroke-width:0.479764"
         id="path1134"
         clip-path="url(#clipPath1419)"
         transform="matrix(2.6658898,0,0,2.546373,-1058.7262,485.5325)" />
      <path
         d="m 157.13693,142.4022 c -1.51984,0 -2.66675,0.54481 -3.5922,0.9866 -0.57566,0.27048 -1.06758,0.5068 -1.46916,0.5068 -0.17683,0 -0.24844,-0.022 -0.38561,-0.25946 l -0.32005,-0.58392 c -0.18344,-0.36908 -0.49523,-0.55527 -0.91665,-0.55527 h -0.4495 c -0.54261,0 -0.93868,0.42306 -0.93868,1.00203 v 13.6009 c 0,0.64396 0.509,1.16177 1.16508,1.16177 h 0.44896 c 0.64451,0 1.17004,-0.52332 1.17004,-1.16177 v -10.2902 c 0,-0.96401 0.78774,-1.75616 1.75176,-1.75616 h 3.86378 c 0.96677,0 1.75451,0.79215 1.75451,1.75616 v 10.2902 c 0,0.64396 0.51175,1.16177 1.16233,1.16177 h 0.45391 c 0.64451,0 1.16784,-0.52332 1.16784,-1.16177 v -10.68131 c 0,-2.44089 -1.71595,-4.01637 -4.3816,-4.01637 z"
         style="fill:#ffffff;stroke:none;stroke-width:0.479764"
         id="path1138"
         clip-path="url(#clipPath1404)"
         transform="matrix(2.6658898,0,0,2.546373,-1058.7262,485.5325)" />
      <g
         aria-label="ASIA"
         transform="matrix(3.8672089,0,0,3.6938344,-983.01376,102.84618)"
         id="text31763"
         style="font-weight:bold;font-size:25.0979px;line-height:1.25;font-family:Quicksand;-inkscape-font-specification:'Quicksand, Bold';fill:#ffffff;stroke:none;stroke-width:0.264583">
        <path
           d="m 192.31252,210.58317 q 0.12549,0.32627 0.12549,0.60235 0,0.65254 -0.42667,1.07921 -0.42666,0.40156 -0.97881,0.40156 -0.45177,0 -0.82824,-0.27608 -0.35137,-0.27607 -0.55215,-0.75293 l -1.30509,-3.03685 h -7.47917 l -1.3051,3.06195 q -0.17568,0.47686 -0.55215,0.75293 -0.35137,0.25098 -0.77803,0.25098 -0.65255,0 -1.00392,-0.35137 -0.32627,-0.35137 -0.32627,-0.95372 0,-0.22588 0.0753,-0.47686 l 6.24938,-15.00854 q 0.20078,-0.50196 0.60235,-0.77804 0.40156,-0.27608 0.90352,-0.22588 0.45176,0 0.82823,0.27608 0.40157,0.25098 0.57725,0.72784 z m -10.21485,-4.869 h 5.01958 l -2.53489,-5.87291 z"
           id="path16129"
           style="fill:#ffffff;stroke:none" />
        <path
           d="m 200.21836,212.79178 q -1.80705,0 -3.21254,-0.45176 -1.40548,-0.45176 -2.63527,-1.53097 -0.67765,-0.60235 -0.67765,-1.33019 0,-0.57725 0.42667,-1.00392 0.42666,-0.45176 1.02901,-0.45176 0.47686,0 0.85333,0.30117 1.00391,0.82824 1.95763,1.2047 0.95373,0.37647 2.25882,0.37647 1.40548,0 2.40939,-0.62745 1.02902,-0.62744 1.02902,-1.55606 0,-1.12941 -1.00392,-1.75686 -1.00391,-0.65254 -3.18743,-0.97882 -5.49644,-0.80313 -5.49644,-5.11997 0,-1.58117 0.82823,-2.73567 0.82823,-1.1796 2.25881,-1.78195 1.43058,-0.62745 3.18743,-0.62745 1.58117,0 2.96156,0.47686 1.40548,0.47686 2.3341,1.2549 0.72784,0.57725 0.72784,1.33019 0,0.57725 -0.42666,1.02901 -0.42667,0.42666 -1.00392,0.42666 -0.37647,0 -0.67764,-0.22588 -0.65255,-0.52705 -1.83215,-0.95372 -1.1545,-0.45176 -2.08313,-0.45176 -1.58116,0 -2.45959,0.60235 -0.85333,0.57725 -0.85333,1.53097 0,1.07921 0.87843,1.63137 0.90352,0.55215 2.81096,0.90352 2.15842,0.37647 3.43841,0.97882 1.3051,0.57725 1.95764,1.60626 0.65255,1.00392 0.65255,2.68548 0,1.58117 -0.90353,2.78587 -0.87842,1.1796 -2.3592,1.83214 -1.48078,0.62745 -3.18743,0.62745 z"
           id="path16131"
           style="fill:#ffffff;stroke:none" />
        <path
           d="m 212.69197,211.00983 q 0,0.65255 -0.47686,1.10431 -0.47686,0.42666 -1.10431,0.42666 -0.67764,0 -1.12941,-0.42666 -0.42666,-0.45176 -0.42666,-1.10431 v -14.50659 q 0,-0.65254 0.45176,-1.07921 0.45176,-0.45176 1.1545,-0.45176 0.62745,0 1.07921,0.45176 0.45177,0.42667 0.45177,1.07921 z"
           id="path16133"
           style="fill:#ffffff;stroke:none" />
        <path
           d="m 230.23539,210.58317 q 0.12549,0.32627 0.12549,0.60235 0,0.65254 -0.42667,1.07921 -0.42666,0.40156 -0.97881,0.40156 -0.45177,0 -0.82823,-0.27608 -0.35138,-0.27607 -0.55216,-0.75293 l -1.30509,-3.03685 h -7.47917 l -1.30509,3.06195 q -0.17569,0.47686 -0.55216,0.75293 -0.35137,0.25098 -0.77803,0.25098 -0.65255,0 -1.00392,-0.35137 -0.32627,-0.35137 -0.32627,-0.95372 0,-0.22588 0.0753,-0.47686 l 6.24938,-15.00854 q 0.20078,-0.50196 0.60235,-0.77804 0.40156,-0.27608 0.90352,-0.22588 0.45176,0 0.82823,0.27608 0.40157,0.25098 0.57726,0.72784 z m -10.21485,-4.869 h 5.01958 l -2.53488,-5.87291 z"
           id="path16135"
           style="fill:#ffffff;stroke:none" />
      </g>
      <ellipse
         style="font-variation-settings:normal;fill:#ffffff;fill-opacity:1;stroke:none;stroke-width:0.999999;stroke-linecap:butt;stroke-linejoin:miter;stroke-miterlimit:4;stroke-dasharray:none;stroke-dashoffset:0;stroke-opacity:1;paint-order:markers fill stroke;stop-color:#000000"
         id="path31879"
         cx="-318.87936"
         cy="877.78503"
         rx="12.666515"
         ry="12.098653" />
    </g>
  </g>
</svg>
